<svg xmlns="http://www.w3.org/2000/svg" width="40" height="40" viewBox="0 0 447.906 468.493"><path d="M560.84,45.754s-16.52,82.375-31.641,139.38-65.238,37.07-78.4,33.6-43.289-33.6-64.566-40.543c-14.336-4.594-28.336,8.176-36.4,18.09-8.062-9.91-22.062-22.68-36.4-18.09-21.281,6.887-51.52,37.129-64.566,40.543s-63.168,23.352-78.4-33.6-31.312-139.38-31.312-139.38-.672,24.695-4.09,32.93-11.7,41.887-8.23,50.848,8.23,18.535,3.414,27.441,2.07,31.586,2.07,31.586-3.473,54.266,3.414,66.641l3.414-12.375s4.145,32.984,5.6,48.777l.008-.008a377.675,377.675,0,0,1,1.344,57.68,145.2,145.2,0,0,0,4.871-23.352s3.414,45.3,18.535,60.426v-17.2s18.426,45.246,46.09,67.984l-3.473-13.719s30.91,29.512,48.777,39.816l-2.07-12.32L324.577,498.4l-4.816-13.047L350,514.246l30.238-29.008-4.812,13.16,65.91-47.375-2.07,12.32c17.863-10.3,48.777-39.816,48.777-39.816L484.4,437.136c27.5-22.4,46.031-67.984,46.031-67.984l0,17.246c15.121-15.121,18.535-60.426,18.535-60.426v0a144.293,144.293,0,0,0,4.871,23.352,377.678,377.678,0,0,1,1.344-57.68c1.344-15.793,5.6-48.777,5.6-48.777l3.414,12.375c6.887-12.375,3.414-66.641,3.414-66.641s6.887-22.4,2.07-31.586,0-18.535,3.414-27.441-4.762-42.617-8.231-50.848-4.027-32.977-4.027-32.977ZM413.17,295.684v8.23l-15.793,5.6v10.3H376.772L362.381,334.27l-7.559-11.7-4.816,2.633-4.816-2.633-7.559,11.7L323.24,319.821H302.627V309.4l-15.793-5.6v-8.117l-28.84-7.559a130.369,130.369,0,0,0,44.8-45.977l4.816,5.6,13.719-11.2,6.273,8.34,11.2-8.23,7.5,4.762,4.145-3.809,4.145,3.809,7.5-4.762,11.2,8.23,6.16-8.23,13.719,11.2,4.816-5.6v0a199.616,199.616,0,0,0,44.8,45.973Z" transform="translate(-126.01 -45.753)"/></svg>