<svg xmlns="http://www.w3.org/2000/svg" width="48" height="48" viewBox="0 0 8.928 7.898"><g transform="translate(-24 -32)"><path d="M154.4,40v7.211H152V40Z" transform="translate(-122.506 -7.657)" fill="#008e89" opacity="0.2"/><path d="M32.585,39.211h-.343V32.343A.343.343,0,0,0,31.9,32h-2.4a.343.343,0,0,0-.343.343V34.06H27.09a.343.343,0,0,0-.343.343v1.717H25.03a.343.343,0,0,0-.343.343v2.747h-.343a.343.343,0,1,0,0,.687h8.241a.343.343,0,0,0,0-.687Zm-2.747-6.524h1.717v6.524H29.837Zm-2.4,2.06h1.717v4.464H27.434Zm-2.06,2.06h1.374v2.4H25.374Z" fill="#008e89"/></g></svg>