<svg xmlns="http://www.w3.org/2000/svg" width="40" height="40" viewBox="0 0 416.978 504.576"><g transform="translate(1013.765 3056)"><path d="M476.12,334.84,558.491,310.3l-.7-3.852c-.281-1.562-28.145-156.65-32.77-187.46-5.051-33.691-30.754-40.77-31.844-41.055l-.887-.133C432.627,74.813,401.5,39.6,401.19,39.247l-.18.152C393.842,28.1,354.858,27.711,350,27.711s-43.859.391-51.02,11.695l-.18-.152c-.3.363-31.215,35.559-91.1,38.551l-.887.133c-1.09.285-26.785,7.363-31.84,41.055-4.621,30.805-32.48,185.9-32.766,187.46l-.7,3.852,82.371,24.535,3.441-50.266c4.578,66.758,8.883,159.27,4.84,235.03l-.2,3.793,3.727.734c.434.082,42.379,8.156,114.31,8.156s113.88-8.074,114.3-8.148l3.727-.734-.2-3.793c-4.043-75.762.27-168.28,4.848-235.03ZM350,49.82c-24.492,0-39.141-4.055-42.891-6.68,3.746-2.617,18.387-6.684,42.891-6.684s39.148,4.066,42.887,6.684C389.141,45.761,374.5,49.82,350,49.82Z" transform="translate(-1155.278 -3083.711)"/></g></svg>