<svg xmlns="http://www.w3.org/2000/svg" width="40" height="40" viewBox="0 0 478.986 265.69"><g transform="translate(520.989 2869)"><path d="M587.07,305.51l-5.6-6.844a369.018,369.018,0,0,0-64.09-59.734c-53.512-39.2-111.38-59.734-168-59.734s-114.49,20.535-168,59.734c-38.574,29.246-62.219,58.488-62.84,59.734l-5.6,6.844a10.317,10.317,0,0,0,0,13.066l5.6,6.844a369.019,369.019,0,0,0,64.09,59.734c53.512,39.2,111.38,59.734,168,59.734s114.49-20.535,168-59.734a369.2,369.2,0,0,0,64.09-59.734l5.6-6.844C590.183,314.842,590.183,309.244,587.07,305.51ZM350,413.78A102.04,102.04,0,1,1,452.04,311.74,101.7,101.7,0,0,1,350,413.78Z" transform="translate(-631.593 -3048.198)"/><path d="M350,242.04a69.688,69.688,0,1,0,69.688,69.688A69.572,69.572,0,0,0,350,242.04Zm53.512,69.691A53.508,53.508,0,0,1,350,365.243a10.487,10.487,0,0,1-10.578-10.578A10.616,10.616,0,0,1,350,344.091a31.868,31.868,0,0,0,31.734-31.734,10.487,10.487,0,0,1,10.578-10.578,10.16,10.16,0,0,1,11.2,9.953Z" transform="translate(-631.593 -3048.198)"/></g></svg>