<svg width="700pt" height="700pt" version="1.1" viewBox="0 0 700 700" xmlns="http://www.w3.org/2000/svg"> <path d="m259.48 397.55c-4.9414 0-9.0078-4.0703-9.0078-9.0078 0-16.273-6.6836-31.094-17.145-41.559-10.754-10.754-25.281-17.145-41.559-17.145-4.9414 0-9.0078-4.0703-9.0078-9.3008 0-4.9414 4.0703-9.0078 9.0078-9.0078 21.215 0 40.395 8.7188 54.344 22.668 13.66 13.949 22.375 33.129 22.375 54.344 0 4.9414-4.0703 9.0078-9.0078 9.0078zm316.47 0c-4.9414 0-9.0078-4.0703-9.0078-9.0078 0-16.273-6.3945-31.094-17.145-41.559-10.461-10.754-25.281-17.145-41.559-17.145-4.9414 0-9.0078-4.0703-9.0078-9.3008 0-4.9414 4.0703-9.0078 9.0078-9.0078 21.215 0 40.395 8.7188 54.344 22.668s22.668 33.129 22.668 54.344c0 4.9414-4.0703 9.0078-9.3008 9.0078zm-387.09-329.26m322.29 0m-319.38 198.2c-30.516 0-58.41 11.043-79.918 29.641l55.215-214.18c2.3242-8.4258 8.1367-13.078 14.238-13.949 2.6172-0.58203 5.2305-0.28906 7.5547 0.28906 2.6172 0.87109 4.9414 2.0352 6.6836 3.7773 5.2305 4.6484 7.8477 13.66 4.0703 26.156-1.4531 4.9414 1.4531 9.8789 6.1016 11.332 4.6484 1.4531 9.8789-1.1641 11.332-6.1016 6.1016-20.344 0.58203-35.746-9.3008-44.754-4.0703-3.4883-8.7188-6.3945-13.949-7.5547-4.9414-1.4531-10.461-2.0352-15.402-1.1641-12.785 2.3242-24.41 11.043-28.48 27.316l-65.387 252.83c-9.5898 17.438-14.82 37.199-14.82 58.41 0 33.711 13.66 63.934 35.746 86.02 22.086 22.086 52.602 35.746 86.309 35.746 33.711 0 64.223-13.66 86.309-35.746 20.051-20.051 33.129-47.078 35.164-77.012h73.523c2.0352 29.934 15.113 56.961 35.164 77.012 22.086 22.086 52.602 35.746 86.309 35.746 33.711 0 64.223-13.66 86.309-35.746 22.086-22.086 35.746-52.309 35.746-86.02 0-21.215-5.2305-40.977-14.82-58.41l-65.098-252.83c-4.3594-16.273-15.984-24.992-28.77-27.316-4.9414-0.87109-10.461-0.28906-15.402 0.87109-5.2305 1.4531-9.8789 4.3594-13.949 7.8477-9.8789 9.0078-15.402 24.41-9.3008 44.754 1.4531 4.9414 6.6836 7.5547 11.332 6.1016 4.6484-1.4531 7.5547-6.3945 6.1016-11.332-3.7773-12.496-1.1641-21.504 4.0703-26.156 1.7422-1.7422 4.0703-2.9062 6.6836-3.7773 2.3242-0.58203 4.9414-0.87109 7.5547-0.28906 6.1016 0.87109 11.914 5.5234 14.238 13.949l55.215 214.18c-21.504-18.598-49.402-29.641-79.918-29.641-33.711 0-64.223 13.66-86.309 35.746-20.051 20.051-33.129 47.078-35.164 77.301h-73.523c-2.0352-30.223-15.113-57.25-35.164-77.301-22.086-22.086-52.602-35.746-86.309-35.746z" fill-rule="evenodd"/> </svg>