<svg xmlns="http://www.w3.org/2000/svg" width="504.004" height="411.196" viewBox="0 0 504.004 411.196"><g transform="translate(208.537 2999.015)"><path d="M598.46,300.88c-3.9-35.336-22.688-62.492-47.551-86.352l-4.312-6.984c11.746,15.9,52.156,6.988,55.4-9.25a.45.45,0,0,0-.086.016c.016-.062.055-.125.066-.184-33,8.629-43.68-33-71.277-28.207l-7.016-.387c-15.613-45.793-104.62-47.363-118.71-95.117.023.129.055.258.078.387-.023-.066-.051-.129-.074-.2,3.629,17.7,6.2,33.645,20.492,44.094l-13.2-3.187c-24.473-20.02-103.7-42.75-127.45-11.918.055-.012.113-.016.18-.027-.055.066-.125.125-.18.191,18.2-3.137,34.57.875,50.438,8.18,3.758,1.734,7.5,3.68,11.262,5.746h-8.359c-61.062-19.152-148.73,10.711-184.4,62.781.129-.133.273-.254.4-.391-.125.184-.27.359-.4.543a55.658,55.658,0,0,1,13.57-10.18l9.16,3.824a22.353,22.353,0,0,0-8.309-4.312c9.871-5.187,21-7.617,32.234-9.078l8.359.645-10.629,3.207c-53.867,34.684-86.465,57.824-96.691,109.93a.205.205,0,0,1-.016.066c-.5,2.574-.941,5.234-1.332,7.953-.086.539-.156,1.074-.23,1.613q-.5,3.662-.867,7.516c-.039.43-.09.855-.129,1.3q-.4,4.559-.645,9.391c0,.184,0,.375-.016.555-.129,2.883-.2,5.859-.234,8.9,0,.961,0,1.949,0,2.934,0,2.328.023,4.711.074,7.133.023,1.2.051,2.4.09,3.641.074,2.359.184,4.789.32,7.242.051,1.109.074,2.156.141,3.289.582-12.02,7.727-25.855,14.836-35l13.027-9.094c-11.344,17.289-14.941,36.539-14.293,56.5,1.023,32.816,13.5,67.543,21.734,98.559.508,1.926,1,3.832,1.473,5.73.816,3.277,1.6,6.52,2.277,9.688l9.055,10.008c4.367,4.441,9.016,8.141,12.344,12.969,0-.062,0-.117,0-.172a.03.03,0,0,0,0,.012c2.328-32.082-5.711-60.895-10.859-88.441a185.432,185.432,0,0,1-2.152-25.77c-.164-6.324-.141-13.324.2-20.719,3.574,11.492,10.426,22.461,19.27,32.25.078-.617.141-1.187.211-1.793.09-.719.18-1.43.254-2.129.648-5.863,1.008-11.238,1.785-16.445.039-.3.078-.605.125-.914.039-.172.039-.348.09-.52.125-.648.2-1.3.375-1.961a.442.442,0,0,1,.039-.219c.125-.738.293-1.477.492-2.27.039-.129.078-.258.129-.387.164-.7.324-1.348.539-2.051.125-.43.293-.867.414-1.262s.254-.785.375-1.215c.293-.785.582-1.566.918-2.352a.146.146,0,0,0,.039-.09,51.656,51.656,0,0,1,4.07-7.617.943.943,0,0,1,.254-.348c.578-.867,1.2-1.742,1.863-2.609.453-.57.957-1.133,1.449-1.7.332-.4.668-.785,1.043-1.176.629-.7,1.289-1.348,1.953-2.051a10.174,10.174,0,0,0,.746-.738c5.473-5.375,12.293-10.668,18.508-16.184a123.429,123.429,0,0,0-1.52,22.07c0,.125,0,.258,0,.379a107.074,107.074,0,0,0,1.7,21.895c.828-7.875,3.863-15.367,8.188-22.461a109.938,109.938,0,0,1,7.555-8.7c0,.543.074,1.063.09,1.6l-.074.027c.055,1.473.164,2.91.3,4.336.051.488.113.953.172,1.434q.193,1.688.438,3.332c.668,4.457,1.566,8.7,2.363,12.6.164.957.375,1.875.543,2.789a.362.362,0,0,0,.039.219c.2,1.176.375,2.309.539,3.395a91.917,91.917,0,0,1,9.094-19.41,69.471,69.471,0,0,1,12.512-14.711,92.8,92.8,0,0,1,11.7-8.664L295.9,300.83c.309-.094.629-.184.926-.293.828-.258,1.613-.52,2.406-.785.578-.219,1.121-.391,1.652-.605.8-.309,1.539-.609,2.289-.957.332-.141.684-.27,1.023-.414-11.789,12.789-23.961,36.012-23.84,54.73,0,.309-.035.621-.035.918a49.418,49.418,0,0,1,6.355-9.711c.039-.043.09-.086.09-.129.789-.875,1.535-1.7,2.32-2.48a1.118,1.118,0,0,1,.09-.086,45.148,45.148,0,0,1,13.746-9.184.158.158,0,0,1,.129-.043c.953-.437,1.949-.828,2.906-1.176a.15.15,0,0,1,.125-.043c10.93-4.047,23.1-5.227,34.738-7.965a3.144,3.144,0,0,0,.621-.172c.656-.133,1.32-.3,1.949-.48a8.557,8.557,0,0,0,1.121-.309c.629-.129,1.211-.3,1.793-.477.414-.129.828-.258,1.281-.391.543-.172,1.125-.348,1.664-.52.414-.172.875-.3,1.289-.48.539-.219,1.121-.391,1.613-.609.465-.172.875-.348,1.332-.52.5-.219,1.043-.43,1.586-.648.414-.219.789-.4,1.2-.609,1-.477,1.953-.957,2.91-1.477.414-.258.828-.48,1.2-.7.5-.3,1-.609,1.5-.957a8.918,8.918,0,0,0,.867-.57,1.35,1.35,0,0,0,.332-.211c.391-.285.773-.57,1.16-.852-7.285,9.48-20.8,23.605-31.836,25.91.32,0,.629-.012.941-.023-.293.078-.594.184-.887.254.125,0,.246-.043.414-.043a48.394,48.394,0,0,0,5.605-.477,1.132,1.132,0,0,1,.375-.043,59.953,59.953,0,0,0,6.563-1.437c.039,0,.039-.039.086-.039,2.168-.609,4.324-1.3,6.523-2.133.125-.039.293-.129.414-.172a112.928,112.928,0,0,0,32-19.453l2.336.156a47.221,47.221,0,0,0-6.457,19.113,1.067,1.067,0,0,0,.066-.094.306.306,0,0,1-.016.1.36.36,0,0,0-.039.172l.039-.043a46.681,46.681,0,0,1,3.613-5.18c.254-.262.422-.52.668-.785a58.188,58.188,0,0,1,4.156-4.352c.254-.219.5-.43.746-.656a60.367,60.367,0,0,1,10.809-7.488c13.664-7.527,30.613-11.273,46.2-15.758.125-.043.254-.086.375-.129,1.824-.52,3.617-1.047,5.4-1.613,1.082-.309,2.117-.656,3.16-1,.582-.219,1.16-.391,1.746-.605,1.2-.391,2.367-.828,3.527-1.266.375-.168.789-.3,1.172-.43,1.535-.605,3.07-1.262,4.531-1.953.2-.09.414-.172.578-.262,1.332-.609,2.582-1.262,3.82-1.914.293-.172.543-.309.8-.437a50.093,50.093,0,0,0,7.8-5.395l.254-.262a35.218,35.218,0,0,0,3.113-3.09c.039-.043.086-.09.125-.133.086.566.172,1.133.254,1.7.078.7.164,1.391.211,2.129.164,1.523.242,3.09.332,4.66,0,.258.039.48.039.7.078,1.965.078,3.922.039,5.926a10.494,10.494,0,0,1-.039,1.086c0,.258-.023.52-.035.785-.055,1.848-.145,3.7-.285,5.543,0,.078,0,.164-.016.242-.09,1.262-.211,2.527-.332,3.742-.066.633-.125,1.266-.2,1.9-.129,1.172-.293,2.32-.453,3.465-.258,2.027-.582,4-.934,5.938-.113.609-.2,1.23-.312,1.824-.141.762-.312,1.457-.465,2.2-.27,1.281-.539,2.582-.828,3.8,0-.023.023-.039.039-.062-.023.078-.035.18-.055.258,1.5-2.09,16.5-21.953,18.414-30.75,0,0,.086.3.2.836l-.094,0c.332,1.691.566,3.434.758,5.191.43,6.148.23,17.191-3.555,34.035a3.73,3.73,0,0,0-.066.453,82.18,82.18,0,0,1-9.3,21.578,1.166,1.166,0,0,1,.156-.074,1.227,1.227,0,0,0-.094.152c0,.043-.039.086-.039.133a53.738,53.738,0,0,0,4.984-2.48,1.415,1.415,0,0,0,.293-.172c13.086-7.352,25.883-21.719,32.2-37.078.168.7.293,1.434.414,2.133.168.824.332,1.605.5,2.438.242,1.395.414,2.828.629,4.266.078.566.164,1.125.2,1.7.168,1.395.293,2.828.375,4.223.074.555.113,1.137.156,1.691,0,.094.016.2.016.293.074,1.2.113,2.387.145,3.563.023.941.051,1.887.055,2.832,0,1.254,0,2.508-.039,3.762,0,.219-.012.43-.012.645-.016.734-.035,1.473-.055,2.211-.023.66-.055,1.32-.086,1.98-.09,1.59-.184,3.18-.312,4.77-.066.75-.129,1.512-.2,2.277-.145,1.535-.293,3.074-.469,4.609-.023.23-.051.453-.086.684a274.7,274.7,0,0,1-5.531,30.129l-2.953,10.723c.129-.133.254-.293.379-.43-.973,3.719-1.961,7.309-2.941,10.793-.258.926-.52,1.875-.777,2.777a1.067,1.067,0,0,0,.066-.094c-.023.086-.051.18-.074.262.531-.777,1.047-1.586,1.566-2.379q1.225-1.875,2.465-3.734a2.714,2.714,0,0,1,.156-.234c1.953-2.934,3.941-5.828,5.824-8.844.211-.348.422-.656.629-1,1.586-2.477,3.113-5.051,4.613-7.617a.767.767,0,0,0,.164-.262c1.535-2.609,3.074-5.3,4.531-8,.254-.437.453-.914.707-1.348,1.16-2.129,2.246-4.3,3.328-6.48.414-.789.789-1.574,1.16-2.4.957-1.953,1.863-3.961,2.742-5.918.336-.785.668-1.566,1-2.352,1.16-2.656,2.238-5.355,3.238-8.055.211-.609.375-1.215.582-1.785.508-1.449.973-2.918,1.445-4.387.3,1.773.449,2.762.449,2.762-2.481,21.836-5.926,47.8-7,54.293a257.141,257.141,0,0,0-2.777,57.309q.51,9.158,1.535,18.5a54.613,54.613,0,0,0,2.894-10.129,21.219,21.219,0,0,1,4.168-8.934l8.8-7.707c.4-2.027.9-3.922,1.348-5.887,7.258-31.852,19.887-55.793,27-83.777.039-.141.074-.281.105-.414,1.086-4.312,2.039-8.727,2.8-13.277.2-1.137.379-2.289.547-3.449.145-.973.293-1.949.422-2.934.285-2.16.527-4.344.723-6.578a3.112,3.112,0,0,0,.039-.32c.051-.6.074-1.223.113-1.824.094-1.309.2-2.621.258-3.961.055-1.059.078-2.133.113-3.207.035-1.1.055-2.207.074-3.32,0-1.07,0-2.141-.012-3.227-.016-1.348-.051-2.727-.094-4.117-.035-.844-.051-1.68-.094-2.531a209.762,209.762,0,0,0-5.027-35.711l1.469-3.207c1.7,1.824,3.406,3.656,4.988,5.527,3.613,4.219,6.727,8.746,8.309,14.621-.016-.184-.051-.359-.074-.539a.638.638,0,0,0,.039.172Z" transform="translate(-306.531 -3073.43)"/></g></svg>