<svg xmlns="http://www.w3.org/2000/svg" width="48" height="48" viewBox="0 0 9.279 4.02"><g transform="translate(0 -112)"><path d="M8.309,152H9.546v2.165H8.309A.309.309,0,0,1,8,153.855v-1.546A.309.309,0,0,1,8.309,152Z" transform="translate(-7.691 -38.454)" fill="#008e89" opacity="0.2"/><path d="M8.9,113.123a.944.944,0,0,0-.821-.164l-1.617.372A1.082,1.082,0,0,0,5.412,112H3.477a1.23,1.23,0,0,0-.875.362l-.874.875H.618a.619.619,0,0,0-.618.618V115.4a.619.619,0,0,0,.618.618h4.02a.306.306,0,0,0,.075-.009l2.474-.618a.268.268,0,0,0,.046-.015l1.5-.639.017-.008a.951.951,0,0,0,.152-1.607Zm-8.285.732h.928V115.4H.618Zm7.864.317-1.469.625-2.413.6H2.165v-1.728l.875-.874a.613.613,0,0,1,.437-.181H5.412a.464.464,0,0,1,0,.928H4.329a.309.309,0,0,0,0,.618H5.566a.321.321,0,0,0,.069-.008l2.59-.6.012,0a.332.332,0,0,1,.244.615Z" transform="translate(0 0)" fill="#008e89"/></g></svg>