<svg xmlns="http://www.w3.org/2000/svg" width="40" height="40" viewBox="0 0 552.22 384.356"><g transform="translate(1572.22 4369.479)"><path d="M553.78,301.78c-3.109-1.555-7,.777-7.777,4.668C541.335,329,525.78,343.78,514.112,352.339c-54.445,41.223-120.55,48.223-178.11,49H323.557c-17.109,0-39.668-.777-61.445-7-33.445-9.332-65.332-28.777-91-58.332-7.777-8.555-12.445-19.445-15.555-31.109a6.243,6.243,0,0,0-7.777-4.668C102.67,318.121,74.67,343.007,74.67,369.453c0,56,123.67,101.89,276.11,101.89s276.11-45.891,276.11-101.89c-.777-24.895-28-49-73.109-67.672Z" transform="translate(-1646.89 -4456.467)"/><path d="M403.67,111.22C430.893,91,469.779,92.552,492.338,122.111c8.555,11.668,14.777,25.668,19.445,40.445a441.391,441.391,0,0,1,20.223,115.89,175.9,175.9,0,0,1-.777,20.223c-3.109,15.555-14,26.445-24.891,35-49.777,38.109-111.22,45.109-169.55,45.891-23.332.777-47.445,0-70-6.223-31.109-8.555-59.891-27.223-83.223-53.668-10.109-11.668-14.777-28-12.445-45.109l10.109-80.109c2.332-19.445,5.445-38.891,10.891-56.777,6.223-17.891,15.555-35,29.555-43.555,23.332-15.555,53.668-3.891,73.891,17.891,7.777,8.555,14.777,17.891,23.332,24.891,13.223,10.109,30.332,12.445,45.109,6.223,14-7.016,25.668-21.793,39.668-31.9Z" transform="translate(-1646.89 -4456.467)"/></g></svg>