<svg xmlns="http://www.w3.org/2000/svg" width="48" height="48" viewBox="0 0 7.596 7.598"><g transform="translate(-23.955 -23.979)"><path d="M38.5,34.992l-1.022,1.022a1.744,1.744,0,0,1-.968.492,1.744,1.744,0,0,1-.492.968L34.992,38.5a1.753,1.753,0,1,1-2.478-2.478L33.536,35A1.744,1.744,0,0,1,34.5,34.5,1.744,1.744,0,0,1,35,33.536l1.022-1.022A1.753,1.753,0,1,1,38.5,34.992Z" transform="translate(-7.751 -7.728)" fill="#008e89" opacity="0.2"/><path d="M28.1,29.908a.292.292,0,0,1,0,.413l-.655.657a2.046,2.046,0,1,1-2.892-2.894l1.027-1.026a2.045,2.045,0,0,1,2.8-.084.293.293,0,0,1-.388.438,1.46,1.46,0,0,0-2,.06L24.968,28.5a1.461,1.461,0,0,0,2.066,2.066l.655-.655a.292.292,0,0,1,.413,0Zm2.851-5.331a2.048,2.048,0,0,0-2.892,0l-.655.656a.292.292,0,0,0,.413.413l.655-.655a1.461,1.461,0,0,1,2.066,2.066l-1.027,1.027a1.46,1.46,0,0,1-2,.058.293.293,0,1,0-.388.438,2.045,2.045,0,0,0,2.8-.083l1.027-1.026a2.048,2.048,0,0,0,0-2.893Z" transform="translate(0)" fill="#008e89"/></g></svg>