<svg xmlns="http://www.w3.org/2000/svg" width="40" height="40" viewBox="0 0 558.91 282.963"><g transform="translate(2419 3707)"><path d="M70,263.93c65.766-5.164,103.38-79.465,149.48-117.77,95.289,25.75,160.56,24.223,250.94-7.094,44.812,42.406,89.953,107.67,158.48,107.67-98.48,117.7-106.43,171.09-274.16,175.22-158.06,2.09-176.88-40.77-284.75-158.03Zm76.531,16.184c141.49,38.16,273.31,33.59,413.63-9.113-47.848-4.355-76.5-10.559-112.14-28.2-12.8-6.336-32.48-3.7-55.52-.941-37.844,4.527-49.2,3.977-87.141-.41-19.9-2.3-37.129-3.875-49.531,1.988-27.617,13.055-49.789,26.672-109.3,36.68Z" transform="translate(-2488.99 -3846.066)" fill-rule="evenodd"/></g></svg>