<svg xmlns="http://www.w3.org/2000/svg" width="47.244" height="49.807" viewBox="0 0 47.244 49.807"><path d="M31.312,42.373c-.043.022-.125.047-.125.063a2.929,2.929,0,0,0,.067.354c-.168-.08-.272-.132-.4-.2-.034.1-.06.186-.106.332l-.136-.289c-.114-.013-.238.007-.266-.035a7.423,7.423,0,0,1-.723-1.2c-.218-.535-.33-1.114-.5-1.669a.462.462,0,0,0-.218-.276c-1.032-.4-2.072-.792-3.109-1.183a.977.977,0,0,0-.129-.03q-1.313,2.909-2.631,5.82l-.08-.08a1.03,1.03,0,0,0-.369-.073c-.268.048-.363-.073-.361-.307,0-.464.019-.926.026-1.39.028-1.561.05-3.124.088-4.685a.407.407,0,0,0-.315-.468c-1.619-.591-3.227-1.211-4.846-1.8a2.206,2.206,0,0,1-1.319-1.172,1.773,1.773,0,0,1-.011-.643l-.22-.032a5.611,5.611,0,0,1,.05-2.383c.691-3.111,1.4-6.219,2.1-9.33a2.481,2.481,0,0,1,1.522-1.841,14.4,14.4,0,0,1,1.567-.486c.192-.056.367-.061.311.192l.669-.179a.044.044,0,0,0,0,.015,1.16,1.16,0,0,1,.348-.121c.717-.017.719-.011.887-.717a2.472,2.472,0,0,1,2.6-2.049c1.218,0,2.435-.006,3.653.006a1.628,1.628,0,0,1,.445.125c.229,0,.509.084.676-.017a1.834,1.834,0,0,1,1.051-.1c1.7-.019,3.4-.015,5.1-.006,1,.006,2,.028,3,.061a4.112,4.112,0,0,1,1.14.292,1.341,1.341,0,0,1,.954.864,3.407,3.407,0,0,1,.1,1.185c-.024.468-.047.432.408.5a13.611,13.611,0,0,1,2.23.481,4.373,4.373,0,0,1,1.33.836,2.423,2.423,0,0,1,.686,1.466q.894,4.393,1.8,8.782a5.641,5.641,0,0,1,.142,2.176,1.936,1.936,0,0,1-.909,1.388c-1.319.8-2.636,1.593-3.964,2.373a.554.554,0,0,0-.322.559c.019.846.017,1.692,0,2.537a2.141,2.141,0,0,1-.162.533l.181-.088c0,.4.011.775-.007,1.144a.455.455,0,0,1-.179.263,1.607,1.607,0,0,1-.373.151h.535c.011.24.022.469.035.732-.24-.052-.5-.252-.613.089-.028.088.119.229.257.322-.032.088-.061.177-.1.285l.333.108c-.091.071-.171.13-.276.212l.292.021c-.007.045,0,.08-.017.1a.433.433,0,0,1-.766-.153c-.235-.574-.447-1.157-.669-1.736q-.623-1.629-1.246-3.26c-.037-.1-.088-.194-.145-.324-.147.078-.279.143-.408.214q-3.5,1.956-6.992,3.918c-.237.134-.425.212-.637-.065-.078-.1-.306-.089-.468-.129l.132-.25-.006.006c.3-.2.6-.408.913-.585q2.417-1.369,4.844-2.726c.712-.4,1.425-.8,2.133-1.194.1.078.17.138.242.2s.142.123.237.2c.048-.127.086-.222.119-.311l-.274-.188a.61.61,0,0,1,.885.156c.374.952.74,1.908,1.108,2.862.035.091.075.181.112.272l.088-.021v-.341c-.011-1.12-.011-2.241-.041-3.359a.774.774,0,0,1,.445-.775c1.369-.794,2.72-1.621,4.089-2.414a1.443,1.443,0,0,0,.74-1.371c0-.3-.035-.607-.054-.9l.347-.112c-.32-.225-.231-.65-.563-.81-.017-.007-.011-.061-.019-.091a5.248,5.248,0,0,1-.179-.851c-.017-.3-.3-.632.047-.918a.086.086,0,0,0,0-.088,2.022,2.022,0,0,1-.374-1.2c-.028-.276-.257-.6.009-.807a3.544,3.544,0,0,1-.591-2.789c-.048.1-.1.207-.17.369-.129-.546-.24-1.017-.348-1.487a7.047,7.047,0,0,0-.214-.931,1.855,1.855,0,0,0-1-1.008,5.189,5.189,0,0,0-1.854-.525c-.225-.019-.451-.039-.674-.061-.186-.019-.278.065-.3.25-.153,1.271-.3,2.543-.468,3.814-.032.242.063.345.285.415.645.207,1.285.432,1.926.652A1.92,1.92,0,0,1,44.626,26.6a21.829,21.829,0,0,1,.587,2.4c.02.1-.108.225-.157.32.024.093.056.2.106.4l-.665-.356c-.021.02-.043.039-.063.06.1.246.2.494.3.732-.628.589-2.673.885-3.042.538l-.607.106V30.15c-.2.082-.319.153-.274.382.032.171-.048.294-.261.222-.019-.263-.035-.518-.052-.771-.032,0-.063-.007-.093-.009-.045.311-.1.622-.129.935-.021.212.013.43-.011.643-.069.643-.156,1.282-.233,1.924a8.575,8.575,0,0,1-.607,2.729,3.18,3.18,0,0,1-3,1.973,6.011,6.011,0,0,1-2.029-.333c-.62-.2-1.244-.389-1.883-.587-.063.186-.112.33-.16.469a2.744,2.744,0,0,1-1.256,1.58c-.523.289-.6.266-.933-.155-.009-.011-.037-.007-.073-.013-.017.058-.058.123-.045.173.164.654.3,1.319.522,1.954a1.955,1.955,0,0,0,.572.751.4.4,0,0,1,.177.36l0-.006ZM44.051,29.632c-.028.1-.058.2-.071.252l.238.468c.291-.16.125-.406.175-.695-.253.242-.265.069-.291-.084a.823.823,0,0,0,.162-.782c-.112-.427-.181-.864-.281-1.293a1.525,1.525,0,0,0-1.071-1.222c-.483-.147-.961-.317-1.433-.5a2.076,2.076,0,0,1-.4-.309l-.676.211c.231.047.374.075.525.106a3.192,3.192,0,0,1,0,.354c-.136,1.122-.272,2.243-.419,3.365-.032.242.009.358.287.352.721-.011,1.444,0,2.165,0,.294,0,.648-.259.846.235-.037-.255-.108-.488.25-.46Zm-18.369-3.5c.248.069.3-.089.32-.279a1.525,1.525,0,0,1,.212.345q.492,1.668.956,3.346a.372.372,0,0,0,.43.317c1.248-.011,2.5-.017,3.746,0,.333.006.419-.106.419-.423,0-1.1.032-2.195.039-3.294a1.3,1.3,0,0,0-.749-1.293,3.843,3.843,0,0,0-1.351-.374c-1.235-.058-2.474-.032-3.713-.037a2.091,2.091,0,0,0-.259.037c.069.252.147.483.194.721.043.214.05.436.075.654-.065-.3-.283-.13-.44-.143-.065-.026-.16-.034-.19-.082-.2-.33-.373-.673-.578-1a.412.412,0,0,0-.283-.179c-.462-.019-.926,0-1.388-.013-.222-.007-.3.091-.339.289-.194,1.038-.41,2.07-.587,3.109-.225,1.325.35,2,1.68,2.019.689.007,1.379,0,2.068,0a3.132,3.132,0,0,0,.32-.034c-.078-.361-.149-.682-.22-1.008.054-.043.123-.095.242-.19-.162-.011-.252-.017-.387-.024.08-.225.147-.419.214-.613l-.069-.032c-.06.075-.119.147-.209.261-.114-.408-.216-.768-.317-1.131.06-.067.123-.142.153-.175-.1-.073-.263-.145-.255-.186.041-.211-.1-.361-.153-.527l.417-.063Zm3.044,12.23c-.224-.782-.436-1.472-.613-2.169a.593.593,0,0,0-.449-.473c-2.632-.851-5.261-1.72-7.892-2.575a1.811,1.811,0,0,1-1.3-1.284,3.686,3.686,0,0,1-.125-1.462c.265-1.593.607-3.173.918-4.758a2.4,2.4,0,0,1,1.494-1.818,5.532,5.532,0,0,1,1.081-.315.314.314,0,0,0,.3-.306c.1-.583.222-1.164.337-1.744a.942.942,0,0,1,.086-.268,2.752,2.752,0,0,1,.211-.3l-.071-.041-.114.1c.037-.235.071-.443.11-.682a5.8,5.8,0,0,0-3.139.55,1.608,1.608,0,0,0-.851,1.118c-.127.579-.265,1.155-.421,1.727a1.794,1.794,0,0,1-.294.432,6.8,6.8,0,0,1-.007.864A6.428,6.428,0,0,1,17.758,26a6.987,6.987,0,0,0-.389,1.613c-.028.52-.408.95-.376,1.513a7.336,7.336,0,0,1-.2,1.276,22.545,22.545,0,0,0-.272,2.366,1.584,1.584,0,0,0,1.189,1.671c1.731.594,3.432,1.274,5.149,1.906a.6.6,0,0,1,.449.652c-.024.743-.032,1.487-.037,2.23-.006.628,0,1.254,0,1.893.175-.337.36-.659.51-1,.326-.732.667-1.459.939-2.211.13-.36.533-.414.665-.738.009-.024.143-.015.211.007.3.1.605.218.905.332l2.221.851Zm7.3-8.506h2.487a3.353,3.353,0,0,1,.643.02c.283.058.388-.058.428-.315.034-.218.1-.434.142-.65a5.485,5.485,0,0,0,.14-.73c.026-.4-.006-.807.024-1.207.035-.471.117-.939.171-1.41.032-.274-.127-.395-.4-.412a3.446,3.446,0,0,1-.637-.164c-.177-.047-.354-.1-.533-.127s-.343-.009-.5-.05q-5.586-1.42-11.169-2.85c-.991-.252-1.351.043-1.325,1.066,0,.043.006.086.006.129,0,.242.112.324.36.32q1.517-.02,3.037,0a9.7,9.7,0,0,1,1.416.088,2.625,2.625,0,0,1,2.461,2.9c-.034,1.012-.026,2.025-.056,3.037-.009.289.088.369.367.365.98-.015,1.96-.006,2.94-.006Zm-13-6.383c.5,0,.93.009,1.358-.009.069,0,.179-.13.19-.212.03-.2.006-.408.017-.613a1.6,1.6,0,0,1,1.52-1.693,2.274,2.274,0,0,1,.766.086c.823.224,1.639.483,2.463.71.512.14,1.032.251,1.55.365.343.075.691.127,1.036.194.784.153,1.529.449,2.314.613.414.088.822.22,1.239.319,1.468.343,2.921.741,4.38,1.125.183.048.339.1.371-.177q.215-1.811.443-3.618c.024-.194-.067-.251-.238-.25-.276,0-.553,0-.829,0-2.768-.017-5.539-.039-8.307-.052-2.446-.011-4.892-.013-7.338-.026a.308.308,0,0,0-.36.307c-.043.287-.114.57-.17.855-.13.674-.261,1.349-.4,2.081Zm13.786,13.76a1.9,1.9,0,0,0,.626-.145,3.416,3.416,0,0,0,1.515-2.578c.136-1.013.272-2.027.374-3.044.047-.456.007-.922.007-1.41-.371.147,0,.516-.25.73h-.337c-1.895,0-3.791,0-5.686,0-.253,0-.361.058-.365.335-.019,1.658-.056,3.316-.075,4.974a.363.363,0,0,0,.186.278c.913.291,1.828.572,2.752.825.255.071.52.065.538.447l.514-.382c.032.155.056.279.082.4h.056c.02-.132.039-.265.063-.43ZM32.463,17.465v-.019h-6.3c-1.606,0-1.837.173-2.282,1.716-.015.052-.065.127-.048.147.056.067.162.177.2.16a3.629,3.629,0,0,1,1.66-.1,3.7,3.7,0,0,0,.492.052c.345-.024.687-.11,1.03-.112.9-.007,1.809.02,2.712.028q4,.031,7.994.052c.758,0,1.515-.013,2.273-.02.2,0,.488.073.581-.03.119-.132.088-.4.116-.619a2.512,2.512,0,0,0,.013-.291.712.712,0,0,0-.537-.756,4.141,4.141,0,0,0-1.088-.2C37.009,17.456,34.736,17.465,32.463,17.465ZM27.641,34.688a1.353,1.353,0,0,0-.019-.192c-.33-1.159-.667-2.318-.989-3.478-.056-.2-.173-.237-.356-.235-.851.006-1.7.015-2.552,0a2.382,2.382,0,0,1-2.459-2.966c.1-.583.214-1.164.324-1.746.1-.512.19-1.023.289-1.544a1.7,1.7,0,0,0-1.662,1.334c-.179.822-.347,1.645-.512,2.468-.132.661-.25,1.326-.386,1.988-.015.069-.106.123-.162.184.026.013.052.026.076.041a.546.546,0,0,0-.035.183c.028.19.071.378.108.566a1.166,1.166,0,0,0,.848.956c1.692.538,3.376,1.1,5.062,1.656.794.261,1.591.518,2.427.79Zm3.974,1.293a1.211,1.211,0,0,0,.035-.173c.024-1.582.043-3.163.073-4.745,0-.244-.115-.279-.319-.279-1.185.006-2.368,0-3.553,0a3.131,3.131,0,0,0-.313.034c.471,1.632.931,3.229,1.392,4.825l.155-.011c.013-.142.024-.283.043-.507l.51.382c.054-.123.093-.134.384-.041Zm-2.539.212c.238.825.442,1.557.671,2.284.022.071.2.14.3.132a1.533,1.533,0,0,0,1.336-1.1c.2-.5.2-.509-.3-.669-.641-.207-1.282-.41-2.014-.645Zm6.5-19.334c0-.035-.007-.073-.013-.108L32.336,16.6c.076.134.1.218.127.218.695.019,1.388.028,2.06.039.043.153.065.227.061.212l.991-.211Z" transform="translate(-8.893 -16.5)" fill="#fff"/><path d="M15.179,182.083c.511-.245.508-.237.091-.559a.39.39,0,0,1-.1-.272c-.011-1.6-.069-3.205.008-4.8.04-.8-.075-1.592-.032-2.391.043-.815,0-1.632-.005-2.446q0-1.246,0-2.494a3.433,3.433,0,0,0-.005-.37c-.043-.439.141-.591.586-.575.924.035,1.847.011,2.771.024a3.066,3.066,0,0,1,2.995,2.737,29.249,29.249,0,0,1,.021,3.277,2.159,2.159,0,0,1-.964,1.68,3.405,3.405,0,0,0,.327.407,2.149,2.149,0,0,1,.658,1.664c0,1.155-.013,2.308.021,3.461.021.655.128,1.3.2,2.015-.711,0-1.43.019-2.148-.019-.122-.005-.309-.253-.33-.4a15.9,15.9,0,0,1-.168-1.879c-.024-1.076-.008-2.154.005-3.232.011-.823-.716-1.033-1.336-.844-.1.029-.181.266-.184.41-.016,1.461-.013,2.926-.013,4.387v1.549H15.184c.024-.338.045-.647.067-.956.359.019.628.035.9.048l.032-.128c-.314-.09-.626-.181-1.006-.293Zm2.406-9.317c0,.57.008,1.139,0,1.709-.005.274.088.375.37.383.886.029,1.166-.234,1.158-1.129-.005-.647,0-1.291,0-1.938,0-.916-.253-1.147-1.158-1.121-.282.008-.378.109-.37.383.013.57,0,1.139,0,1.709Z" transform="translate(-15.128 -133.896)" fill="#fff"/><path d="M105.209,170.321c-.114-.117-.213-.216-.311-.317-.032.027-.061.056-.093.083.035.077.045.189.1.226.524.322.224.684.037,1.044.053,0,.106-.005.157-.008a6.866,6.866,0,0,1,.075.958c-.013.293-.154.58-.162.873a7.78,7.78,0,0,0,.122.916c.053.538.122,1.078.13,1.616.019,1.262.008,2.524.005,3.788a3.156,3.156,0,0,1-6.256.655,15.123,15.123,0,0,1-.1-2.484c-.005-2.524.011-5.05.016-7.574a3.184,3.184,0,0,1,4.973-2.633,2.925,2.925,0,0,1,1.3,2.854Zm-2.409,4.547v-2.814c0-.647.029-1.291.011-1.938a.675.675,0,0,0-.756-.737.7.7,0,0,0-.666.785q0,4.636.011,9.269a.746.746,0,0,0,.756.844c.394-.013.642-.335.644-.844v-4.568Z" transform="translate(-76.61 -132.949)" fill="#fff"/><path d="M131.1,173.683c.192-.626.383-1.251.57-1.879.3-1.017.61-2.034.9-3.053a.544.544,0,0,1,.62-.474c.477.024.956,0,1.432.008.453.005.522.109.381.58-.429,1.424-.865,2.846-1.3,4.267-.221.721-.447,1.44-.655,2.164a.955.955,0,0,0-.005.49c.626,2.223,1.264,4.438,1.885,6.663a3.558,3.558,0,0,1,.008.82l.192.117c-.048.035-.083.08-.117.083-.647.008-1.294.027-1.938,0a.525.525,0,0,1-.378-.3c-.54-1.792-1.057-3.591-1.581-5.388a1.629,1.629,0,0,0-.133-.218v.6c0,1.6-.013,3.2.008,4.805.005.413-.152.482-.532.535-.767.107-1.179-.538-1.794-.735-.059-.019-.1-.186-.1-.285.005-2.782.024-5.564.024-8.346,0-1.736-.027-3.471-.045-5.207-.005-.575.053-.644.615-.644.461,0,.924.027,1.384.013.349-.011.447.138.445.471-.013,1.477-.005,2.958-.005,4.435v.455c.04.008.08.016.117.027Zm1.866-4.19h1.39v-.16C133.919,169.6,133.491,168.867,132.966,169.493Z" transform="translate(-98.348 -133.968)" fill="#fff"/><path d="M69.813,178.775v-1.062c0-.261.12-.386.4-.378.554.013,1.107.011,1.661,0,.3-.005.41.106.4.41-.021.583-.021,1.169-.013,1.754.008.54.311.878.745.86.4-.019.631-.367.681-.881A3.87,3.87,0,0,0,72.5,176c-.25-.226-.5-.458-.729-.705a6.243,6.243,0,0,1-1.794-2.95,5.767,5.767,0,0,1,.168-3.562,3.12,3.12,0,0,1,3.567-1.717,3.2,3.2,0,0,1,2.433,3c.013.554-.013,1.107-.008,1.661,0,.335-.106.519-.482.5-.506-.021-1.017-.021-1.523,0-.351.016-.477-.146-.471-.461s.024-.644.029-.966a4.223,4.223,0,0,0-.008-.735.682.682,0,0,0-.78-.612.672.672,0,0,0-.634.671,3.768,3.768,0,0,0,1.2,3.41,8.815,8.815,0,0,1,2.412,3.277,6.571,6.571,0,0,1,.162,3.511A3.133,3.133,0,0,1,71,182.14a3.225,3.225,0,0,1-1.214-2.579c-.005-.261,0-.522,0-.785h.027Z" transform="translate(-55.227 -133.026)" fill="#fff"/><path d="M50.539,168.27c-.083.689.248,1.352-.192,1.973-.037.051.072.2.141.383-.266.032-.567.085-.868.1-.554.021-1.107.035-1.661.024-.282-.005-.391.106-.389.373.008,1.03,0,2.063.037,3.093,0,.106.213.285.338.3a6.656,6.656,0,0,0,1.1,0c.3-.021.413.083.4.391-.019.538-.008,1.078,0,1.616.005.314-.13.447-.447.434-.354-.016-.708.008-1.062-.005-.25-.008-.362.077-.359.343.008,1.139.011,2.279-.005,3.418-.005.293.149.333.37.333.708,0,1.416.011,2.124-.016.378-.013.53.112.506.5s-.005.8-.005,1.2c0,.471-.216.729-.687.74-1.446.029-2.894.032-4.339.064-.4.008-.442-.216-.442-.527,0-1.387-.005-2.771-.005-4.158q0-4.967.008-9.932c0-.631,0-.634.65-.634h4.781Z" transform="translate(-37.121 -133.965)" fill="#fff"/><path d="M172.4,170.585c-.41.019-.708.045-1.006.032a.274.274,0,0,1-.186-.208,6.066,6.066,0,0,1,.141-1.595.88.88,0,0,1,.95-.6c1.36.064,2.729.029,4.092.016.365,0,.532.1.508.5-.029.506-.011,1.014,0,1.523.008.277-.109.4-.383.378-.045,0-.093,0-.138,0-1.131.016-1.145.016-1.147,1.171-.005,3.647,0,7.3.005,10.944a.606.606,0,0,1-.684.687c-.4,0-.8-.024-1.2.008-.421.035-.527-.146-.524-.535.016-2.186.016-4.371.021-6.557q0-2.516,0-5.031c0-.325.048-.663-.426-.7-.037,0-.067-.1-.027-.035Z" transform="translate(-129.659 -133.924)" fill="#fff"/><path d="M160.458,171.073h-.626l-.013.144c.178.029.354.056.594.1a3.973,3.973,0,0,1,.035.4v11.13c0,.65-.3.8-.926.575a1.579,1.579,0,0,0-.854.005c-.434.1-.65-.032-.647-.482.005-1.4,0-2.8.005-4.2q.016-3.849.037-7.7c0-.753.019-1.5.005-2.257-.005-.349.093-.506.471-.484.49.027.988-.021,1.477.016.154.011.418.181.421.287.035.825.019,1.65.019,2.47Z" transform="translate(-119.981 -133.989)" fill="#fff"/><path d="M101.121,153.785c-.141.088-.386.16-.4.269-.072.463-.232.322-.434.1l-.005.008c.189-.325.4-.594.833-.37Z" transform="translate(-77.612 -123.281)" fill="#fff"/></svg>