<svg xmlns="http://www.w3.org/2000/svg" width="40" height="40" viewBox="0 0 388.646 560.001"><g transform="translate(1518 3886.989)"><path d="M381.71,345.51c-30.457-19.836-49.051-51.055-55.4-92.918a16.021,16.021,0,0,1-24.347-11.223L274.836,60.659a17.565,17.565,0,0,0-34.824,4.59L274.52,369c1.492.559,3.012,1.121,4.582,1.691,11.453,4.176,24.434,8.906,37.926,20.406,23.586,20.1,31.465,57.32,31.789,58.895a4.59,4.59,0,0,1-8.992,1.852c-.074-.352-7.594-35.727-28.75-53.758-12.234-10.426-24.391-14.859-35.117-18.766-8.684-3.164-16.883-6.152-23.938-11.738-7.937-6.285-23.637-31.852-46.664-75.992a26.334,26.334,0,0,0-36.519-10.629,26.415,26.415,0,0,0-11.172,32.867c20.082,48.613,68.957,164.1,88.957,186.48,24.867,27.824,79.648,32.211,80.2,32.25a4.59,4.59,0,0,1-.332,9.168c-.113,0-.227,0-.344-.012a190.3,190.3,0,0,1-33.7-6.2l0,24.492h135.86V535.636a84.2,84.2,0,0,1-12.027,2.57,4.259,4.259,0,0,1-.543.031,4.59,4.59,0,0,1-.531-9.148c.383-.047,39.152-5.035,55.961-35.4,5.887-10.641,16.973-58,29.969-121.85-3.289.086-6.547.145-9.746.145-45.852,0-82.691-8.879-109.68-26.461Z" transform="translate(-1673.68 -3886.995)"/><path d="M530.64,121.62a18.541,18.541,0,0,0-22.711,12.41L468.21,261.56a15.571,15.571,0,0,1-30.379-5.98L453.14,79.79a17.377,17.377,0,0,0-15.8-18.817,17.453,17.453,0,0,0-18.785,15.484l-17.223,162.91a16.6,16.6,0,0,1-33.082-.914l-11.2-222.14a17.172,17.172,0,1,0-34.3,1.731l11.09,220.06c3.883,45.848,21.672,79.4,52.879,99.727,27.684,18.031,66.793,26.355,116.29,24.777,13.016-64.6,27.742-144.37,41.027-219.81a18.539,18.539,0,0,0-13.4-21.168Z" transform="translate(-1673.68 -3886.995)"/></g></svg>