<?xml version="1.0" encoding="UTF-8"?><svg id="Layer_1" xmlns="http://www.w3.org/2000/svg" viewBox="0 0 718 90"><path d="m206.37,55.42c-.56-.1-.79-.4-.7-.92,1.28-7.32,2.56-14.64,3.83-21.96.09-.52.41-.72.95-.63,2.01.35,4.02.69,6.04,1.03,1.67.28,3.03.75,4.06,1.41,1.03.66,1.76,1.47,2.19,2.44.43.96.55,2.08.35,3.33-.13.83-.42,1.59-.87,2.26-.45.68-1,1.23-1.65,1.65-.66.43-1.38.68-2.17.76,0,.04-.01.09-.02.13,1,.39,1.8.9,2.42,1.53.62.63,1.06,1.36,1.31,2.21.26.85.31,1.76.15,2.75-.23,1.46-.75,2.62-1.56,3.47-.81.85-1.91,1.41-3.3,1.67-1.39.26-3.05.23-4.98-.09-2.02-.34-4.04-.68-6.06-1.03Zm3.77-12.74c1.56.27,3.11.53,4.67.79,1.58.26,2.9.06,3.96-.59,1.06-.66,1.69-1.65,1.9-2.97.23-1.41-.04-2.53-.79-3.34-.76-.81-2.05-1.37-3.89-1.67-1.46-.24-2.92-.49-4.39-.74-.49,2.84-.98,5.69-1.47,8.53Zm-1.89,11.02c1.73.3,3.45.59,5.18.87,1.86.31,3.33.15,4.43-.47,1.1-.62,1.76-1.65,1.99-3.08.24-1.48-.08-2.7-.94-3.65-.86-.96-2.25-1.59-4.18-1.91-1.64-.27-3.28-.55-4.92-.83-.52,3.02-1.04,6.05-1.56,9.07Z" style="fill:#0c566d;"/><path d="m230.52,59.47c-1.68-.24-2.91-.88-3.7-1.89-.79-1.01-1.06-2.31-.82-3.88.62-4.1,1.24-8.2,1.87-12.3.03-.2.13-.34.29-.42.16-.08.43-.09.79-.04.08.01.16.02.24.04.36.05.61.14.75.27.13.12.18.29.15.49-.6,4.05-1.21,8.09-1.81,12.14-.16,1.08.02,1.94.54,2.58.52.64,1.37,1.05,2.53,1.21.6.09,1.23.08,1.87-.02.64-.1,1.27-.3,1.88-.58.61-.28,1.13-.63,1.57-1.05.61-4.36,1.21-8.71,1.82-13.07.03-.2.12-.34.29-.42.16-.08.44-.09.83-.04.07,0,.14.02.21.03.39.05.65.14.78.26.13.12.19.28.16.49-.55,4.02-1.1,8.04-1.65,12.06-.13.95-.21,1.73-.23,2.36-.03.63-.03,1.11-.02,1.46.01.35,0,.59,0,.72-.01.09-.07.17-.17.23-.1.07-.23.11-.38.14-.15.03-.3.04-.47.04-.17,0-.32-.01-.46-.03-.21-.03-.36-.11-.45-.23-.09-.13-.15-.36-.19-.71-.04-.35-.08-.82-.14-1.43-.48.37-1.06.7-1.74.98-.68.28-1.39.49-2.14.61-.74.12-1.48.13-2.2.03Z" style="fill:#0c566d;"/><path d="m250.01,62.09c-1.68-.21-2.93-.81-3.74-1.81-.81-1-1.11-2.28-.9-3.86.53-4.11,1.06-8.23,1.6-12.34.03-.2.12-.35.28-.43.16-.08.43-.1.79-.05.08.01.16.02.24.03.37.05.62.13.75.25.14.12.19.28.17.48-.51,4.06-1.03,8.12-1.54,12.17-.14,1.08.06,1.94.6,2.57.54.63,1.39,1.02,2.55,1.16.61.07,1.23.05,1.87-.06.64-.12,1.26-.32,1.86-.62.6-.29,1.12-.66,1.54-1.09.51-4.37,1.02-8.73,1.53-13.1.02-.2.12-.35.28-.43.16-.08.43-.1.82-.06.07,0,.14.02.21.02.39.05.65.13.79.25.14.12.19.28.17.48-.46,4.03-.92,8.06-1.38,12.09-.11.95-.17,1.74-.18,2.36-.01.63,0,1.11.01,1.46.02.34.02.59,0,.72-.01.09-.07.17-.17.24-.1.07-.23.12-.37.15-.15.03-.3.05-.47.05-.17,0-.32,0-.46-.02-.21-.02-.36-.1-.45-.22-.09-.12-.16-.36-.2-.71-.04-.35-.1-.82-.17-1.43-.47.38-1.04.72-1.72,1.02-.67.3-1.38.52-2.12.66-.74.14-1.47.17-2.19.08Z" style="fill:#0c566d;"/><path d="m265.97,63.78c-.35-.04-.61-.12-.77-.24-.16-.12-.24-.28-.21-.49.43-4.03.86-8.07,1.29-12.1.11-1.06.17-1.9.18-2.5,0-.6,0-1.06-.03-1.37-.02-.31-.03-.53-.02-.67,0-.09.07-.16.18-.22.11-.06.24-.1.4-.13.15-.03.32-.05.49-.05.17,0,.32,0,.43.01.18.02.32.09.41.21.09.12.16.36.22.71.06.35.1.83.13,1.45.42-.5.88-.92,1.38-1.24.5-.33,1.03-.56,1.6-.69.57-.14,1.15-.18,1.75-.12.48.05.88.17,1.2.37.32.2.46.44.43.71-.02.18-.05.35-.1.52-.05.17-.11.31-.18.44-.07.13-.14.23-.22.3-.08.07-.16.1-.25.1-.12-.01-.33-.08-.64-.22-.31-.13-.72-.23-1.23-.28-.83-.08-1.58.09-2.26.51-.68.42-1.19.96-1.51,1.61-.45,4.29-.89,8.59-1.34,12.88-.02.2-.12.35-.31.43-.19.08-.47.11-.84.07-.06,0-.12-.01-.18-.02Z" style="fill:#0c566d;"/><path d="m282,65.46c-.87-.08-1.58-.29-2.15-.65-.57-.36-.97-.86-1.21-1.49-.24-.64-.31-1.41-.23-2.31.36-3.98.73-7.97,1.09-11.95-.72-.07-1.45-.13-2.17-.2-.39-.04-.56-.32-.51-.84.01-.11.02-.23.03-.34.05-.52.27-.76.66-.73.72.07,1.45.13,2.17.2.2-1.23.41-2.45.61-3.68.07-.22.17-.37.3-.45.13-.08.34-.11.61-.08.06,0,.11.01.17.02.34.03.58.1.71.22.13.11.18.27.17.48-.11,1.23-.22,2.47-.33,3.7,1.14.1,2.27.2,3.41.3.39.03.56.31.52.83,0,.11-.02.23-.03.34-.04.52-.26.77-.65.73-1.14-.1-2.28-.2-3.41-.3-.35,3.95-.7,7.9-1.05,11.85-.08.86.02,1.47.3,1.82.27.35.76.56,1.46.62.63.05,1.1.03,1.4-.07.3-.1.54-.14.7-.13.09,0,.16.07.21.19.05.12.09.25.11.4.02.15.03.29.03.43,0,.14,0,.24,0,.31-.02.2-.19.37-.52.49-.33.12-.71.21-1.15.26-.44.05-.85.06-1.22.03Z" style="fill:#0c566d;"/><path d="m287.08,69.64c-.14-.01-.29-.06-.43-.15-.15-.09-.21-.21-.2-.34,0-.11.1-.27.27-.47.17-.2.37-.51.59-.93.17-.31.32-.66.48-1.07.15-.41.29-.92.42-1.54.13-.62.23-1.39.31-2.32.02-.27.12-.45.29-.54.17-.09.43-.12.78-.09.13.01.26.02.38.03.35.03.6.1.76.21.16.11.22.31.2.58-.08,1.02-.27,1.95-.57,2.78-.3.83-.65,1.54-1.05,2.12-.4.58-.8,1.03-1.19,1.33-.39.3-.74.44-1.05.41Z" style="fill:#0c566d;"/><path d="m309.85,74.48c-1.42-.08-2.65-.3-3.68-.65-1.03-.36-1.81-.87-2.32-1.54-.52-.67-.74-1.5-.68-2.5.04-.7.23-1.34.56-1.91.33-.57.76-1.07,1.27-1.49.52-.42,1.07-.74,1.64-.96.01-.02.03-.04.04-.07-.43-.32-.77-.72-1.04-1.19-.27-.47-.38-1-.34-1.59.04-.7.27-1.31.67-1.82.4-.51.96-.9,1.68-1.18-1-.47-1.75-1.15-2.24-2.03-.49-.88-.7-1.87-.64-2.96.07-1.13.38-2.11.93-2.91.55-.81,1.32-1.43,2.31-1.86.99-.43,2.19-.61,3.59-.53.32.02.64.05.95.1.31.05.6.12.87.2,2.02.11,4.05.21,6.07.3.21,0,.35.08.44.21.09.13.12.33.11.6,0,.11-.01.23-.02.34-.02.52-.23.77-.62.76-.28-.01-.59-.03-.95-.06-.36-.03-.72-.07-1.09-.12-.37-.05-.7-.12-.99-.2-.01.02-.03.04-.04.07.31.27.57.58.79.94.21.36.38.77.5,1.24.12.46.16,1.01.13,1.64-.05,1.04-.35,1.96-.9,2.76-.55.79-1.33,1.39-2.34,1.79-1.01.4-2.25.57-3.72.49-.7-.04-1.3.01-1.81.15-.51.14-.9.37-1.18.68-.28.31-.43.71-.46,1.19-.03.52.08.94.35,1.25.26.31.64.56,1.13.75.49.19,1.06.34,1.7.45.64.12,1.31.24,2,.36,1.23.2,2.27.48,3.11.84.84.36,1.46.85,1.87,1.46.41.61.59,1.4.54,2.38-.05,1.07-.39,1.96-1.01,2.68-.63.72-1.54,1.25-2.74,1.59-1.2.34-2.69.46-4.46.36Zm.45-1.78c1.84.1,3.22-.08,4.13-.55.91-.47,1.39-1.23,1.44-2.3.03-.61-.11-1.1-.41-1.47-.3-.37-.72-.65-1.26-.85-.54-.2-1.15-.35-1.83-.47-.68-.12-1.37-.23-2.1-.35-.72-.12-1.41-.29-2.05-.51-.77.3-1.43.71-2,1.25-.56.54-.87,1.23-.92,2.1-.04.66.11,1.21.45,1.65.34.44.88.79,1.62,1.04.74.25,1.72.41,2.92.47Zm.78-14.16c.88.05,1.66-.03,2.32-.25.66-.22,1.19-.58,1.57-1.08.39-.5.6-1.18.64-2.02.05-.91-.1-1.65-.43-2.24-.33-.59-.81-1.02-1.44-1.32-.63-.3-1.39-.47-2.26-.51-.88-.05-1.65.04-2.32.26-.67.22-1.2.61-1.59,1.15-.39.55-.61,1.27-.67,2.18-.08,1.27.27,2.21,1.04,2.81.77.6,1.82.94,3.14,1.01Z" style="fill:#0c566d;"/><path d="m330.16,68.34c-2.63-.09-4.62-.88-5.95-2.37-1.34-1.49-1.93-3.81-1.8-6.97.08-2,.45-3.66,1.1-5,.64-1.34,1.56-2.34,2.73-3,1.18-.66,2.61-.96,4.28-.91,1.49.05,2.74.42,3.73,1.12.99.7,1.73,1.71,2.22,3.03.49,1.32.71,2.94.66,4.88,0,.16-.06.33-.15.51-.1.18-.23.33-.4.45-.17.12-.34.18-.53.17-3.78-.1-7.56-.23-11.34-.38-.06,2.09.36,3.69,1.25,4.79.89,1.1,2.33,1.69,4.3,1.76,1.17.04,2.14-.06,2.91-.28.77-.23,1.37-.47,1.8-.72.43-.25.7-.37.82-.37.14,0,.26.08.34.23.09.15.17.32.23.52.07.2.1.35.09.46,0,.2-.18.43-.51.67-.34.24-.79.47-1.36.7-.57.22-1.23.4-1.99.54-.76.14-1.57.19-2.44.16Zm-5.38-10.32c3.37.13,6.73.25,10.1.34.06-2.07-.32-3.64-1.13-4.7-.81-1.07-1.99-1.63-3.53-1.68-1.11-.04-2.05.17-2.84.63-.79.46-1.4,1.14-1.83,2.05-.43.9-.68,2.03-.76,3.36Z" style="fill:#0c566d;"/><path d="m343.34,68.55c-.38,0-.64-.06-.79-.17-.15-.11-.22-.26-.22-.46.08-4.06.16-8.11.24-12.17.02-1.07,0-1.9-.04-2.51-.05-.6-.1-1.06-.15-1.37-.05-.31-.08-.53-.07-.67,0-.09.06-.17.16-.24.11-.07.23-.12.38-.16.15-.04.31-.07.49-.09.17-.02.32-.03.43-.03.18,0,.32.06.41.18.09.12.18.33.26.65.09.32.18.79.29,1.4.42-.45.93-.85,1.51-1.2.58-.35,1.22-.64,1.91-.86.69-.22,1.38-.32,2.07-.32.69,0,1.34.11,1.95.29.61.19,1.15.48,1.62.88.47.4.84.93,1.11,1.59.42-.52.94-.98,1.56-1.39.62-.41,1.29-.73,2.01-.97.71-.24,1.42-.36,2.11-.36,1.08,0,2,.2,2.76.61.76.41,1.35.98,1.75,1.73.41.75.62,1.67.62,2.76.03,4.12.06,8.25.08,12.37,0,.2-.07.36-.23.46-.15.1-.42.16-.79.16-.08,0-.16,0-.25,0-.38,0-.64-.05-.79-.15-.15-.1-.23-.26-.23-.46-.02-4.08-.03-8.16-.05-12.24,0-1.09-.3-1.92-.88-2.49-.58-.57-1.43-.85-2.56-.85-.55,0-1.09.08-1.61.24-.52.16-1,.37-1.44.65-.44.27-.82.56-1.15.86-.33.3-.58.59-.77.87,0-.34-.02-.68-.03-1.02.11.2.19.45.22.73.03.28.05.57.05.87-.02,4.12-.04,8.25-.06,12.37,0,.2-.08.36-.23.46-.15.1-.42.15-.79.15-.09,0-.19,0-.28,0-.38,0-.64-.06-.79-.16-.15-.1-.23-.26-.23-.46.03-4.08.06-8.16.09-12.24,0-1.09-.28-1.92-.85-2.5-.57-.57-1.42-.87-2.55-.88-.55,0-1.12.08-1.7.27-.58.19-1.14.45-1.67.79-.54.34-.99.75-1.37,1.22-.07,4.41-.15,8.82-.22,13.22,0,.2-.08.36-.24.46-.15.1-.42.15-.79.14-.09,0-.19,0-.28,0Z" style="fill:#0c566d;"/><path d="m379.02,68.63c-2.63.06-4.66-.63-6.07-2.04-1.42-1.41-2.14-3.7-2.18-6.86-.02-2,.25-3.68.82-5.06.57-1.37,1.43-2.42,2.57-3.14,1.14-.72,2.55-1.1,4.23-1.14,1.49-.03,2.76.27,3.79.92,1.03.65,1.82,1.61,2.38,2.9.56,1.29.86,2.9.92,4.83,0,.16-.04.33-.12.51-.09.18-.21.34-.37.47-.16.13-.33.2-.52.2-3.78.1-7.56.19-11.34.24.05,2.09.56,3.66,1.51,4.71.95,1.05,2.42,1.56,4.38,1.52,1.17-.02,2.13-.17,2.89-.44.75-.27,1.34-.54,1.75-.81.41-.27.68-.41.8-.41.14,0,.26.07.36.21.1.15.18.31.26.5.08.19.12.34.12.46,0,.2-.15.44-.47.7-.32.26-.76.52-1.32.77-.56.25-1.21.47-1.96.65-.75.18-1.56.27-2.43.29Zm-5.93-10.02c3.37-.05,6.73-.12,10.1-.21-.05-2.07-.52-3.61-1.39-4.64-.87-1.02-2.07-1.52-3.62-1.49-1.11.02-2.04.29-2.81.79-.77.5-1.34,1.22-1.71,2.14-.38.93-.57,2.06-.57,3.4Z" style="fill:#0c566d;"/><path d="m397.65,68.03c-2.63.11-4.67-.53-6.11-1.91-1.45-1.38-2.21-3.65-2.32-6.81-.07-2,.17-3.69.72-5.07.54-1.38,1.38-2.45,2.5-3.19,1.13-.75,2.53-1.15,4.2-1.22,1.49-.06,2.76.22,3.81.84,1.04.62,1.86,1.57,2.44,2.85.58,1.28.93,2.88,1.02,4.81,0,.16-.03.33-.11.52-.08.19-.2.35-.36.48-.16.13-.33.2-.51.21-3.78.18-7.56.34-11.34.48.1,2.09.63,3.65,1.61,4.68.97,1.03,2.45,1.51,4.42,1.43,1.17-.05,2.13-.22,2.88-.5.75-.28,1.33-.57,1.74-.85.41-.28.67-.42.79-.43.14,0,.26.06.36.2.1.14.19.31.27.5.08.19.12.34.13.46.01.2-.14.44-.46.7-.32.27-.75.53-1.3.8-.55.27-1.2.5-1.94.69-.74.19-1.55.31-2.42.34Zm-6.14-9.89c3.37-.12,6.73-.26,10.1-.42-.1-2.07-.59-3.6-1.48-4.61-.89-1.01-2.11-1.47-3.65-1.41-1.11.05-2.03.33-2.79.85-.75.52-1.31,1.24-1.67,2.18-.36.93-.53,2.07-.5,3.41Z" style="fill:#0c566d;"/><path d="m410.8,67.24c-.38.02-.64-.02-.8-.11-.16-.09-.24-.24-.25-.45-.23-4.05-.45-8.1-.68-12.15-.06-1.07-.13-1.9-.23-2.5-.09-.6-.17-1.05-.25-1.35-.07-.3-.12-.52-.12-.66,0-.09.04-.17.14-.25.1-.07.22-.14.37-.19.15-.05.31-.1.48-.13.17-.03.31-.05.43-.06.18-.01.32.04.42.15.1.11.2.32.31.63.11.31.24.77.39,1.38.39-.48.88-.92,1.47-1.32.59-.4,1.22-.73,1.89-1,.68-.27,1.37-.43,2.08-.47,1.12-.07,2.09.07,2.9.42.81.35,1.45.89,1.91,1.61.47.72.74,1.62.82,2.71.29,4.11.58,8.23.87,12.34.01.2-.05.36-.2.47-.15.11-.41.18-.78.21-.08,0-.16.01-.25.02-.38.03-.64,0-.8-.1-.16-.09-.25-.24-.26-.44-.28-4.07-.55-8.14-.83-12.21-.07-1.09-.44-1.89-1.08-2.42-.65-.53-1.56-.75-2.73-.68-.6.04-1.19.17-1.78.4-.59.23-1.14.54-1.64.92-.51.38-.95.84-1.31,1.36.26,4.39.51,8.78.77,13.17.01.2-.06.36-.2.47-.15.11-.41.18-.78.2-.09,0-.19.01-.28.02Z" style="fill:#0c566d;"/><path d="m432.76,65.96c-.75.06-1.45.05-2.09-.04-.64-.09-1.21-.21-1.69-.36-.48-.16-.87-.33-1.15-.51-.29-.18-.43-.35-.45-.51,0-.11.03-.28.12-.49.09-.21.2-.41.33-.59.13-.18.25-.28.37-.28.12,0,.36.08.72.25.37.18.86.34,1.48.5.62.16,1.33.2,2.13.14,1.22-.1,2.12-.43,2.72-1,.6-.56.86-1.3.78-2.2-.07-.77-.29-1.37-.66-1.79-.38-.43-.86-.76-1.45-1.01-.59-.25-1.25-.47-1.97-.66-.6-.16-1.18-.34-1.74-.54-.56-.21-1.08-.48-1.55-.82-.47-.34-.85-.77-1.15-1.3-.3-.52-.47-1.18-.53-1.98-.07-.95.1-1.8.52-2.55.42-.75,1.03-1.36,1.84-1.82.81-.46,1.76-.74,2.86-.83.53-.04,1.03-.05,1.51-.02.48.03.91.08,1.3.16.39.08.7.18.95.31.24.13.37.26.38.39.01.14-.02.32-.09.56-.07.23-.16.44-.28.62-.11.18-.23.28-.34.29-.09,0-.42-.08-1-.27-.57-.19-1.3-.25-2.17-.18-1.03.09-1.85.39-2.44.9-.6.52-.86,1.2-.79,2.06.04.57.2,1.02.47,1.36.27.34.65.63,1.15.85.5.22,1.09.43,1.78.62.76.21,1.46.45,2.11.71.64.27,1.22.59,1.73.98.51.39.92.87,1.23,1.43.31.57.5,1.26.57,2.07.09,1-.09,1.89-.52,2.68-.44.79-1.08,1.44-1.93,1.95-.85.51-1.87.81-3.04.9Z" style="fill:#0c566d;"/><path d="m450.66,64.22c-2.62.27-4.69-.25-6.2-1.55-1.52-1.29-2.41-3.52-2.7-6.66-.27-2.96.2-5.29,1.4-7,1.21-1.7,3.09-2.68,5.66-2.94.66-.07,1.31-.08,1.92-.04.62.04,1.17.12,1.66.24.49.12.88.26,1.18.42.3.16.45.33.47.51.01.11,0,.27-.03.48-.04.21-.1.39-.19.53-.09.15-.2.23-.34.24-.14.01-.39-.04-.77-.16-.37-.12-.87-.23-1.5-.32-.63-.09-1.4-.09-2.32,0-1.86.19-3.18.92-3.98,2.21-.79,1.29-1.08,3.13-.85,5.53.23,2.42.86,4.18,1.9,5.26,1.03,1.09,2.56,1.53,4.57,1.33.91-.09,1.68-.28,2.31-.55.63-.27,1.13-.54,1.51-.79.37-.26.62-.39.73-.4.14-.02.26.05.37.18.11.14.21.3.3.48.09.19.14.33.15.45.02.2-.11.44-.4.69-.29.26-.69.51-1.19.76-.51.25-1.07.47-1.7.68-.63.2-1.28.34-1.96.41Z" style="fill:#0c566d;"/><path d="m461.91,62.86c-.37.04-.64.02-.81-.06-.16-.08-.26-.23-.28-.43-.92-8.11-1.84-16.21-2.76-24.32-.02-.2.03-.36.17-.48.14-.12.39-.2.75-.24.09-.01.18-.02.27-.03.36-.04.62-.02.78.06.16.08.25.23.27.43.36,3.08.72,6.16,1.07,9.24.36-.48.81-.92,1.34-1.34.53-.42,1.12-.77,1.77-1.05.65-.28,1.32-.47,2.01-.55,1.12-.14,2.1-.05,2.92.26.83.31,1.5.81,2.01,1.5.51.69.83,1.58.97,2.66.53,4.09,1.05,8.18,1.58,12.27.03.2-.03.36-.17.49-.14.12-.4.2-.77.25-.08.01-.16.02-.24.03-.37.05-.64.03-.81-.05-.17-.08-.26-.23-.29-.43-.51-4.05-1.02-8.09-1.53-12.14-.14-1.08-.54-1.87-1.22-2.35-.68-.49-1.6-.66-2.77-.52-.6.07-1.18.24-1.75.5-.57.26-1.1.6-1.59,1.01-.49.41-.9.89-1.23,1.43.51,4.37,1.01,8.74,1.52,13.1.02.2-.04.36-.17.48-.14.12-.4.2-.77.24-.09.01-.19.02-.28.03Z" style="fill:#0c566d;"/><path d="m484.93,60.06c-1.75.25-3.21.02-4.37-.67-1.16-.69-1.85-1.87-2.08-3.54-.15-1.1-.07-2.06.23-2.89.3-.82.86-1.53,1.69-2.12.82-.6,1.95-1.1,3.37-1.52,1.42-.42,3.18-.78,5.27-1.09-.09-.6-.18-1.19-.26-1.79-.09-.61-.29-1.15-.61-1.63-.32-.48-.8-.83-1.45-1.05-.65-.22-1.52-.24-2.62-.09-1.01.14-1.88.36-2.6.66-.73.3-1.3.58-1.72.84-.42.26-.71.41-.87.43-.07,0-.15-.02-.24-.09-.09-.07-.18-.17-.27-.31-.09-.14-.17-.28-.23-.42-.07-.14-.11-.27-.12-.38-.02-.16.14-.36.49-.62.35-.25.82-.52,1.39-.79.58-.27,1.22-.52,1.91-.75.69-.22,1.39-.38,2.1-.49,1.03-.15,1.96-.16,2.79-.04.83.12,1.54.37,2.12.76.58.38,1.06.88,1.43,1.49s.62,1.33.75,2.16c.37,2.49.75,4.99,1.12,7.48.14.94.29,1.72.44,2.33.15.61.28,1.08.39,1.41.11.33.17.56.19.69.01.09-.01.18-.08.27-.07.09-.17.17-.3.24-.13.07-.28.12-.44.17-.16.05-.32.08-.48.11-.19.03-.35,0-.48-.1-.13-.09-.27-.31-.4-.63-.13-.33-.3-.77-.5-1.34-.34.46-.78.92-1.33,1.38-.55.46-1.18.86-1.89,1.2-.71.34-1.49.57-2.33.69Zm-.09-1.91c.74-.11,1.43-.31,2.07-.62.63-.31,1.22-.68,1.76-1.11.54-.43,1-.9,1.38-1.39-.24-1.64-.48-3.28-.73-4.92-1.82.27-3.31.56-4.47.87-1.16.31-2.05.68-2.67,1.1-.62.42-1.03.9-1.21,1.44-.19.54-.23,1.18-.13,1.93.14,1.04.55,1.79,1.22,2.26.67.47,1.6.62,2.78.45Z" style="fill:#0c566d;"/><path d="m501.83,64.49c-.38.06-.65.05-.82-.03-.17-.08-.27-.22-.3-.42-1-6.32-2-12.64-2.99-18.96-.17-1.06-.33-1.88-.48-2.46-.15-.58-.28-1.03-.38-1.32-.1-.29-.17-.51-.19-.64-.01-.09.03-.18.12-.26.09-.08.21-.16.35-.23.14-.07.3-.13.46-.18.17-.05.31-.08.42-.1.18-.03.33,0,.43.09.11.09.22.27.35.55.13.28.29.69.5,1.23.46-.63.97-1.15,1.54-1.58.56-.43,1.15-.77,1.76-1.03.61-.26,1.2-.44,1.77-.54,1.41-.23,2.66-.09,3.74.42,1.09.52,1.99,1.39,2.73,2.63.73,1.23,1.27,2.82,1.61,4.77.32,1.84.33,3.48.02,4.93-.31,1.45-.91,2.63-1.8,3.55-.9.91-2.06,1.49-3.51,1.73-.63.1-1.26.12-1.91.06-.64-.07-1.27-.2-1.87-.4-.61-.2-1.16-.47-1.67-.8.44,2.73.88,5.45,1.31,8.18.03.2-.02.36-.16.49-.14.13-.39.22-.77.28-.09.01-.19.03-.28.04Zm4.65-9.63c1.58-.26,2.69-1.09,3.32-2.48.63-1.39.75-3.23.35-5.54-.41-2.4-1.15-4.1-2.2-5.1-1.05-1.01-2.33-1.39-3.84-1.14-.82.14-1.6.45-2.34.94-.74.49-1.4,1.13-1.98,1.91.53,3.3,1.06,6.6,1.59,9.89.82.65,1.66,1.1,2.54,1.35.87.25,1.73.3,2.56.17Z" style="fill:#0c566d;"/></svg>