<?xml version="1.0" encoding="UTF-8"?><svg id="Layer_1" xmlns="http://www.w3.org/2000/svg" viewBox="0 0 718 90"><path d="m308.59,55.55c-.36.06-.63.06-.81-.02-.18-.07-.28-.21-.32-.41-1.29-7.4-2.58-14.8-3.87-22.2-.09-.52.16-.82.74-.92,3.86-.66,7.73-1.26,11.6-1.78.39-.05.62.18.69.7.02.15.04.29.06.44.07.52-.09.8-.48.86-3.32.45-6.63.95-9.93,1.5.52,3.13,1.04,6.25,1.56,9.38,3-.5,6-.96,9.01-1.37.38-.05.6.18.67.7.02.14.04.27.05.41.07.52-.08.8-.46.85-2.99.41-5.97.86-8.95,1.36.54,3.23,1.08,6.46,1.61,9.68.03.2-.02.36-.14.49-.13.12-.39.22-.77.29-.09.02-.18.03-.27.05Z" style="fill:#0c566d;"/><path d="m327.5,53.06c-1.7.18-3.11-.07-4.24-.79-1.12-.71-1.8-1.89-2.01-3.56-.14-1.1-.06-2.07.26-2.88.31-.82.89-1.52,1.74-2.1.85-.58,2-1.06,3.46-1.43,1.46-.37,3.26-.66,5.41-.85-.05-.6-.11-1.2-.16-1.8-.05-.61-.23-1.17-.53-1.66-.3-.5-.78-.87-1.44-1.12-.66-.25-1.57-.31-2.72-.2-1.05.11-1.96.3-2.73.58-.77.28-1.37.55-1.81.81-.44.26-.74.4-.91.42-.07,0-.15-.02-.25-.09-.09-.07-.18-.17-.27-.31-.09-.14-.17-.28-.23-.42-.07-.14-.1-.27-.12-.38-.02-.16.16-.36.53-.61.37-.25.86-.51,1.48-.78.61-.26,1.29-.5,2.02-.71.73-.2,1.47-.35,2.22-.42,1.08-.11,2.06-.08,2.92.08.87.16,1.59.45,2.17.87.58.42,1.04.94,1.38,1.58.34.63.54,1.37.61,2.21.2,2.51.41,5.03.61,7.54.08.95.17,1.74.28,2.35.11.62.2,1.1.29,1.43.08.33.13.57.14.71,0,.09-.03.18-.1.26-.07.09-.18.16-.31.21-.13.06-.28.1-.44.14-.16.04-.32.06-.48.07-.18.02-.33-.03-.46-.13-.12-.1-.24-.32-.35-.65-.11-.33-.25-.79-.41-1.37-.35.44-.81.88-1.37,1.3-.56.43-1.19.8-1.89,1.11-.7.31-1.46.51-2.28.6Zm-.03-1.92c.73-.08,1.41-.26,2.04-.54.63-.28,1.22-.62,1.77-1.03.55-.41,1.03-.84,1.43-1.31-.15-1.65-.29-3.3-.44-4.96-1.85.16-3.37.39-4.54.66-1.18.27-2.09.61-2.73,1.01-.64.4-1.06.88-1.25,1.41-.2.54-.25,1.18-.16,1.92.12,1.04.51,1.8,1.16,2.28.65.49,1.55.66,2.72.54Z" style="fill:#0c566d;"/><path d="m342.95,51.66c-.36.02-.62-.02-.78-.11-.16-.09-.24-.24-.25-.45-.24-4.05-.48-8.1-.72-12.15-.06-1.07-.14-1.9-.24-2.5-.1-.6-.18-1.05-.26-1.35-.08-.3-.12-.52-.13-.66,0-.09.04-.17.15-.25.1-.07.23-.14.39-.19.15-.05.32-.1.5-.13.18-.03.33-.05.45-.06.19-.01.34.04.44.15.1.11.21.32.32.63.11.31.24.77.4,1.38.41-.48.9-.91,1.49-1.3.58-.39,1.23-.72,1.95-.97.71-.26,1.43-.4,2.16-.42.72-.02,1.41.05,2.06.21.65.16,1.22.44,1.72.83.5.39.9.91,1.2,1.56.42-.53.95-1.01,1.6-1.42.64-.42,1.34-.75,2.09-.99.75-.24,1.48-.37,2.21-.37,1.14,0,2.1.21,2.9.63.79.42,1.39,1,1.8,1.76.41.76.6,1.68.58,2.77-.07,4.12-.13,8.25-.2,12.37,0,.2-.08.36-.23.46-.15.1-.41.15-.77.14-.08,0-.16,0-.24,0-.37,0-.62-.06-.77-.16-.15-.1-.22-.26-.22-.46.04-4.08.07-8.16.11-12.24,0-1.09-.28-1.92-.88-2.49-.6-.57-1.48-.86-2.66-.86-.58,0-1.13.08-1.67.25-.54.16-1.04.38-1.49.66-.45.28-.84.57-1.17.89-.33.31-.59.61-.77.88-.02-.34-.04-.68-.05-1.02.12.2.21.44.25.73.04.28.06.57.07.87.07,4.12.15,8.25.22,12.37,0,.2-.07.36-.21.46-.15.1-.4.16-.77.17-.09,0-.18,0-.27,0-.37,0-.62-.04-.77-.14-.15-.1-.23-.25-.23-.45-.1-4.08-.21-8.16-.31-12.23-.03-1.09-.35-1.91-.96-2.46-.62-.55-1.51-.81-2.69-.77-.58.02-1.16.14-1.75.36-.59.22-1.15.52-1.69.89-.53.38-.98.81-1.34,1.31.23,4.4.45,8.81.68,13.21.01.2-.06.36-.2.47-.14.11-.4.17-.76.19-.09,0-.18.01-.27.02Z" style="fill:#0c566d;"/><path d="m372.92,31.1c-.46-.02-.78-.08-.96-.19-.18-.11-.26-.27-.26-.47.03-.77.06-1.54.08-2.32,0-.18.1-.33.29-.43.19-.11.52-.15.98-.13.44.02.76.08.93.19.18.11.27.27.26.47-.03.77-.07,1.54-.1,2.32,0,.18-.11.33-.29.43-.19.11-.5.15-.94.13Zm-.95,20.33c-.36-.01-.62-.08-.76-.18-.14-.11-.21-.26-.21-.47.2-5.58.41-11.15.61-16.73,0-.2.09-.35.25-.45s.43-.14.82-.12c.1,0,.19,0,.29.01.39.02.66.08.81.19.15.11.22.27.22.47-.24,5.57-.49,11.15-.73,16.72,0,.2-.09.35-.24.45-.15.1-.41.14-.78.12-.09,0-.18,0-.27-.01Z" style="fill:#0c566d;"/><path d="m383.78,52.26c-.86-.07-1.57-.27-2.12-.62-.55-.35-.95-.83-1.21-1.47-.26-.63-.36-1.4-.3-2.31.46-7.02.92-14.04,1.38-21.05.01-.2.1-.35.27-.44.17-.09.45-.12.84-.1.09,0,.17.01.26.02.39.03.67.1.82.21.15.11.22.27.21.48-.51,6.98-1.02,13.96-1.53,20.94-.06.88.04,1.5.32,1.83.27.34.77.54,1.48.59.57.05,1,.02,1.29-.08.28-.1.51-.15.67-.13.09,0,.16.07.21.19.05.12.08.25.1.4.02.15.03.29.03.43,0,.14,0,.24-.01.31-.02.2-.18.37-.49.49-.31.12-.67.21-1.09.27-.42.06-.8.07-1.14.04Z" style="fill:#0c566d;"/><path d="m393.4,32.57c-.46-.05-.78-.13-.95-.25-.17-.12-.25-.28-.23-.49.08-.77.15-1.54.23-2.31.02-.18.12-.32.32-.41.19-.09.53-.12.99-.07.44.05.75.13.92.25.17.12.25.28.23.49-.08.77-.16,1.54-.25,2.3-.02.18-.13.32-.32.41-.19.09-.51.12-.95.07Zm-2.23,20.23c-.36-.04-.61-.11-.75-.23-.14-.12-.2-.28-.18-.48.55-5.55,1.11-11.1,1.66-16.65.02-.2.11-.35.28-.43.17-.09.44-.11.83-.07.1,0,.19.02.29.03.38.04.65.12.8.24.14.12.21.28.18.48-.6,5.55-1.19,11.09-1.79,16.64-.02.2-.11.35-.27.43-.16.08-.42.11-.78.07-.09,0-.18-.02-.27-.03Z" style="fill:#0c566d;"/><path d="m405.77,54.8c-2.53-.39-4.37-1.36-5.54-2.96-1.17-1.6-1.57-3.96-1.18-7.1.25-1.98.76-3.61,1.54-4.89.78-1.27,1.81-2.18,3.11-2.72,1.29-.53,2.82-.67,4.57-.41,1.56.24,2.81.78,3.75,1.61.94.83,1.57,1.94,1.88,3.32.31,1.38.29,3.02-.04,4.92-.03.16-.1.32-.23.48-.12.16-.28.29-.46.39-.18.1-.37.13-.55.1-3.77-.64-7.54-1.22-11.32-1.72-.25,2.08.01,3.7.78,4.89.77,1.19,2.11,1.91,4.02,2.2,1.14.17,2.09.2,2.87.07.78-.13,1.4-.28,1.85-.47.45-.19.74-.27.85-.25.14.02.24.12.3.28.07.16.12.34.15.54.04.2.04.36.02.47-.03.2-.23.4-.59.59-.36.19-.83.36-1.41.5-.58.15-1.25.24-2,.28-.75.04-1.54,0-2.38-.13Zm-4.23-10.83c3.4.45,6.78.96,10.17,1.53.34-2.04.17-3.65-.53-4.82-.7-1.17-1.85-1.89-3.45-2.13-1.14-.17-2.15-.07-3.02.3-.87.37-1.56.99-2.09,1.84-.53.86-.89,1.95-1.09,3.28Z" style="fill:#0c566d;"/></svg>