<?xml version="1.0" encoding="UTF-8"?><svg id="Layer_1" xmlns="http://www.w3.org/2000/svg" viewBox="0 0 718 90"><path d="m180.59,55.52c-.37-.06-.63-.16-.77-.29-.14-.13-.2-.29-.16-.5,1.3-7.48,2.61-14.95,3.91-22.43.04-.2.14-.34.32-.41.17-.07.44-.08.81-.02.09.02.18.03.27.05.38.07.64.16.77.29.13.13.18.29.14.49-.57,3.31-1.14,6.63-1.71,9.94,4.35.75,8.7,1.47,13.06,2.16.53-3.32,1.06-6.64,1.58-9.96.03-.2.14-.34.31-.42.17-.08.44-.08.81-.03.09.01.18.03.27.04.39.06.64.15.77.28.13.12.18.29.15.49-1.17,7.5-2.35,15-3.52,22.5-.03.2-.13.34-.3.42-.17.08-.45.09-.84.02-.09-.01-.19-.03-.28-.04-.37-.06-.63-.15-.78-.28-.15-.13-.2-.29-.17-.49.56-3.52,1.12-7.05,1.68-10.57-4.37-.69-8.73-1.42-13.09-2.17-.61,3.52-1.21,7.03-1.82,10.55-.03.2-.14.34-.3.41-.17.07-.45.08-.84.01-.09-.02-.18-.03-.28-.05Z" style="fill:#0c566d;"/><path d="m209.3,60.23c-1.67-.24-2.9-.87-3.68-1.88-.79-1.01-1.06-2.31-.82-3.88.62-4.1,1.23-8.2,1.85-12.3.03-.2.13-.34.29-.42.16-.08.43-.09.79-.04.08.01.16.02.24.04.36.05.61.14.75.27.13.12.19.29.16.49-.6,4.05-1.2,8.09-1.8,12.14-.16,1.08.02,1.94.54,2.58.52.64,1.36,1.04,2.52,1.21.6.09,1.22.08,1.87-.03.64-.1,1.26-.3,1.87-.58.61-.28,1.13-.63,1.56-1.05.61-4.35,1.22-8.71,1.82-13.06.03-.2.12-.34.29-.42.16-.08.44-.09.83-.04.07,0,.14.02.21.03.39.05.65.14.78.26.14.12.19.28.16.49-.55,4.02-1.1,8.04-1.65,12.06-.13.95-.21,1.73-.23,2.36-.03.63-.04,1.11-.02,1.46.01.35,0,.59-.01.72-.01.09-.07.17-.17.23-.1.07-.23.11-.37.14-.15.03-.3.04-.47.04-.17,0-.32,0-.46-.03-.21-.03-.36-.11-.45-.23-.09-.13-.15-.37-.18-.71-.03-.35-.08-.82-.14-1.43-.48.37-1.05.7-1.73.98-.68.28-1.39.49-2.13.61-.74.12-1.47.13-2.19.03Z" style="fill:#0c566d;"/><path d="m227.94,62.76c-.88-.11-1.6-.36-2.14-.74-.54-.38-.92-.89-1.15-1.54-.22-.65-.27-1.42-.16-2.32.91-6.97,1.82-13.95,2.73-20.92.03-.2.12-.35.28-.43.16-.08.42-.1.78-.05.08.01.16.02.24.03.36.05.61.13.75.25.13.12.19.28.16.48-.89,6.94-1.78,13.88-2.67,20.83-.11.88-.04,1.5.22,1.85.26.35.75.58,1.47.67.58.07,1.02.07,1.31-.02.29-.09.52-.12.68-.1.09.01.16.08.21.2.04.12.07.26.09.41.02.15.02.29.02.43,0,.14-.01.24-.02.31-.03.2-.2.36-.52.47-.32.11-.7.18-1.13.22-.43.04-.82.03-1.17-.01Z" style="fill:#0c566d;"/><path d="m234.66,70.52c-.37-.04-.63-.13-.77-.25-.14-.12-.2-.28-.17-.48.76-6.35,1.53-12.7,2.29-19.05.13-1.06.2-1.89.21-2.5.02-.6.01-1.06,0-1.37-.02-.31-.02-.54,0-.67.01-.09.07-.16.18-.22.11-.06.24-.1.4-.12.15-.03.32-.04.49-.04.17,0,.32,0,.43.02.18.02.31.09.39.2.08.11.14.32.19.62.05.3.09.74.14,1.32.61-.48,1.25-.84,1.9-1.1.66-.25,1.31-.42,1.97-.51.66-.08,1.27-.1,1.85-.03,1.42.16,2.57.64,3.47,1.43.9.8,1.53,1.89,1.89,3.27s.44,3.06.23,5.03c-.2,1.85-.64,3.43-1.33,4.74-.69,1.31-1.59,2.28-2.7,2.91-1.1.63-2.38.87-3.82.71-.63-.07-1.24-.23-1.84-.47-.6-.24-1.16-.54-1.68-.9-.52-.36-.98-.77-1.38-1.23-.32,2.74-.65,5.48-.97,8.23-.02.2-.12.35-.28.43-.17.08-.43.1-.81.06-.09-.01-.19-.02-.28-.03Zm7.07-8c1.58.18,2.86-.31,3.85-1.47.98-1.16,1.6-2.91,1.85-5.23.26-2.42.02-4.25-.71-5.51-.73-1.26-1.85-1.97-3.37-2.14-.82-.09-1.66,0-2.5.26-.84.27-1.65.7-2.42,1.3-.39,3.32-.78,6.63-1.17,9.95.61.85,1.29,1.51,2.06,1.99.77.48,1.57.77,2.41.86Z" style="fill:#0c566d;"/><path d="m258.72,66.06c-.3-.03-.56-.1-.77-.21-.21-.11-.35-.3-.42-.55-1.31-5.6-2.59-11.2-3.84-16.8-.02-.05-.03-.12-.05-.23-.01-.1-.01-.19,0-.26.02-.18.12-.3.3-.36.18-.06.44-.07.79-.04.1.01.21.02.31.03.25.03.46.08.64.17.18.09.29.22.34.41,1.08,5.38,2.18,10.77,3.3,16.15.05,0,.09,0,.14.01,2.13-5.07,4.24-10.14,6.32-15.22.06-.18.19-.29.38-.34.19-.05.42-.06.7-.04.08,0,.16.01.24.02.32.03.55.09.69.18.14.09.2.23.19.41,0,.07-.02.15-.04.24-.02.09-.06.18-.11.26-2.3,5.25-4.62,10.49-6.97,15.72-.09.24-.25.4-.48.47-.23.07-.51.09-.83.06-.27-.03-.54-.05-.8-.08Z" style="fill:#0c566d;"/><path d="m277.52,67.84c-2.61-.21-4.56-1.09-5.82-2.63-1.27-1.54-1.76-3.89-1.49-7.04.17-1.99.61-3.64,1.31-4.95.7-1.31,1.66-2.26,2.86-2.87,1.21-.61,2.64-.84,4.32-.71,1.49.12,2.71.55,3.67,1.29.96.74,1.65,1.79,2.07,3.13.42,1.34.57,2.97.43,4.9-.01.16-.07.33-.18.5-.11.17-.24.32-.42.43-.17.11-.35.16-.53.15-3.76-.28-7.53-.57-11.29-.89-.15,2.09.19,3.7,1.03,4.84.84,1.14,2.24,1.79,4.2,1.95,1.16.09,2.13.04,2.91-.15.78-.19,1.38-.4,1.82-.63.44-.23.71-.34.83-.33.14.01.25.09.33.25.08.16.15.33.21.53.06.2.08.35.07.47-.01.2-.19.42-.54.64-.34.23-.81.44-1.38.63-.58.2-1.25.35-2,.45-.76.1-1.57.12-2.43.05Zm-4.89-10.55c3.35.28,6.7.55,10.05.8.15-2.06-.15-3.65-.91-4.75-.76-1.11-1.91-1.72-3.45-1.84-1.1-.09-2.06.08-2.87.51-.81.42-1.45,1.08-1.92,1.96-.47.88-.77,1.99-.91,3.33Z" style="fill:#0c566d;"/><path d="m290.66,68.66c-.35-.02-.61-.09-.78-.21-.17-.11-.25-.27-.23-.48.27-4.05.54-8.09.81-12.14.07-1.07.1-1.9.08-2.51-.02-.6-.04-1.06-.08-1.37-.04-.31-.05-.53-.04-.67,0-.09.06-.17.17-.23.11-.06.24-.11.39-.15.15-.04.31-.06.49-.07.17-.01.32-.01.43,0,.18.01.32.08.42.2.1.12.18.35.25.7.07.35.13.83.18,1.45.4-.52.85-.95,1.33-1.3.48-.35,1.01-.6,1.57-.76.56-.16,1.14-.22,1.74-.18.48.03.88.14,1.21.33.32.19.48.42.46.69-.01.18-.04.36-.08.52-.04.17-.1.32-.17.45-.07.13-.13.24-.21.31-.07.08-.16.11-.25.1-.12,0-.33-.07-.65-.19-.32-.12-.73-.2-1.23-.23-.83-.05-1.57.15-2.24.59-.66.45-1.14,1-1.44,1.67-.28,4.31-.56,8.62-.84,12.93-.01.2-.11.35-.29.44-.18.09-.46.12-.83.1-.06,0-.12,0-.18-.01Z" style="fill:#0c566d;"/><path d="m306.28,69.7c-.89-.04-1.62-.24-2.18-.57-.57-.34-.99-.82-1.26-1.45-.27-.63-.38-1.4-.33-2.31.38-7.02.77-14.05,1.15-21.07.01-.2.09-.35.25-.45.15-.09.41-.13.78-.11.08,0,.16,0,.24.01.36.02.62.08.76.19.14.11.21.27.2.47-.37,6.99-.73,13.98-1.1,20.97-.05.89.07,1.5.36,1.83.29.33.79.52,1.51.56.58.03,1.02-.01,1.3-.12.29-.11.51-.16.67-.15.09,0,.17.07.22.18.05.12.09.25.12.4.03.15.04.29.05.43,0,.14,0,.24,0,.31,0,.2-.17.37-.48.51-.31.13-.68.23-1.1.3-.43.07-.81.1-1.16.08Z" style="fill:#0c566d;"/><path d="m319.28,70.28c-2.62-.1-4.59-.9-5.92-2.39-1.33-1.49-1.91-3.82-1.76-6.97.09-2,.46-3.66,1.11-5,.65-1.34,1.56-2.33,2.74-2.98,1.18-.65,2.61-.95,4.28-.88,1.49.06,2.73.44,3.72,1.14.99.71,1.72,1.72,2.2,3.04.48,1.32.69,2.95.62,4.88,0,.16-.06.33-.16.51-.1.18-.23.33-.4.45-.17.12-.34.18-.53.17-3.77-.12-7.54-.27-11.31-.43-.07,2.09.34,3.69,1.23,4.79.89,1.11,2.31,1.7,4.27,1.78,1.17.05,2.13-.05,2.9-.27.77-.22,1.36-.46,1.79-.71.43-.25.7-.37.82-.36.14,0,.25.08.34.23.09.15.16.32.23.52.06.2.09.35.09.46,0,.2-.18.43-.51.67-.34.24-.79.47-1.36.69-.57.22-1.23.4-1.98.53-.75.13-1.56.18-2.43.15Zm-5.31-10.35c3.36.15,6.71.28,10.07.39.07-2.07-.3-3.64-1.1-4.71-.8-1.07-1.98-1.64-3.52-1.7-1.1-.04-2.05.16-2.84.62-.79.46-1.4,1.13-1.83,2.04-.43.9-.69,2.02-.77,3.36Z" style="fill:#0c566d;"/><path d="m332.4,70.57c-.37,0-.64-.07-.78-.17-.15-.11-.22-.26-.22-.47.11-4.05.22-8.11.33-12.16.03-1.07.02-1.9-.02-2.51-.04-.6-.09-1.06-.14-1.37-.05-.31-.07-.53-.07-.67,0-.09.06-.17.16-.23.1-.07.23-.12.38-.16.15-.04.31-.07.48-.09.17-.02.32-.03.43-.02.18,0,.32.07.41.18.09.12.18.33.26.66.08.32.17.79.28,1.4.43-.44.95-.84,1.57-1.19.62-.35,1.27-.63,1.97-.84.69-.21,1.4-.31,2.11-.3,1.12.02,2.07.24,2.85.67.77.42,1.36,1.01,1.77,1.77.4.76.6,1.68.58,2.77-.06,4.12-.12,8.25-.18,12.37,0,.2-.08.36-.23.46-.15.1-.42.15-.79.14-.08,0-.16,0-.25,0-.37,0-.64-.06-.79-.17-.15-.11-.22-.26-.22-.46.07-4.08.13-8.16.2-12.24.02-1.09-.27-1.92-.88-2.5-.6-.58-1.49-.88-2.66-.9-.6-.01-1.2.07-1.8.25-.6.18-1.17.44-1.71.78-.54.34-1.01.75-1.41,1.24-.11,4.4-.22,8.79-.32,13.19,0,.2-.08.36-.24.45-.16.1-.42.14-.79.13-.09,0-.19,0-.28,0Z" style="fill:#0c566d;"/><path d="m352.22,50.54c-.44,0-.74-.06-.91-.16-.17-.1-.26-.26-.25-.46,0-.77.01-1.54.02-2.32,0-.18.09-.33.26-.44.17-.11.47-.17.91-.16.41,0,.7.06.87.16.17.1.25.26.25.46,0,.77,0,1.54-.01,2.32,0,.18-.09.33-.26.44-.17.11-.47.17-.88.17Zm-.28,20.35c-.37,0-.64-.06-.79-.16-.15-.1-.23-.26-.22-.46.05-5.58.09-11.16.14-16.74,0-.2.08-.36.23-.46.15-.1.41-.15.78-.15.09,0,.18,0,.28,0,.37,0,.63.05.78.16.15.1.22.26.22.46-.03,5.58-.07,11.16-.1,16.74,0,.2-.08.36-.23.46-.15.1-.42.15-.79.15-.09,0-.19,0-.28,0Z" style="fill:#0c566d;"/><path d="m361.23,70.92c-.38,0-.64-.05-.79-.15-.15-.1-.23-.26-.23-.46,0-4.06,0-8.11,0-12.17,0-1.07-.03-1.9-.09-2.51-.06-.6-.12-1.06-.17-1.36-.06-.31-.09-.53-.09-.66,0-.09.05-.17.16-.24.1-.07.23-.13.38-.17.15-.04.31-.08.48-.1.17-.02.32-.03.43-.03.18,0,.32.06.41.17.09.11.18.33.28.65.09.32.2.78.31,1.4.41-.46.92-.87,1.53-1.23.61-.37,1.26-.66,1.94-.9.69-.23,1.39-.35,2.1-.36,1.13,0,2.08.19,2.87.59.79.4,1.39.97,1.82,1.72.42.74.64,1.66.66,2.75.05,4.12.11,8.25.16,12.37,0,.2-.07.36-.22.46-.15.1-.41.16-.79.16-.08,0-.16,0-.25,0-.37,0-.64-.04-.79-.14-.15-.1-.23-.25-.23-.46-.05-4.08-.09-8.16-.14-12.24-.01-1.09-.33-1.92-.94-2.48-.62-.56-1.51-.84-2.68-.83-.6,0-1.2.11-1.79.3-.6.2-1.16.47-1.69.83-.53.35-.99.78-1.38,1.28.01,4.4.03,8.79.04,13.19,0,.2-.08.36-.23.46-.15.1-.41.15-.79.16-.09,0-.19,0-.28,0Z" style="fill:#0c566d;"/><path d="m385.33,77.76c-1.41.03-2.65-.09-3.7-.36-1.05-.27-1.86-.72-2.43-1.35-.57-.63-.86-1.44-.87-2.44-.01-.71.12-1.35.4-1.95.28-.6.66-1.13,1.15-1.59.48-.46,1-.83,1.56-1.09.01-.02.02-.05.03-.07-.45-.29-.83-.65-1.13-1.1-.3-.45-.46-.97-.47-1.56-.01-.7.16-1.33.52-1.87.36-.54.89-.98,1.58-1.31-1.03-.39-1.83-1-2.39-1.84-.56-.84-.85-1.81-.87-2.9-.02-1.14.21-2.13.69-2.98.48-.85,1.2-1.53,2.15-2.04.96-.51,2.13-.78,3.53-.82.32,0,.64,0,.95.03.31.03.61.07.88.13,2.02-.05,4.04-.11,6.07-.18.21,0,.36.05.45.17.09.12.15.32.16.59,0,.11,0,.23.01.34.02.52-.17.79-.56.8-.28,0-.59.01-.95.01-.36,0-.72-.01-1.09-.03-.37-.02-.7-.06-1.01-.12-.01.02-.02.05-.03.07.33.24.62.53.86.88.24.35.44.74.59,1.19.15.45.24.99.26,1.63.03,1.04-.19,1.98-.68,2.82-.48.83-1.21,1.49-2.19,1.97-.97.48-2.19.74-3.66.78-.7.02-1.29.12-1.79.3-.5.18-.87.44-1.12.78-.25.34-.37.74-.36,1.22.01.52.16.93.45,1.22.29.29.68.51,1.19.66.5.15,1.08.25,1.72.32.64.06,1.32.13,2.02.2,1.24.1,2.29.3,3.15.59.86.29,1.52.73,1.97,1.3.45.58.69,1.35.72,2.33.03,1.07-.23,1.99-.79,2.75-.56.77-1.43,1.37-2.59,1.8-1.16.43-2.63.67-4.4.71Zm.31-1.81c1.83-.05,3.18-.34,4.05-.88.87-.54,1.28-1.34,1.25-2.41-.02-.61-.19-1.09-.52-1.43-.33-.34-.77-.59-1.32-.75-.55-.15-1.17-.26-1.85-.32-.68-.06-1.38-.12-2.11-.18-.73-.06-1.42-.18-2.08-.34-.74.36-1.37.82-1.88,1.4-.51.58-.76,1.3-.75,2.16.01.66.21,1.19.58,1.61.37.41.94.71,1.69.9.76.19,1.73.27,2.93.24Zm-.35-14.18c.88-.02,1.64-.17,2.28-.43.64-.27,1.14-.67,1.48-1.2.34-.53.5-1.22.48-2.06-.03-.91-.23-1.64-.6-2.2-.37-.56-.89-.96-1.54-1.2-.65-.24-1.41-.36-2.29-.33-.88.02-1.64.17-2.29.45-.65.28-1.15.7-1.49,1.28-.35.58-.51,1.32-.49,2.23.03,1.27.44,2.18,1.26,2.72.81.54,1.88.79,3.2.76Z" style="fill:#0c566d;"/><path d="m397,74.13c-.14,0-.29-.03-.44-.1-.16-.07-.23-.18-.24-.32,0-.11.07-.28.21-.5.15-.22.3-.55.48-.99.13-.32.24-.7.35-1.12.1-.42.18-.95.24-1.58.06-.63.07-1.41.04-2.34,0-.27.07-.46.22-.57.16-.11.41-.17.76-.18.13,0,.26,0,.38-.01.35-.01.61.03.77.12.17.1.26.28.27.55.04,1.02-.04,1.96-.24,2.82-.2.86-.47,1.6-.79,2.23-.33.63-.67,1.11-1.02,1.45-.35.34-.68.52-.98.53Z" style="fill:#0c566d;"/><path d="m419.48,69.33c-1.38.08-2.58-.2-3.59-.84-1.02-.64-1.81-1.62-2.38-2.95-.57-1.32-.9-2.96-1-4.91-.1-1.86.09-3.49.55-4.89.46-1.4,1.16-2.5,2.11-3.3.95-.8,2.12-1.24,3.52-1.32.9-.05,1.79.05,2.68.3.89.25,1.67.63,2.35,1.14-.18-2.9-.36-5.81-.54-8.71-.01-.2.06-.36.23-.48.16-.11.43-.18.79-.2.06,0,.11,0,.17-.01.34-.02.6.01.78.1.18.09.27.24.29.44.43,6.62.86,13.24,1.29,19.86.06.95.14,1.74.24,2.36.1.62.19,1.1.27,1.43.08.34.13.57.13.71,0,.09-.04.18-.12.26-.09.09-.2.16-.34.21-.14.05-.29.1-.45.13-.16.03-.31.05-.45.06-.21.01-.37-.03-.48-.14-.11-.11-.22-.33-.32-.66-.1-.33-.24-.79-.42-1.37-.48.55-1.02,1.04-1.61,1.45-.6.41-1.21.73-1.84.95-.63.22-1.24.35-1.82.38Zm.49-1.94c.86-.05,1.68-.31,2.46-.78.78-.47,1.46-1.06,2.05-1.78-.21-3.37-.42-6.74-.63-10.1-.71-.64-1.47-1.1-2.29-1.4-.81-.29-1.62-.42-2.43-.37-1.49.09-2.62.78-3.36,2.08-.75,1.3-1.06,3.12-.94,5.46.13,2.4.64,4.18,1.54,5.31.9,1.13,2.1,1.66,3.59,1.57Z" style="fill:#0c566d;"/><path d="m433.72,47.88c-.43.03-.74,0-.92-.09-.18-.09-.28-.24-.29-.44-.06-.77-.11-1.54-.17-2.31-.01-.18.06-.33.23-.46.16-.13.46-.2.89-.23.41-.03.7,0,.88.09.18.09.28.24.29.44.06.77.11,1.54.17,2.31.01.18-.06.34-.23.46-.16.13-.45.2-.86.23Zm1.33,20.31c-.37.03-.64,0-.8-.1-.16-.09-.25-.24-.26-.44-.4-5.56-.8-11.13-1.19-16.69-.01-.2.05-.36.19-.47.14-.11.4-.18.76-.21.09,0,.18-.01.28-.02.37-.03.63,0,.79.1.16.09.24.24.26.44.41,5.56.82,11.13,1.23,16.69.02.2-.05.36-.19.48-.15.11-.4.18-.78.21-.09,0-.19.01-.28.02Z" style="fill:#0c566d;"/><path d="m450.11,67.12c-2.61.23-4.67-.32-6.17-1.64-1.5-1.31-2.37-3.55-2.62-6.7-.16-1.99,0-3.69.48-5.1.48-1.41,1.26-2.51,2.35-3.3,1.09-.8,2.47-1.27,4.14-1.41,1.49-.13,2.77.09,3.84.67,1.07.58,1.92,1.49,2.56,2.74.64,1.25,1.05,2.84,1.23,4.76.01.16-.02.33-.09.52-.08.19-.19.35-.34.49-.15.14-.32.22-.5.23-3.76.35-7.52.67-11.28.98.19,2.08.8,3.62,1.81,4.6,1.02.99,2.51,1.4,4.46,1.23,1.16-.1,2.11-.31,2.85-.63.73-.32,1.3-.63,1.69-.92.39-.3.65-.45.77-.46.14-.01.26.05.37.19.11.14.2.3.29.49.09.19.14.34.15.45.02.2-.12.45-.43.72-.3.28-.72.56-1.26.85-.54.29-1.17.55-1.9.77-.73.22-1.53.38-2.39.45Zm-6.56-9.61c3.35-.27,6.7-.56,10.05-.87-.19-2.06-.75-3.57-1.68-4.54-.93-.97-2.17-1.38-3.7-1.25-1.1.1-2.02.42-2.75.97-.73.55-1.25,1.3-1.57,2.25-.32.95-.43,2.09-.35,3.43Z" style="fill:#0c566d;"/><path d="m463.17,65.77c-.37.04-.64.01-.8-.07-.16-.09-.25-.23-.27-.44-.4-4.04-.8-8.07-1.19-12.11-.1-1.06-.22-1.89-.33-2.49-.12-.59-.22-1.04-.31-1.34-.09-.3-.14-.52-.15-.65,0-.09.04-.17.13-.25.1-.08.22-.15.36-.21.14-.06.3-.11.47-.15.17-.04.31-.07.43-.08.18-.02.33.02.43.13.1.11.22.31.34.62.12.31.27.76.45,1.36.37-.49.84-.95,1.41-1.38.57-.42,1.19-.78,1.85-1.08.66-.3,1.35-.48,2.06-.56,1.12-.12,2.09-.02,2.91.3.82.32,1.48.83,1.98,1.53.5.7.8,1.59.93,2.67.46,4.1.91,8.2,1.37,12.3.02.2-.04.36-.18.48-.14.12-.4.2-.77.24-.08,0-.16.02-.24.03-.37.04-.64.02-.8-.07-.16-.09-.25-.23-.28-.43-.44-4.06-.89-8.11-1.33-12.16-.12-1.08-.51-1.88-1.18-2.37-.67-.5-1.59-.69-2.76-.56-.6.06-1.18.22-1.76.48-.58.25-1.11.58-1.6.99-.49.4-.91.87-1.25,1.41.44,4.38.88,8.75,1.32,13.13.02.2-.04.36-.18.48-.14.12-.4.19-.77.23-.09,0-.19.02-.28.03Z" style="fill:#0c566d;"/><path d="m484.99,63.6c-.74.09-1.44.1-2.08.04-.64-.06-1.21-.16-1.7-.3-.49-.14-.88-.29-1.17-.46-.29-.17-.45-.34-.46-.5-.01-.11.02-.28.1-.49.08-.22.18-.42.3-.6.12-.19.24-.28.35-.3.12-.01.36.06.73.22.37.16.87.31,1.5.44.63.13,1.34.15,2.13.05,1.21-.15,2.1-.51,2.67-1.1.58-.59.81-1.33.69-2.23-.09-.77-.34-1.36-.73-1.76-.39-.41-.89-.73-1.49-.95-.6-.22-1.26-.42-1.99-.58-.6-.13-1.19-.29-1.76-.48-.57-.18-1.1-.44-1.58-.76-.48-.32-.88-.74-1.2-1.25-.32-.51-.52-1.16-.61-1.95-.11-.95.03-1.8.42-2.57.39-.77.97-1.4,1.76-1.89.79-.49,1.73-.81,2.83-.94.53-.06,1.03-.09,1.5-.08.48.01.91.05,1.3.11.39.07.71.16.96.28.25.12.38.25.4.38.02.14,0,.32-.07.56-.06.24-.15.45-.25.63-.1.18-.21.28-.33.3-.09.01-.43-.07-1.01-.24-.58-.17-1.3-.2-2.17-.09-1.03.13-1.83.46-2.41.99-.58.54-.81,1.23-.71,2.09.07.56.24,1.01.53,1.34.29.33.68.6,1.18.8.5.2,1.1.39,1.8.55.77.18,1.48.39,2.13.63.65.24,1.24.54,1.76.91.53.37.95.83,1.28,1.39.33.55.54,1.24.65,2.05.13.99-.01,1.89-.42,2.7-.41.81-1.02,1.48-1.85,2.02-.83.54-1.83.88-2.99,1.02Z" style="fill:#0c566d;"/><path d="m500.6,61.49c-.86.12-1.61.06-2.24-.16-.63-.22-1.14-.62-1.51-1.19-.37-.57-.61-1.31-.73-2.21-.52-3.96-1.05-7.93-1.57-11.89-.72.1-1.44.19-2.16.28-.39.05-.62-.18-.68-.7-.01-.11-.03-.23-.04-.34-.07-.52.09-.8.48-.85.72-.09,1.44-.19,2.16-.28-.07-1.24-.14-2.48-.21-3.72.02-.23.08-.4.19-.51.11-.11.31-.18.58-.22.06,0,.11-.02.17-.02.34-.05.59-.03.74.06.15.08.24.23.27.43.16,1.23.33,2.46.5,3.68,1.13-.15,2.26-.31,3.39-.46.39-.05.62.18.69.7.02.11.03.23.05.34.07.52-.09.8-.48.86-1.13.16-2.26.31-3.4.46.53,3.93,1.06,7.86,1.59,11.79.12.86.35,1.43.69,1.71.35.29.87.38,1.56.29.63-.09,1.07-.21,1.35-.37.27-.16.49-.26.65-.28.09-.01.17.03.25.14.07.11.14.23.19.37.05.14.1.28.13.41.03.13.05.23.06.3.03.2-.1.4-.4.59-.29.19-.65.36-1.07.51-.42.15-.81.25-1.18.3Z" style="fill:#0c566d;"/><path d="m514.35,59.53c-2.6.39-4.69-.03-6.27-1.25-1.58-1.22-2.59-3.39-3.03-6.52-.28-1.98-.22-3.69.17-5.12.39-1.43,1.11-2.58,2.15-3.44,1.04-.86,2.39-1.42,4.05-1.67,1.48-.22,2.77-.08,3.88.43,1.11.51,2.02,1.37,2.73,2.58.71,1.21,1.22,2.77,1.52,4.68.02.16,0,.33-.06.53-.06.19-.17.37-.31.51-.14.15-.3.24-.49.27-3.74.58-7.48,1.14-11.22,1.68.32,2.07,1.02,3.56,2.1,4.48,1.08.92,2.59,1.24,4.54.95,1.16-.17,2.09-.44,2.81-.8.71-.36,1.26-.71,1.63-1.03.38-.32.62-.49.74-.51.14-.02.27.03.38.17.12.13.22.29.32.47.1.18.16.33.17.44.03.2-.1.45-.38.75-.29.3-.69.61-1.21.93-.52.32-1.14.62-1.86.89-.72.27-1.51.47-2.36.6Zm-7.15-9.18c3.33-.48,6.66-.98,9.99-1.49-.31-2.04-.97-3.52-1.96-4.42-.99-.91-2.25-1.24-3.78-1.02-1.1.16-1.99.54-2.68,1.14-.7.59-1.17,1.38-1.43,2.34-.26.97-.3,2.12-.13,3.45Z" style="fill:#0c566d;"/><path d="m527.33,57.37c-.37.06-.64.05-.81-.02-.17-.08-.27-.22-.3-.42-.65-4-1.29-8.01-1.94-12.01-.17-1.05-.33-1.87-.49-2.46-.15-.58-.28-1.02-.39-1.32-.11-.29-.17-.51-.19-.64-.01-.09.02-.18.12-.26.09-.08.21-.16.35-.23.14-.07.3-.13.46-.18.17-.05.31-.08.42-.1.18-.03.33,0,.44.1.11.1.23.3.38.6.14.3.32.74.53,1.33.34-.52.78-1,1.32-1.46.54-.46,1.14-.86,1.78-1.19.65-.34,1.32-.57,2.02-.69,1.11-.19,2.09-.15,2.93.12.84.27,1.53.74,2.07,1.41.54.67.9,1.54,1.09,2.61.71,4.06,1.42,8.13,2.13,12.19.03.2-.01.36-.15.49-.13.13-.38.22-.75.29-.08.01-.16.03-.24.04-.37.06-.64.06-.81-.02-.17-.07-.27-.21-.3-.41-.69-4.02-1.39-8.04-2.08-12.06-.19-1.08-.63-1.84-1.33-2.3-.7-.46-1.63-.59-2.79-.39-.59.1-1.17.29-1.73.58-.56.29-1.08.65-1.54,1.09-.47.43-.85.93-1.16,1.49.71,4.34,1.42,8.68,2.13,13.02.03.2-.02.37-.15.49-.13.12-.39.22-.76.28-.09.02-.19.03-.28.05Z" style="fill:#0c566d;"/></svg>