<?xml version="1.0" encoding="UTF-8"?><svg id="Layer_1" xmlns="http://www.w3.org/2000/svg" viewBox="0 0 718 90"><path d="m208.98,55.42c-.56-.1-.79-.4-.7-.92,1.29-7.4,2.58-14.8,3.87-22.2.04-.2.14-.34.32-.41.17-.07.44-.08.81-.02.09.02.18.03.27.05.38.07.64.16.77.29.13.13.18.29.14.49-1.2,7-2.4,14-3.61,21,3.34.57,6.68,1.13,10.02,1.66.39.06.55.35.47.87-.02.15-.05.29-.07.44-.08.52-.32.74-.72.68-3.86-.62-7.72-1.26-11.58-1.93Z" style="fill:#0c566d;"/><path d="m231.49,59.23c-2.61-.38-4.5-1.4-5.67-3.02-1.17-1.63-1.5-4-1.01-7.12.31-1.97.86-3.59,1.66-4.85.79-1.26,1.81-2.14,3.06-2.67,1.25-.52,2.7-.66,4.37-.41,1.48.22,2.68.73,3.59,1.54.91.81,1.53,1.89,1.87,3.26.34,1.37.37,3.01.11,4.92-.02.16-.09.32-.21.49-.12.17-.27.3-.44.4-.18.1-.36.14-.55.11-3.76-.53-7.51-1.08-11.26-1.66-.3,2.07-.06,3.7.71,4.9.77,1.2,2.13,1.94,4.08,2.23,1.16.17,2.14.19,2.93.05.79-.14,1.41-.31,1.87-.51.45-.2.74-.29.86-.27.14.02.25.11.32.27.07.16.13.34.17.54.04.2.06.36.04.47-.03.2-.22.4-.58.61-.36.2-.84.38-1.43.54-.59.16-1.27.26-2.04.31-.77.05-1.58.01-2.45-.12Zm-4.19-10.87c3.34.51,6.68,1.01,10.02,1.48.29-2.05.09-3.65-.6-4.8-.69-1.15-1.8-1.84-3.33-2.07-1.1-.16-2.07-.06-2.91.31-.84.37-1.52.97-2.05,1.83-.53.85-.91,1.94-1.14,3.26Z" style="fill:#0c566d;"/><path d="m247.82,61.34c-.3-.04-.56-.12-.77-.24-.21-.12-.35-.31-.41-.57-1.14-5.64-2.25-11.27-3.33-16.91-.02-.05-.03-.12-.04-.23,0-.1,0-.19,0-.26.02-.18.13-.3.31-.35.18-.06.44-.06.79-.01.1.01.21.03.31.04.25.03.46.1.64.19.17.09.28.23.33.42.91,5.42,1.85,10.83,2.81,16.25.05,0,.09.01.14.02,2.3-5,4.56-10.01,6.8-15.02.07-.17.2-.29.39-.33.19-.05.42-.05.7-.02.08,0,.16.02.24.03.32.04.55.11.69.2.14.1.2.24.18.42,0,.07-.02.15-.04.23-.02.09-.06.18-.12.26-2.45,5.18-4.94,10.34-7.46,15.5-.1.24-.27.39-.5.45-.23.06-.51.07-.84.03-.27-.03-.54-.07-.81-.1Z" style="fill:#0c566d;"/><path d="m266.67,63.69c-2.62-.28-4.55-1.22-5.78-2.79-1.23-1.58-1.65-3.94-1.29-7.08.23-1.99.72-3.62,1.46-4.91.74-1.29,1.72-2.22,2.95-2.79,1.23-.57,2.67-.77,4.34-.59,1.49.16,2.7.62,3.64,1.39.94.77,1.61,1.83,2,3.18.39,1.35.49,2.99.3,4.91-.02.16-.08.32-.19.49-.11.17-.25.31-.43.42-.17.11-.35.15-.54.13-3.77-.38-7.54-.78-11.3-1.2-.21,2.08.09,3.7.9,4.87.81,1.17,2.2,1.86,4.16,2.07,1.17.12,2.14.1,2.93-.07.78-.17,1.4-.37,1.85-.58.45-.22.73-.32.84-.31.14.01.25.1.33.26.08.16.14.33.19.53.05.2.07.36.06.47-.02.2-.21.41-.56.63-.35.22-.82.41-1.41.59-.59.18-1.26.31-2.03.39-.77.08-1.58.07-2.45-.02Zm-4.62-10.69c3.35.38,6.71.74,10.06,1.08.21-2.06-.06-3.65-.79-4.77-.73-1.13-1.87-1.77-3.41-1.93-1.1-.12-2.06.02-2.89.42-.82.4-1.48,1.04-1.98,1.91-.49.87-.83,1.97-1,3.3Z" style="fill:#0c566d;"/><path d="m279.81,64.85c-.37-.03-.63-.11-.78-.23-.14-.12-.21-.28-.19-.48.37-4.04.75-8.08,1.12-12.12.1-1.06.15-1.9.14-2.5,0-.6-.02-1.06-.05-1.37-.03-.31-.04-.53-.02-.67,0-.09.07-.16.18-.22.11-.06.24-.1.39-.14.15-.03.32-.05.49-.06.17,0,.32,0,.43,0,.18.02.32.09.4.21.08.12.15.35.22.67.06.33.12.8.18,1.42.46-.42,1-.78,1.64-1.09.64-.31,1.32-.55,2.02-.71.71-.17,1.42-.22,2.13-.16,1.12.09,2.06.38,2.81.85.75.47,1.3,1.09,1.66,1.87.36.78.49,1.71.41,2.8-.32,4.11-.64,8.22-.95,12.34-.02.2-.1.35-.26.44-.16.09-.43.12-.8.09-.08,0-.16-.01-.25-.02-.37-.03-.63-.1-.78-.22-.14-.11-.21-.27-.19-.48.33-4.07.65-8.13.98-12.2.09-1.09-.15-1.94-.72-2.55-.56-.62-1.43-.97-2.61-1.07-.6-.05-1.2,0-1.82.14-.61.14-1.2.36-1.76.67-.56.3-1.06.69-1.5,1.15-.39,4.38-.79,8.76-1.18,13.14-.02.2-.11.35-.27.44-.16.09-.43.12-.8.08-.09,0-.19-.02-.28-.03Z" style="fill:#0c566d;"/><path d="m301.73,66.81c-.75-.05-1.44-.16-2.06-.34-.62-.18-1.16-.38-1.62-.61-.46-.23-.81-.45-1.06-.67-.26-.22-.38-.41-.37-.57,0-.11.07-.27.19-.46.12-.2.26-.38.41-.53.15-.16.29-.24.4-.23.12,0,.34.13.68.36.34.23.8.47,1.4.71.59.25,1.29.4,2.09.45,1.22.08,2.16-.11,2.84-.58.68-.47,1.04-1.16,1.1-2.07.05-.77-.08-1.39-.39-1.87-.31-.48-.74-.88-1.29-1.21-.55-.33-1.17-.64-1.85-.94-.57-.24-1.12-.51-1.64-.79-.53-.29-1-.63-1.41-1.04-.41-.4-.73-.89-.95-1.45-.22-.56-.29-1.24-.24-2.03.07-.95.36-1.77.89-2.45.52-.68,1.22-1.19,2.08-1.53.87-.34,1.85-.47,2.95-.4.53.03,1.03.1,1.49.2.47.1.89.22,1.26.35.37.14.67.29.89.45.22.16.33.31.32.45,0,.14-.06.32-.17.54-.11.22-.23.41-.36.58-.14.16-.26.24-.38.23-.09,0-.41-.14-.95-.42-.54-.27-1.24-.44-2.12-.49-1.04-.07-1.89.11-2.55.53-.67.42-1.03,1.06-1.09,1.92-.04.57.05,1.04.27,1.42.22.38.55.72,1.01,1.01.46.29,1.01.59,1.67.88.72.32,1.38.66,1.98,1.02.59.36,1.12.76,1.57,1.22.45.46.78.99,1.01,1.6.22.61.31,1.32.26,2.13-.06,1-.36,1.86-.91,2.58-.55.72-1.28,1.27-2.2,1.64-.92.38-1.96.52-3.14.45Z" style="fill:#0c566d;"/><path d="m320.32,67.75c-.96-.04-1.89-.28-2.77-.71-.88-.43-1.67-1.04-2.36-1.82-.04.25-.08.5-.14.76-.06.26-.13.51-.22.76-.08.25-.2.4-.34.48-.15.07-.34.1-.57.09-.05,0-.09,0-.14,0-.33-.02-.56-.08-.68-.19-.12-.11-.18-.27-.17-.47.44-8.15.87-16.29,1.31-24.44.01-.2.09-.35.25-.45.15-.09.42-.13.81-.11.07,0,.14,0,.21.01.39.02.65.08.8.19.14.11.21.27.2.47-.15,2.95-.3,5.9-.45,8.85.48-.34.98-.64,1.52-.9.53-.26,1.1-.45,1.71-.58.61-.13,1.25-.18,1.94-.15,2.05.09,3.63.94,4.77,2.54,1.14,1.6,1.66,3.88,1.55,6.83-.07,1.86-.4,3.46-.99,4.81-.59,1.34-1.41,2.37-2.46,3.08-1.05.71-2.31,1.03-3.76.96Zm-.3-1.89c1.57.07,2.81-.51,3.7-1.75.89-1.24,1.39-3.05,1.48-5.43.09-2.29-.24-4.06-1-5.31-.76-1.25-1.93-1.91-3.52-1.98-.83-.04-1.65.09-2.46.38-.81.29-1.57.7-2.26,1.24-.18,3.44-.35,6.88-.53,10.31.64.81,1.36,1.42,2.18,1.85.81.43,1.62.66,2.41.69Z" style="fill:#0c566d;"/><path d="m339.77,68.41c-2.63-.06-4.63-.83-5.98-2.31-1.35-1.47-1.97-3.79-1.87-6.95.06-2,.41-3.67,1.05-5.01.63-1.34,1.53-2.35,2.71-3.02,1.17-.67,2.6-.99,4.28-.95,1.5.04,2.74.4,3.74,1.09,1,.69,1.75,1.69,2.25,3.01.5,1.32.74,2.94.71,4.87,0,.16-.05.33-.15.51-.1.18-.23.33-.39.45-.16.12-.34.18-.53.18-3.78-.06-7.56-.15-11.35-.26-.04,2.09.39,3.68,1.3,4.78.9,1.09,2.35,1.67,4.31,1.71,1.17.03,2.14-.08,2.91-.31.77-.23,1.36-.48,1.79-.73.43-.25.7-.38.81-.38.14,0,.26.08.35.23.09.15.17.32.24.51.07.19.1.35.1.46,0,.2-.17.43-.5.67-.33.24-.78.48-1.35.71-.57.23-1.23.42-1.98.56-.76.14-1.57.21-2.44.19Zm-5.48-10.27c3.37.1,6.73.18,10.1.24.04-2.07-.36-3.63-1.18-4.69-.82-1.06-2-1.61-3.55-1.65-1.11-.03-2.05.19-2.84.66-.79.47-1.39,1.15-1.81,2.06-.42.91-.66,2.03-.73,3.37Z" style="fill:#0c566d;"/><path d="m355.31,68.74c-.75,0-1.44-.08-2.08-.22-.63-.14-1.18-.31-1.65-.51-.47-.2-.84-.4-1.1-.61-.27-.21-.4-.39-.4-.55,0-.11.06-.27.16-.47.11-.2.23-.39.37-.56.14-.17.27-.25.39-.25.12,0,.35.11.7.31.35.21.83.42,1.44.63.61.21,1.31.32,2.11.32,1.22,0,2.15-.25,2.8-.76.65-.51.97-1.22.97-2.13,0-.77-.17-1.39-.5-1.84-.34-.46-.79-.83-1.36-1.13-.57-.3-1.2-.57-1.9-.83-.58-.21-1.14-.44-1.69-.69-.54-.25-1.04-.57-1.47-.95-.44-.38-.78-.84-1.03-1.39-.25-.55-.37-1.22-.36-2.02.01-.95.26-1.79.74-2.5.48-.71,1.14-1.26,1.99-1.65.84-.39,1.82-.58,2.92-.58.53,0,1.03.04,1.5.11.47.07.9.16,1.28.28.38.11.68.24.91.39.23.15.35.29.35.43,0,.14-.05.32-.14.55-.09.23-.2.43-.33.6-.13.17-.25.25-.36.25-.09,0-.42-.12-.97-.36-.55-.24-1.27-.36-2.14-.37-1.04,0-1.87.22-2.51.68-.64.46-.96,1.12-.97,1.99,0,.57.11,1.04.35,1.4.24.37.6.68,1.07.95.47.26,1.05.52,1.72.78.74.28,1.42.57,2.03.89.61.32,1.16.69,1.64,1.13.48.43.84.94,1.1,1.53.26.59.39,1.29.39,2.11,0,1-.25,1.88-.75,2.63-.5.75-1.2,1.34-2.1,1.77-.89.43-1.93.64-3.1.64Z" style="fill:#0c566d;"/><path d="m373.28,68.55c-2.63.04-4.65-.66-6.04-2.08-1.4-1.42-2.1-3.71-2.11-6.87-.02-2.98.66-5.26,2-6.85,1.35-1.59,3.31-2.4,5.88-2.44.67-.01,1.31.03,1.92.12.61.09,1.16.22,1.63.38.47.16.85.34,1.13.52.28.19.42.37.43.55,0,.11-.02.27-.08.48-.05.21-.13.38-.23.52-.1.14-.22.21-.36.21-.14,0-.39-.07-.75-.22-.36-.15-.85-.3-1.46-.45-.61-.15-1.38-.22-2.3-.2-1.87.03-3.25.64-4.15,1.86-.9,1.21-1.34,3.02-1.32,5.43.02,2.43.5,4.23,1.43,5.41.94,1.17,2.41,1.75,4.43,1.72.91-.01,1.7-.13,2.35-.34.65-.22,1.18-.44,1.57-.66.39-.22.65-.34.77-.34.14,0,.26.07.36.21.1.15.18.31.26.51.08.19.11.34.12.46,0,.2-.15.42-.46.66-.31.23-.73.45-1.26.66-.52.2-1.11.38-1.75.53-.64.15-1.31.23-1.99.24Z" style="fill:#0c566d;"/><path d="m384.59,68.18c-.37.01-.64-.03-.8-.13-.16-.1-.24-.25-.24-.45-.22-8.16-.43-16.31-.65-24.47,0-.2.06-.36.21-.47.15-.11.4-.16.77-.17.09,0,.18,0,.27,0,.36-.01.62.03.77.13.15.1.23.25.23.45.09,3.1.18,6.2.27,9.3.4-.44.89-.85,1.45-1.22.57-.37,1.18-.67,1.86-.89.67-.23,1.35-.35,2.04-.38,1.13-.04,2.09.13,2.89.51.8.38,1.42.93,1.87,1.67.45.73.69,1.64.74,2.73.17,4.12.34,8.24.51,12.36,0,.2-.06.36-.21.47-.15.11-.41.17-.79.19-.08,0-.16,0-.25,0-.38.01-.64-.03-.8-.12-.16-.1-.24-.25-.25-.45-.16-4.08-.32-8.15-.47-12.23-.04-1.09-.38-1.91-1.01-2.45-.63-.55-1.54-.8-2.71-.76-.6.02-1.2.14-1.79.35-.59.21-1.15.5-1.67.87-.52.37-.97.81-1.35,1.32.13,4.4.26,8.79.38,13.19,0,.2-.07.36-.21.47-.15.11-.41.17-.79.18-.09,0-.19,0-.28,0Z" style="fill:#0c566d;"/><path d="m410.02,67.25c-2.56.14-4.55-.53-5.96-2-1.41-1.48-2.18-3.68-2.32-6.61-.14-2.97.42-5.28,1.66-6.92,1.25-1.64,3.11-2.53,5.59-2.67,2.46-.14,4.38.53,5.78,2.03,1.4,1.49,2.2,3.73,2.4,6.69.19,2.95-.31,5.23-1.53,6.84-1.21,1.61-3.09,2.5-5.63,2.64Zm-.18-1.9c1.87-.11,3.21-.78,4.02-2.01.8-1.23,1.13-3.06.98-5.49-.15-2.43-.7-4.21-1.64-5.35-.94-1.14-2.33-1.65-4.17-1.55-1.82.1-3.13.76-3.93,1.99-.8,1.22-1.15,3.06-1.03,5.51.12,2.43.64,4.21,1.57,5.35.93,1.14,2.33,1.65,4.2,1.55Z" style="fill:#0c566d;"/><path d="m428.14,66.04c-1.69.13-3.03-.22-4.02-1.03-.99-.82-1.54-2.02-1.65-3.61-.29-4.14-.59-8.27-.88-12.41-.01-.2.05-.36.19-.47.14-.11.4-.18.76-.21.08,0,.16-.01.24-.02.37-.03.63,0,.79.1.16.09.24.24.26.44.3,4.08.6,8.16.9,12.24.08,1.09.44,1.89,1.09,2.4.65.51,1.56.72,2.73.63.61-.05,1.21-.19,1.82-.43.6-.24,1.17-.57,1.7-.98.53-.41.96-.87,1.3-1.37-.37-4.38-.73-8.76-1.1-13.15-.02-.2.04-.36.19-.48.14-.11.4-.19.8-.22.07,0,.14-.01.21-.02.39-.03.66,0,.82.08.16.09.25.24.26.44.35,4.04.7,8.08,1.04,12.12.08.95.18,1.74.29,2.35.11.62.21,1.09.3,1.43.09.33.14.57.15.71,0,.09-.03.18-.12.27-.09.09-.2.16-.34.22-.14.06-.29.1-.45.14-.16.04-.31.06-.45.07-.21.02-.37-.03-.49-.13-.12-.1-.23-.32-.34-.66-.11-.33-.26-.79-.45-1.36-.38.47-.88.91-1.48,1.34-.6.43-1.25.78-1.95,1.06-.7.28-1.41.45-2.13.51Z" style="fill:#0c566d;"/><path d="m446.9,64.26c-.3.03-.57.01-.8-.06-.23-.07-.39-.22-.49-.47-2.07-5.26-4.11-10.52-6.12-15.79-.03-.07-.06-.15-.09-.25-.03-.1-.05-.18-.06-.25-.02-.18.06-.32.22-.41.16-.09.42-.16.76-.19.07,0,.14-.01.21-.02.25-.02.48,0,.68.06.2.06.33.17.4.32,1.84,5.1,3.69,10.19,5.58,15.28.05,0,.09,0,.14-.01.83-5.36,1.63-10.71,2.4-16.07.03-.19.13-.32.31-.41.18-.09.41-.15.71-.18.09,0,.18-.02.28-.03.25-.03.48-.02.68.03.2.05.34.17.4.37,1.88,5.07,3.79,10.13,5.73,15.18.05,0,.09-.01.14-.02.78-5.37,1.54-10.74,2.28-16.11.03-.19.13-.32.3-.41.18-.09.4-.15.67-.18.06,0,.11-.01.17-.02.32-.04.56-.03.72.04.16.06.25.17.26.33,0,.07,0,.15,0,.26-.01.1-.02.2-.03.3-.89,5.57-1.8,11.15-2.74,16.72-.04.26-.16.44-.36.55-.2.11-.45.19-.76.22-.29.03-.58.07-.88.1-.3.03-.57.02-.8-.05-.23-.07-.4-.22-.49-.46-1.69-4.46-3.37-8.92-5.02-13.38-.05,0-.09,0-.14.01-.71,4.71-1.45,9.43-2.2,14.14-.04.28-.17.47-.37.57-.2.1-.47.17-.79.2-.29.03-.59.06-.88.09Z" style="fill:#0c566d;"/><path d="m467.89,41.43c-.43.05-.74.04-.93-.04-.18-.08-.29-.22-.31-.43-.1-.77-.19-1.53-.29-2.3-.02-.18.05-.34.2-.47.16-.13.45-.23.88-.28.41-.05.71-.04.89.04.18.08.29.22.31.42.1.77.19,1.53.29,2.3.02.18-.04.34-.2.47-.16.13-.44.23-.85.28Zm2.39,20.21c-.37.05-.64.03-.81-.05-.16-.08-.26-.23-.28-.43-.69-5.54-1.38-11.07-2.06-16.61-.03-.2.03-.36.17-.48.14-.12.39-.2.75-.25.09-.01.18-.02.27-.03.37-.05.63-.03.79.05.16.08.26.23.28.43.7,5.53,1.4,11.07,2.11,16.6.03.2-.03.36-.17.49-.14.12-.4.2-.77.25-.09.01-.19.02-.28.04Z" style="fill:#0c566d;"/><path d="m479.57,60.43c-.37.05-.64.04-.81-.05-.17-.08-.26-.22-.29-.43-.54-4.02-1.08-8.04-1.63-12.06-.14-1.06-.28-1.88-.42-2.47-.14-.59-.26-1.03-.35-1.33-.1-.3-.16-.51-.17-.65-.01-.09.03-.17.12-.26.09-.08.21-.15.35-.22.14-.06.3-.12.47-.17.17-.05.31-.08.42-.09.18-.02.33.01.43.11.11.1.23.3.36.6.13.3.3.75.5,1.34.35-.51.8-.98,1.36-1.43.56-.44,1.16-.83,1.81-1.15.65-.32,1.33-.54,2.04-.64,1.12-.16,2.09-.1,2.93.19.84.29,1.52.77,2.04,1.45.52.68.87,1.56,1.03,2.64.61,4.08,1.23,8.16,1.84,12.24.03.2-.02.36-.16.49-.14.12-.39.21-.76.27-.08.01-.16.02-.25.04-.37.06-.64.04-.81-.04-.17-.08-.26-.22-.29-.42-.6-4.04-1.19-8.07-1.79-12.11-.16-1.08-.58-1.85-1.27-2.33-.69-.47-1.62-.63-2.78-.46-.6.09-1.18.27-1.74.54-.57.28-1.09.62-1.57,1.05-.48.42-.88.91-1.2,1.46.6,4.36,1.2,8.71,1.8,13.07.03.2-.03.36-.16.49-.14.12-.39.21-.77.26-.09.01-.19.03-.28.04Z" style="fill:#0c566d;"/><path d="m504.56,63.92c-1.41.23-2.66.28-3.75.16-1.09-.13-1.96-.46-2.61-1-.65-.54-1.05-1.31-1.2-2.3-.11-.7-.06-1.36.14-1.99.2-.63.51-1.21.93-1.73.42-.53.89-.96,1.4-1.29,0-.02.02-.05.02-.07-.49-.22-.91-.53-1.27-.94-.36-.4-.59-.9-.68-1.48-.11-.7-.02-1.34.27-1.92.29-.59.75-1.09,1.39-1.52-1.08-.24-1.96-.74-2.63-1.5-.67-.76-1.09-1.67-1.26-2.75-.18-1.12-.08-2.14.28-3.05.36-.91.98-1.68,1.86-2.32.88-.64,2.01-1.07,3.4-1.3.32-.05.64-.09.95-.1.31-.02.61-.02.9,0,2-.33,4.01-.67,6.01-1.02.21-.04.37,0,.48.11.11.11.19.29.24.56.02.11.04.22.06.34.09.51-.06.81-.45.87-.27.05-.59.1-.94.15-.36.05-.72.09-1.09.12-.37.03-.71.04-1.02.02,0,.02-.02.05-.02.07.36.19.68.44.97.75.29.31.54.67.75,1.1.21.42.38.95.48,1.58.18,1.03.08,1.99-.28,2.88-.37.89-1,1.65-1.91,2.26-.9.61-2.08,1.04-3.54,1.28-.69.11-1.27.3-1.74.54-.47.25-.81.56-1.01.92-.2.37-.27.79-.19,1.26.08.52.29.9.61,1.15.32.25.75.41,1.27.48.52.08,1.11.1,1.76.07.65-.03,1.33-.05,2.04-.08,1.25-.07,2.33-.02,3.23.15.9.17,1.61.51,2.15,1.02.53.51.88,1.24,1.05,2.21.18,1.05.05,2-.41,2.84-.46.84-1.24,1.56-2.34,2.15-1.11.59-2.54,1.03-4.3,1.32Zm.06-1.84c1.83-.3,3.13-.78,3.93-1.43.79-.65,1.09-1.51.91-2.56-.1-.61-.34-1.05-.71-1.35-.37-.29-.85-.48-1.42-.55-.57-.08-1.21-.1-1.89-.06-.69.03-1.4.07-2.13.11-.73.04-1.44.02-2.12-.05-.69.46-1.25,1.01-1.69,1.65-.43.64-.58,1.39-.45,2.25.1.65.37,1.16.8,1.51.43.36,1.03.58,1.81.66.78.08,1.77.03,2.96-.17Zm-2.3-13.99c.87-.14,1.61-.39,2.22-.75.6-.35,1.04-.82,1.31-1.4.27-.58.33-1.28.19-2.11-.15-.9-.45-1.59-.9-2.09-.45-.5-1.01-.83-1.7-.98-.68-.15-1.46-.16-2.32-.01-.87.14-1.61.4-2.21.76-.61.36-1.05.85-1.31,1.47-.27.62-.33,1.38-.18,2.27.2,1.26.74,2.1,1.62,2.52.88.42,1.98.53,3.29.31Z" style="fill:#0c566d;"/></svg>