<?xml version="1.0" encoding="UTF-8"?><svg id="Layer_1" xmlns="http://www.w3.org/2000/svg" viewBox="0 0 718 90"><path d="m224.99,54.25c-3.3.54-5.99-.06-8.07-1.82-2.09-1.75-3.48-4.58-4.17-8.5-.69-3.94-.33-7.06,1.11-9.36,1.43-2.3,3.85-3.73,7.25-4.28,3.42-.55,6.18.04,8.27,1.77,2.08,1.73,3.41,4.58,4,8.53.59,3.93.16,7.06-1.27,9.38-1.43,2.32-3.79,3.74-7.12,4.28Zm-.33-2.02c2.56-.41,4.36-1.57,5.43-3.48,1.06-1.91,1.35-4.51.85-7.79-.5-3.28-1.55-5.65-3.16-7.1-1.61-1.45-3.73-1.97-6.35-1.55-2.6.42-4.43,1.58-5.5,3.47-1.07,1.89-1.32,4.47-.76,7.74.56,3.27,1.65,5.64,3.27,7.12,1.62,1.48,3.68,2.01,6.22,1.6Z" style="fill:#0c566d;"/><path d="m241.91,51.55c-.37.05-.63.04-.79-.04-.16-.08-.26-.22-.29-.42-.57-4.02-1.14-8.03-1.72-12.05-.15-1.06-.3-1.88-.44-2.47-.14-.59-.27-1.03-.37-1.32-.1-.3-.16-.51-.18-.65-.01-.09.03-.18.12-.26.1-.08.22-.16.36-.22.15-.07.3-.12.48-.17.17-.05.32-.08.43-.1.19-.03.33,0,.44.11.11.1.23.3.37.6.14.3.31.75.51,1.34.36-.51.82-.99,1.39-1.43.57-.44,1.19-.83,1.86-1.15.67-.32,1.37-.53,2.09-.63,1.14-.15,2.14-.08,2.99.23.85.3,1.53.8,2.04,1.49.51.69.84,1.58.98,2.66.52,4.09,1.04,8.18,1.55,12.28.03.2-.03.36-.17.48-.14.12-.39.2-.75.25-.08.01-.16.02-.24.03-.37.05-.63.03-.79-.05-.16-.08-.26-.22-.28-.43-.52-4.05-1.05-8.09-1.57-12.14-.14-1.08-.56-1.86-1.24-2.35-.69-.48-1.63-.65-2.82-.49-.61.08-1.2.26-1.78.53-.58.27-1.11.62-1.6,1.04-.49.42-.89.91-1.22,1.46.61,4.36,1.22,8.71,1.82,13.07.03.2-.02.36-.16.49-.14.12-.38.21-.75.26-.09.01-.18.03-.27.04Z" style="fill:#0c566d;"/><path d="m265.14,48.74c-1.35.15-2.54-.06-3.59-.63-1.04-.58-1.89-1.5-2.55-2.79-.65-1.28-1.1-2.89-1.33-4.83-.22-1.85-.15-3.49.22-4.92.37-1.43,1.02-2.58,1.93-3.44.92-.86,2.09-1.38,3.52-1.54.91-.1,1.83-.05,2.75.16.92.21,1.74.55,2.45,1.02-.31-2.89-.62-5.78-.93-8.68-.02-.2.05-.37.22-.49.17-.12.44-.2.82-.24.06,0,.12-.01.18-.02.35-.04.62-.01.81.07.19.08.29.23.31.43.69,6.6,1.37,13.2,2.06,19.8.1.95.21,1.73.33,2.35.12.62.23,1.09.32,1.42.09.33.15.57.16.7,0,.09-.03.18-.11.27-.08.09-.19.16-.32.22-.13.06-.28.11-.44.15-.16.04-.31.07-.44.08-.21.02-.37-.02-.48-.12-.11-.1-.23-.32-.35-.65-.12-.33-.28-.78-.48-1.35-.45.57-.96,1.08-1.52,1.52-.57.44-1.16.78-1.77,1.03-.61.25-1.2.41-1.77.47Zm.37-1.96c.85-.1,1.64-.39,2.39-.9.75-.5,1.39-1.13,1.94-1.87-.36-3.36-.72-6.71-1.07-10.07-.75-.61-1.54-1.03-2.39-1.29-.84-.25-1.67-.33-2.49-.24-1.52.17-2.62.93-3.3,2.28-.68,1.35-.88,3.19-.61,5.51.28,2.39.91,4.13,1.87,5.2.96,1.08,2.18,1.53,3.65,1.37Z" style="fill:#0c566d;"/><path d="m286.11,46.64c-2.57.23-4.6-.3-6.1-1.6-1.5-1.3-2.41-3.51-2.72-6.66-.19-1.99-.06-3.69.4-5.11.46-1.41,1.25-2.53,2.35-3.34,1.11-.81,2.52-1.29,4.23-1.44,1.52-.13,2.83.09,3.91.67,1.09.58,1.94,1.51,2.57,2.76.63,1.26,1.02,2.85,1.17,4.78.01.16-.02.33-.1.52-.08.19-.19.35-.35.49-.15.14-.32.21-.51.23-3.77.3-7.53.63-11.29.99.22,2.08.84,3.61,1.86,4.58,1.02.98,2.49,1.38,4.42,1.21,1.15-.1,2.09-.31,2.81-.62.73-.31,1.29-.61,1.68-.91.39-.29.65-.45.76-.46.14-.01.26.05.36.19.1.14.2.3.28.49.09.19.13.34.14.45.02.2-.13.44-.43.72-.3.28-.72.55-1.25.84-.53.28-1.16.54-1.88.76-.72.22-1.51.37-2.35.44Zm-6.59-9.56c3.36-.32,6.73-.62,10.1-.89-.17-2.06-.72-3.58-1.66-4.55-.94-.97-2.2-1.39-3.76-1.25-1.12.1-2.05.43-2.79.99-.74.56-1.26,1.31-1.57,2.27-.31.95-.41,2.1-.31,3.44Z" style="fill:#0c566d;"/><path d="m299.01,45.47c-.34.02-.61,0-.79-.1-.18-.09-.28-.24-.29-.44-.3-4.05-.59-8.09-.89-12.14-.08-1.07-.17-1.9-.27-2.49-.1-.6-.19-1.05-.27-1.35-.08-.3-.13-.52-.14-.66,0-.09.04-.17.14-.25.1-.08.22-.14.37-.2.15-.06.31-.1.48-.14.18-.04.32-.06.44-.07.19-.01.34.03.45.14.11.11.23.33.35.66.12.33.25.8.38,1.41.33-.57.73-1.06,1.17-1.47.44-.41.94-.73,1.49-.96.55-.23,1.13-.37,1.74-.41.49-.03.91.03,1.27.17.35.15.54.36.55.63.01.18,0,.36-.02.53-.02.17-.06.33-.11.47-.05.14-.11.25-.17.34-.07.08-.15.13-.24.13-.12,0-.34-.03-.68-.11-.33-.08-.76-.1-1.27-.07-.84.06-1.57.35-2.18.88-.61.53-1.02,1.15-1.23,1.85.3,4.31.61,8.61.91,12.92.01.2-.06.36-.23.48-.17.11-.43.18-.8.21-.06,0-.11,0-.17.01Z" style="fill:#0c566d;"/><path d="m314.34,44.51c-.3.02-.56-.02-.78-.09-.22-.08-.38-.24-.46-.49-1.82-5.34-3.66-10.67-5.54-16-.03-.07-.06-.15-.09-.25-.03-.1-.05-.18-.05-.25-.01-.18.07-.32.24-.41.17-.09.43-.15.79-.17.07,0,.14,0,.21-.01.26-.02.49.01.69.08.2.07.33.18.39.34,1.68,5.16,3.33,10.33,4.95,15.5.05,0,.09,0,.14,0,1.05-5.31,2.12-10.62,3.21-15.93.04-.18.15-.31.33-.39.18-.08.43-.12.73-.14.09,0,.19,0,.28-.01.26-.01.49.01.69.07.2.06.33.19.39.39,1.6,5.17,3.17,10.35,4.72,15.52.05,0,.09,0,.14,0,1.13-5.3,2.29-10.6,3.48-15.89.04-.18.15-.31.34-.39.19-.07.42-.12.7-.13.06,0,.12,0,.18,0,.33-.01.57.02.73.09.16.07.24.19.24.35,0,.07,0,.15-.03.26-.02.1-.04.2-.06.29-1.38,5.48-2.73,10.96-4.05,16.45-.06.25-.19.43-.39.53-.2.1-.46.15-.75.17-.29.01-.58.02-.86.04-.3.01-.56-.02-.78-.1-.22-.08-.37-.25-.45-.49-1.37-4.56-2.76-9.11-4.17-13.67-.05,0-.09,0-.14,0-1,4.67-1.98,9.33-2.94,14-.05.27-.18.46-.39.55-.2.09-.46.14-.79.16-.29.02-.57.03-.86.05Z" style="fill:#0c566d;"/><path d="m336.95,23.24c-.45.01-.76-.03-.94-.13-.18-.1-.27-.25-.28-.45-.02-.77-.04-1.54-.06-2.32,0-.18.08-.33.25-.45.17-.12.49-.18.94-.2.43-.01.73.03.91.13.18.1.27.25.28.45.02.77.04,1.54.06,2.32,0,.18-.08.33-.25.45-.17.12-.47.18-.9.19Zm.4,20.35c-.37,0-.63-.03-.78-.13-.15-.1-.23-.25-.24-.45-.15-5.58-.31-11.15-.46-16.73,0-.2.07-.36.22-.47.15-.11.41-.16.79-.17.09,0,.19,0,.28,0,.38,0,.64.03.8.13.16.1.23.25.24.45.14,5.58.28,11.15.42,16.73,0,.2-.06.36-.21.47-.15.11-.4.16-.77.17-.09,0-.18,0-.28,0Z" style="fill:#0c566d;"/><path d="m344.34,50.59c-.37,0-.75-.03-1.17-.11-.41-.08-.77-.19-1.07-.34-.3-.14-.45-.31-.46-.52,0-.07,0-.17.01-.31,0-.14.03-.28.06-.43.03-.15.08-.28.15-.39.07-.12.13-.17.2-.18.18,0,.41.05.69.17.28.12.7.17,1.27.16.71-.01,1.2-.2,1.48-.55.28-.36.41-1.01.4-1.97-.11-6.69-.22-13.38-.33-20.07,0-.2.07-.36.22-.46.15-.11.41-.16.79-.17.09,0,.19,0,.28,0,.38,0,.64.04.79.14.15.1.23.25.24.46.09,6.69.18,13.38.27,20.08.01,1-.12,1.83-.41,2.49-.29.66-.71,1.16-1.28,1.49-.56.33-1.28.5-2.15.51Zm2.32-27.55c-.45,0-.76-.04-.94-.14-.18-.1-.27-.25-.27-.46-.01-.77-.03-1.54-.04-2.32,0-.18.08-.33.26-.45.18-.12.49-.18.94-.18.43,0,.73.04.91.14.18.1.27.25.27.46.01.77.02,1.54.03,2.32,0,.18-.08.33-.26.45-.17.12-.47.18-.9.18Z" style="fill:#0c566d;"/><path d="m358.32,43.53c-.73,0-1.41-.07-2.04-.2-.62-.13-1.16-.3-1.62-.49-.46-.19-.83-.39-1.09-.59-.27-.2-.4-.38-.4-.54,0-.11.05-.27.15-.48.1-.21.22-.39.36-.57.14-.17.26-.26.38-.26.11,0,.35.1.69.3.35.2.82.4,1.42.61.6.2,1.29.3,2.08.3,1.2,0,2.11-.26,2.75-.77.64-.51.95-1.22.96-2.13,0-.77-.16-1.39-.5-1.84-.34-.46-.79-.83-1.36-1.13-.57-.3-1.2-.57-1.9-.82-.58-.2-1.15-.43-1.69-.68-.55-.25-1.04-.56-1.49-.93-.45-.37-.8-.83-1.06-1.37-.26-.54-.39-1.21-.4-2.01,0-.95.23-1.79.7-2.51.48-.72,1.14-1.28,2-1.68.86-.4,1.85-.6,2.98-.6.54,0,1.05.03,1.53.1.48.07.92.16,1.3.28.39.11.7.25.93.39.23.15.35.29.35.43,0,.14-.05.32-.14.55-.09.23-.21.42-.34.6-.13.17-.25.25-.37.25-.09,0-.42-.12-.98-.36-.56-.24-1.29-.36-2.18-.36-1.06,0-1.91.24-2.55.7-.64.47-.96,1.13-.96,2,0,.57.13,1.03.37,1.4.25.36.61.67,1.09.93.48.26,1.06.51,1.73.76.75.27,1.43.57,2.04.89.62.32,1.16.7,1.64,1.13.48.43.84.95,1.09,1.54.25.59.38,1.3.37,2.12,0,1-.26,1.87-.76,2.62-.5.75-1.19,1.34-2.06,1.77-.88.43-1.89.64-3.04.65Z" style="fill:#0c566d;"/><path d="m367.22,47.21c-.14,0-.28-.04-.43-.12-.15-.08-.22-.19-.22-.33,0-.11.08-.28.23-.49.15-.21.32-.54.51-.97.14-.32.27-.68.39-1.1.12-.42.22-.94.31-1.57.09-.62.14-1.4.14-2.33,0-.27.09-.46.25-.56.16-.1.42-.15.76-.15.13,0,.25,0,.38,0,.35,0,.6.06.76.16.16.1.24.29.23.57-.01,1.02-.14,1.96-.38,2.81-.24.85-.54,1.58-.89,2.19-.35.61-.71,1.08-1.06,1.4-.36.33-.69.49-.98.48Z" style="fill:#0c566d;"/><path d="m388.89,43.8c-.3-.01-.56-.07-.77-.16-.22-.1-.36-.27-.45-.53-1.64-5.5-3.31-11-5.02-16.49-.02-.05-.04-.12-.06-.22-.02-.1-.03-.19-.03-.26,0-.18.1-.31.27-.39.18-.07.45-.11.8-.1.11,0,.21,0,.32,0,.26,0,.48.05.67.12.19.07.31.2.38.39,1.49,5.3,2.95,10.6,4.37,15.9.05,0,.09,0,.14,0,1.8-5.19,3.63-10.37,5.49-15.55.05-.18.18-.3.37-.36.19-.06.43-.08.71-.07.08,0,.17,0,.25.01.33.01.57.06.72.15.15.09.22.22.21.4,0,.07-.01.15-.03.24-.02.09-.05.18-.1.27-2.09,5.35-4.15,10.7-6.17,16.06-.08.25-.23.41-.45.49-.22.08-.49.12-.82.11-.26,0-.53-.02-.79-.03Z" style="fill:#0c566d;"/><path d="m407.16,44.77c-2.5-.14-4.37-1.01-5.61-2.62-1.24-1.61-1.79-3.88-1.65-6.8.14-2.97.92-5.22,2.34-6.73,1.42-1.51,3.41-2.2,5.95-2.06,2.51.14,4.38,1.05,5.61,2.71,1.22,1.66,1.73,3.98,1.54,6.95-.19,2.95-.99,5.14-2.38,6.59-1.39,1.45-3.32,2.1-5.8,1.96Zm.04-1.91c1.84.1,3.23-.4,4.17-1.53.94-1.13,1.49-2.9,1.64-5.33.15-2.43-.17-4.26-.97-5.51-.8-1.24-2.14-1.92-4.02-2.03-1.85-.1-3.25.42-4.18,1.55-.94,1.13-1.47,2.93-1.59,5.38-.12,2.43.22,4.25,1.01,5.48.79,1.22,2.11,1.88,3.95,1.99Z" style="fill:#0c566d;"/><path d="m421.39,45.56c-.35-.03-.6-.1-.76-.21-.16-.11-.24-.27-.23-.48.29-4.05.59-8.09.88-12.14.08-1.07.11-1.9.09-2.51-.01-.6-.04-1.06-.08-1.37-.04-.31-.05-.53-.04-.67,0-.09.07-.17.18-.23.11-.06.24-.11.4-.14.15-.03.32-.06.5-.07.18,0,.32-.01.44,0,.19.01.33.08.43.2.1.12.18.35.25.7.07.35.13.83.17,1.45.41-.52.87-.94,1.37-1.28.5-.34,1.03-.58,1.61-.73.58-.15,1.17-.2,1.78-.15.49.04.9.16,1.23.36.33.2.48.43.45.7-.01.18-.05.35-.1.52-.05.17-.11.32-.18.45-.07.13-.14.23-.22.31-.08.07-.16.11-.26.1-.12,0-.33-.08-.65-.21-.32-.13-.74-.21-1.25-.25-.84-.07-1.6.12-2.28.56-.68.44-1.17.99-1.48,1.65-.32,4.31-.65,8.61-.97,12.92-.02.2-.11.35-.29.44-.18.09-.45.12-.82.09-.06,0-.12,0-.17-.01Z" style="fill:#0c566d;"/><path d="m433.96,46.58c-.37-.03-.62-.11-.76-.22-.14-.12-.2-.27-.18-.48.35-4.04.71-8.08,1.06-12.12.09-1.06.14-1.9.13-2.5,0-.6-.02-1.06-.06-1.37-.03-.31-.04-.53-.03-.67,0-.09.07-.16.18-.22.11-.06.24-.1.4-.14.16-.03.32-.05.5-.06.18,0,.33,0,.44,0,.19.02.32.09.41.21.08.12.16.35.22.67.07.33.13.8.19,1.42.46-.42,1-.78,1.62-1.09.62-.31,1.29-.54,2.01-.7.72-.16,1.44-.21,2.14-.14.7.07,1.36.22,1.96.47.6.24,1.12.59,1.56,1.03.44.44.77,1.01.98,1.69.47-.48,1.05-.89,1.72-1.23.67-.34,1.39-.59,2.14-.75.75-.16,1.48-.2,2.18-.13,1.1.12,2.01.43,2.74.92.73.49,1.25,1.14,1.57,1.93.32.79.42,1.73.3,2.81-.47,4.1-.94,8.2-1.42,12.29-.02.2-.12.35-.27.43-.16.08-.43.11-.79.06-.08,0-.16-.02-.24-.03-.37-.04-.62-.12-.76-.24-.14-.12-.19-.28-.17-.48.46-4.05.91-8.11,1.37-12.16.12-1.08-.08-1.94-.6-2.57-.52-.63-1.35-1.01-2.5-1.13-.56-.06-1.11-.04-1.65.06-.54.1-1.05.27-1.52.49-.47.22-.89.47-1.24.74-.36.27-.64.53-.86.79.02-.34.05-.68.07-1.02.09.21.15.47.15.75,0,.29,0,.58-.04.87-.42,4.1-.84,8.21-1.26,12.31-.02.2-.11.35-.27.43-.16.09-.42.11-.79.07-.09,0-.18-.02-.28-.03-.37-.04-.62-.11-.76-.23-.14-.12-.2-.28-.18-.48.41-4.06.81-8.12,1.22-12.18.11-1.09-.1-1.94-.63-2.56-.53-.62-1.37-.99-2.51-1.1-.56-.05-1.14-.01-1.75.13-.6.14-1.19.36-1.76.66-.57.3-1.06.67-1.48,1.11-.4,4.39-.79,8.78-1.19,13.17-.02.2-.11.35-.26.44-.16.09-.42.12-.79.08-.09,0-.18-.02-.28-.02Z" style="fill:#0c566d;"/><path d="m465.74,29.5c-.45-.06-.75-.15-.91-.27-.16-.12-.23-.29-.21-.49.09-.77.19-1.53.28-2.3.02-.18.13-.32.32-.41.19-.09.51-.11.96-.05.42.05.72.14.88.26.16.12.23.29.21.49-.1.77-.19,1.53-.29,2.3-.02.18-.13.32-.32.41-.19.09-.5.11-.92.06Zm-2.64,20.18c-.37-.05-.62-.13-.75-.25-.14-.12-.19-.28-.17-.48.68-5.54,1.36-11.08,2.04-16.61.03-.2.12-.35.28-.43.16-.08.43-.1.81-.05.09.01.19.02.28.03.37.05.63.13.77.25.14.12.19.28.17.48-.69,5.54-1.39,11.07-2.08,16.61-.02.2-.12.35-.28.43-.16.08-.43.1-.79.06-.09-.01-.18-.02-.27-.03Z" style="fill:#0c566d;"/><path d="m472.18,50.86c-.36-.05-.62-.14-.75-.26-.14-.12-.19-.28-.16-.49.54-4.02,1.08-8.04,1.61-12.06.14-1.06.22-1.89.24-2.5.02-.6.02-1.06,0-1.37-.02-.31-.02-.54,0-.67.01-.09.07-.16.19-.22.11-.05.25-.09.41-.12.16-.02.33-.04.5-.03.18,0,.33,0,.44.03.19.03.32.1.4.23.08.13.14.35.19.68.05.33.09.8.13,1.43.48-.39,1.05-.73,1.72-1,.67-.27,1.37-.48,2.1-.6.73-.13,1.46-.14,2.18-.04,1.14.16,2.08.51,2.81,1.03.73.52,1.25,1.18,1.56,1.99.31.8.38,1.75.22,2.82-.61,4.08-1.22,8.16-1.83,12.24-.03.2-.13.34-.29.42-.16.08-.43.09-.79.04-.08-.01-.16-.02-.24-.04-.36-.05-.61-.14-.75-.27-.13-.12-.19-.29-.16-.49.59-4.04,1.18-8.07,1.78-12.11.16-1.08-.03-1.94-.56-2.6-.53-.65-1.39-1.06-2.58-1.23-.6-.09-1.22-.08-1.86.03-.63.11-1.24.3-1.82.57-.58.28-1.11.63-1.57,1.07-.59,4.36-1.19,8.71-1.78,13.07-.03.2-.12.34-.28.43-.16.08-.43.1-.79.05-.09-.01-.18-.02-.27-.04Z" style="fill:#0c566d;"/><path d="m494.37,61.41c-1.36-.22-2.51-.56-3.47-1.01-.96-.45-1.66-1.03-2.09-1.74-.44-.71-.58-1.56-.42-2.55.11-.7.35-1.31.73-1.85.38-.54.84-1,1.39-1.37.55-.37,1.12-.64,1.71-.8.02-.02.03-.04.05-.06-.39-.36-.69-.79-.9-1.28-.22-.49-.28-1.03-.18-1.62.11-.7.39-1.28.84-1.75.45-.47,1.05-.81,1.79-1.01-.95-.57-1.63-1.31-2.03-2.24-.41-.93-.53-1.93-.36-3.01.18-1.12.58-2.06,1.21-2.81.63-.75,1.47-1.29,2.52-1.62,1.06-.33,2.29-.37,3.71-.14.32.05.64.12.95.21.31.09.6.18.87.3,2.05.34,4.09.69,6.14,1.04.21.04.35.12.42.26.07.14.08.34.04.61-.02.11-.04.22-.06.34-.09.51-.33.74-.73.67-.28-.05-.6-.11-.95-.18-.36-.07-.72-.16-1.08-.26-.36-.1-.69-.2-.98-.32-.02.02-.03.04-.05.06.28.3.51.65.68,1.03.17.39.29.82.35,1.29.06.47.04,1.02-.07,1.65-.18,1.03-.59,1.9-1.23,2.62-.64.72-1.49,1.22-2.54,1.5-1.05.28-2.3.31-3.75.07-.69-.11-1.29-.12-1.81-.04-.52.09-.93.28-1.24.56-.3.29-.5.66-.57,1.13-.08.52,0,.94.22,1.28.23.34.57.62,1.04.86.47.24,1.01.45,1.62.63.61.18,1.26.37,1.93.58,1.19.34,2.17.73,2.95,1.19.78.46,1.33,1.01,1.65,1.67.32.65.4,1.46.23,2.43-.18,1.05-.62,1.9-1.31,2.54-.69.64-1.64,1.06-2.83,1.26-1.2.2-2.64.16-4.33-.12Zm.63-1.73c1.76.29,3.11.26,4.05-.1.93-.36,1.49-1.07,1.67-2.12.1-.61.03-1.11-.22-1.51-.25-.4-.63-.73-1.13-.99-.51-.26-1.08-.48-1.73-.67-.65-.19-1.32-.38-2.01-.57-.69-.19-1.35-.43-1.96-.71-.78.22-1.48.57-2.08,1.05-.6.48-.97,1.15-1.1,2-.1.65-.01,1.21.27,1.68.29.47.77.86,1.47,1.18.69.32,1.62.57,2.77.76Zm2.3-13.99c.87.14,1.65.15,2.34,0,.69-.14,1.25-.44,1.7-.89.44-.45.74-1.1.88-1.93.15-.9.09-1.65-.17-2.28-.26-.62-.7-1.11-1.31-1.48-.61-.37-1.35-.62-2.23-.77-.88-.14-1.68-.14-2.38.01-.7.15-1.28.48-1.73.98-.45.5-.74,1.21-.89,2.1-.2,1.26.05,2.22.76,2.9.71.68,1.72,1.12,3.03,1.34Z" style="fill:#0c566d;"/></svg>