<?xml version="1.0" encoding="UTF-8"?><svg id="Layer_1" xmlns="http://www.w3.org/2000/svg" viewBox="0 0 718 90"><path d="m317.67,57.18c-3.59-.49-6.17-1.96-7.68-4.31-1.52-2.36-1.91-5.5-1.22-9.42.69-3.94,2.1-6.75,4.17-8.45,2.07-1.71,4.73-2.31,8.03-1.85,3.32.46,5.73,1.75,7.26,3.95,1.53,2.2,2.13,5.28,1.73,9.26-.39,3.96-1.61,6.88-3.71,8.74-2.09,1.86-4.98,2.58-8.59,2.08Zm.28-2.03c2.75.38,4.96-.23,6.57-1.78,1.62-1.55,2.59-3.99,2.94-7.28.36-3.3-.06-5.86-1.21-7.68-1.15-1.83-3-2.89-5.57-3.25-2.55-.35-4.6.18-6.2,1.63-1.6,1.45-2.69,3.8-3.23,7.07-.54,3.27-.27,5.88.88,7.81,1.14,1.93,3.09,3.1,5.82,3.48Z" style="fill:#0c566d;"/><path d="m336.1,59.01c-.4-.03-.67-.1-.83-.22-.15-.12-.22-.27-.21-.48.32-4.04.64-8.09.96-12.13.08-1.06.12-1.9.11-2.51-.01-.6-.03-1.06-.07-1.37-.03-.31-.04-.53-.03-.67,0-.09.07-.16.18-.22.11-.06.24-.11.4-.14.16-.03.32-.05.5-.06.18,0,.33,0,.44,0,.19.01.32.08.41.2.09.12.16.34.23.67.07.32.14.8.22,1.42.46-.42,1.01-.79,1.66-1.12.65-.32,1.33-.57,2.04-.76.72-.18,1.44-.26,2.16-.22,1.15.06,2.11.31,2.89.75.78.44,1.37,1.04,1.77,1.81.4.76.58,1.69.55,2.78-.14,4.12-.28,8.24-.41,12.37,0,.2-.09.35-.26.45-.17.1-.45.14-.85.12-.09,0-.17,0-.26,0-.4-.02-.68-.08-.83-.19-.16-.11-.23-.27-.22-.47.17-4.08.34-8.15.51-12.23.05-1.09-.24-1.93-.84-2.53-.6-.6-1.5-.92-2.7-.99-.61-.03-1.23.03-1.85.18-.63.16-1.22.39-1.79.71-.57.32-1.07.71-1.51,1.18-.31,4.39-.63,8.77-.94,13.16-.01.2-.11.35-.28.44-.17.09-.45.12-.85.09-.1,0-.2-.01-.3-.02Z" style="fill:#0c566d;"/><path d="m359.91,60.02c-.95,0-1.73-.15-2.35-.46-.62-.31-1.09-.77-1.4-1.39-.32-.62-.47-1.38-.46-2.29.08-7.03.16-14.07.25-21.1,0-.21.08-.36.23-.46.15-.1.41-.15.77-.15.08,0,.16,0,.24,0,.36,0,.62.05.77.16.15.1.22.26.22.46-.03,7-.05,14-.08,21,0,.89.16,1.49.48,1.81.32.32.87.48,1.63.48.62,0,1.08-.07,1.37-.2.3-.13.53-.19.7-.19.1,0,.18.05.24.17.06.11.11.24.15.39.04.15.07.29.08.42.01.14.02.24.02.31,0,.2-.16.38-.48.53-.32.15-.71.27-1.15.37-.45.09-.86.14-1.23.14Z" style="fill:#0c566d;"/><path d="m367.54,39.42c-.44.01-.75-.03-.93-.13-.18-.1-.27-.25-.27-.45-.02-.77-.04-1.54-.06-2.32,0-.18.08-.33.25-.45.17-.12.47-.18.91-.19.41-.01.71.03.88.13.18.1.27.25.27.45.03.77.05,1.54.08,2.32,0,.18-.08.33-.25.45-.17.12-.47.19-.88.2Zm.44,20.35c-.4.01-.68-.03-.84-.13-.17-.1-.25-.25-.25-.45-.14-5.58-.28-11.15-.42-16.73,0-.2.07-.36.22-.47.15-.11.41-.16.79-.17.09,0,.19,0,.28,0,.37-.01.64.03.8.13.16.1.24.25.24.45.18,5.58.37,11.15.55,16.73,0,.2-.07.36-.23.47-.16.11-.44.17-.84.18-.1,0-.2,0-.3,0Z" style="fill:#0c566d;"/><path d="m377.87,59.32c-.4.02-.68-.01-.85-.1-.17-.09-.26-.24-.27-.45-.23-4.05-.47-8.1-.7-12.15-.06-1.07-.14-1.9-.23-2.5-.09-.6-.18-1.05-.25-1.35-.08-.3-.12-.52-.13-.66,0-.09.04-.17.14-.25.1-.07.23-.14.38-.19.15-.05.31-.1.49-.13.17-.03.32-.05.44-.06.19-.01.33.04.43.14.1.11.21.32.32.63.11.31.25.77.41,1.37.4-.48.89-.92,1.49-1.33.6-.41,1.24-.75,1.92-1.03.68-.28,1.39-.45,2.11-.51,1.14-.1,2.13.02,2.97.35.83.33,1.5.85,2,1.55.5.7.81,1.6.92,2.68.43,4.1.85,8.21,1.28,12.31.02.2-.04.36-.19.48-.15.12-.42.2-.82.24-.09,0-.17.02-.26.03-.4.04-.68.02-.85-.07-.17-.09-.27-.23-.29-.43-.39-4.06-.78-8.12-1.17-12.18-.1-1.09-.5-1.88-1.17-2.39-.68-.51-1.61-.71-2.81-.61-.61.05-1.22.2-1.81.44-.6.24-1.16.55-1.67.94-.52.39-.96.85-1.34,1.37.29,4.39.58,8.78.86,13.16.01.2-.06.36-.21.47-.16.11-.43.18-.83.21-.1,0-.2.01-.3.02Z" style="fill:#0c566d;"/><path d="m404.74,56.62c-2.77.42-4.99,0-6.64-1.24-1.65-1.23-2.65-3.42-3.03-6.56-.24-1.98-.14-3.69.29-5.12.43-1.43,1.19-2.57,2.26-3.42,1.07-.85,2.45-1.4,4.15-1.66,1.51-.23,2.82-.1,3.96.4,1.13.49,2.07,1.34,2.82,2.53.75,1.2,1.3,2.74,1.63,4.65.03.16,0,.33-.06.53-.07.2-.17.37-.32.52-.15.15-.32.24-.51.28-3.9.67-7.8,1.25-11.72,1.76.29,2.07.99,3.57,2.12,4.5,1.12.93,2.72,1.25,4.78.94,1.23-.19,2.22-.47,2.98-.84.76-.38,1.33-.73,1.73-1.06.4-.33.65-.51.78-.53.15-.03.28.03.4.16.12.13.24.28.34.46.11.18.17.32.19.44.03.2-.1.46-.4.76-.3.31-.73.62-1.28.96-.55.33-1.21.64-1.97.93-.76.28-1.6.49-2.52.63Zm-7.39-9.19c3.47-.45,6.94-.96,10.39-1.54-.34-2.04-1.03-3.5-2.05-4.4-1.02-.89-2.31-1.22-3.88-.99-1.12.17-2.04.55-2.76,1.14-.72.59-1.22,1.37-1.5,2.34-.28.96-.35,2.11-.2,3.45Z" style="fill:#0c566d;"/></svg>