<?xml version="1.0" encoding="UTF-8"?><svg id="Layer_1" xmlns="http://www.w3.org/2000/svg" viewBox="0 0 718 90"><path d="m300.82,54.16c-.34.05-.62.04-.84-.03-.22-.07-.37-.18-.47-.33-3.93-7.02-8.02-13.99-12.26-20.9-.04-.06-.06-.12-.09-.18-.02-.05-.04-.12-.05-.18-.03-.16.04-.29.21-.4.17-.11.43-.2.79-.26.08-.01.17-.03.25-.04.31-.05.57-.06.79-.03.21.03.37.13.48.3,3.88,6.54,7.63,13.12,11.24,19.76.05,0,.09-.01.14-.02,1.52-7.39,3.18-14.77,4.97-22.15.05-.19.17-.33.35-.42.18-.09.43-.16.75-.2.06,0,.12-.01.18-.02.39-.05.67-.04.85.02.18.06.28.17.3.33,0,.07,0,.13,0,.19,0,.06-.02.13-.03.23-2.05,7.83-3.94,15.66-5.66,23.51-.04.17-.16.32-.35.45-.19.13-.45.22-.79.27-.25.04-.5.07-.75.11Z" style="fill:#0c566d;"/><path d="m316.1,52.2c-.34.04-.6.01-.78-.07-.18-.08-.28-.23-.31-.43-.45-4.03-.89-8.06-1.34-12.09-.12-1.06-.24-1.89-.37-2.48-.12-.59-.24-1.04-.33-1.34-.09-.3-.15-.52-.16-.65-.01-.09.03-.17.13-.25.1-.08.22-.15.37-.21.15-.06.31-.11.49-.16.18-.04.32-.07.44-.08.19-.02.34.02.46.12.12.1.24.32.38.65.13.33.28.79.43,1.39.32-.58.7-1.08,1.14-1.51.44-.42.93-.76,1.48-1.01.55-.25,1.14-.4,1.76-.46.5-.05.93,0,1.29.14.36.14.55.34.58.62.02.18.01.36,0,.53-.02.17-.05.33-.1.47-.05.14-.1.25-.17.34-.06.09-.14.13-.24.14-.12.01-.35-.02-.69-.09-.34-.07-.77-.08-1.29-.03-.85.08-1.58.4-2.18.95-.6.55-.99,1.18-1.18,1.89.45,4.29.9,8.59,1.35,12.88.02.2-.05.36-.21.48-.16.12-.42.2-.79.24-.06,0-.11.01-.17.02Z" style="fill:#0c566d;"/><path d="m327.15,30.75c-.46.03-.78,0-.96-.08-.19-.09-.29-.23-.31-.44-.06-.77-.12-1.54-.18-2.31-.01-.18.07-.34.24-.46.17-.13.49-.21.95-.24.43-.03.75,0,.94.08.19.09.29.23.3.44.06.77.11,1.54.17,2.31.01.18-.07.34-.24.46-.17.13-.47.21-.9.24Zm1.39,20.3c-.36.03-.63,0-.78-.09-.16-.09-.24-.24-.26-.44-.44-5.56-.87-11.12-1.31-16.69-.02-.2.05-.36.2-.48.15-.11.41-.19.79-.21.1,0,.19-.01.29-.02.38-.03.65,0,.82.09.16.09.25.24.26.44.4,5.56.81,11.13,1.21,16.69.01.2-.05.36-.19.47-.14.11-.39.18-.76.21-.09,0-.18.01-.27.02Z" style="fill:#0c566d;"/><path d="m343.25,50.36c-2.55.1-4.54-.52-5.98-1.88-1.44-1.36-2.26-3.61-2.44-6.76-.12-2,.09-3.69.61-5.09.53-1.39,1.37-2.48,2.52-3.24,1.16-.76,2.61-1.18,4.35-1.25,1.55-.06,2.86.24,3.93.87,1.07.64,1.88,1.61,2.44,2.9.56,1.29.86,2.91.9,4.84,0,.16-.04.33-.13.51-.09.18-.22.34-.37.47-.16.13-.33.2-.52.2-3.78.09-7.57.23-11.35.43.13,2.09.69,3.64,1.66,4.66.97,1.02,2.41,1.49,4.34,1.42,1.15-.04,2.09-.2,2.82-.47.74-.27,1.31-.54,1.72-.82.41-.27.67-.41.78-.41.14,0,.26.07.35.21.1.15.18.31.25.51.07.19.11.35.11.46,0,.2-.15.43-.47.69-.31.26-.74.51-1.29.76-.54.25-1.18.47-1.9.65-.72.18-1.51.29-2.35.32Zm-6.13-9.86c3.39-.18,6.78-.31,10.17-.4-.05-2.07-.52-3.61-1.42-4.63-.89-1.02-2.14-1.5-3.73-1.44-1.14.04-2.1.33-2.87.86-.77.52-1.33,1.26-1.69,2.2-.35.94-.51,2.08-.46,3.42Z" style="fill:#0c566d;"/><path d="m356.05,49.95c-.37,0-.62-.05-.77-.15-.15-.1-.22-.25-.23-.46-.03-4.06-.06-8.11-.09-12.17,0-1.07-.04-1.9-.11-2.51-.06-.6-.13-1.06-.19-1.36-.06-.31-.09-.53-.09-.66,0-.09.05-.17.16-.24.11-.07.24-.13.39-.17.15-.05.32-.08.5-.1.18-.02.33-.04.45-.04.19,0,.33.06.43.17.1.11.19.33.29.65.1.32.21.78.32,1.4.43-.46.96-.86,1.59-1.23.63-.36,1.31-.66,2.02-.88.72-.22,1.45-.33,2.19-.32,1.17.01,2.16.24,2.96.66.8.43,1.41,1.02,1.82,1.78.41.76.6,1.69.57,2.78-.11,4.12-.21,8.25-.32,12.37,0,.2-.08.36-.23.45-.15.1-.41.14-.77.13-.08,0-.16,0-.24,0-.37,0-.62-.07-.77-.17-.15-.11-.22-.26-.21-.46.08-4.08.17-8.16.25-12.23.02-1.09-.28-1.93-.89-2.51-.62-.58-1.54-.88-2.75-.89-.62,0-1.24.08-1.86.27-.62.19-1.2.46-1.75.81-.55.35-1.02.78-1.42,1.28,0,4.4.01,8.79.02,13.19,0,.2-.07.36-.22.46-.15.1-.4.15-.77.16-.09,0-.18,0-.27,0Z" style="fill:#0c566d;"/><path d="m379.2,50.67c-1.34-.07-2.48-.48-3.4-1.21-.93-.74-1.61-1.79-2.05-3.16-.44-1.37-.63-3.03-.55-4.98.07-1.86.4-3.47,1-4.82.6-1.35,1.43-2.38,2.48-3.08,1.06-.7,2.32-1.01,3.77-.93.93.05,1.84.26,2.73.62.89.36,1.64.84,2.27,1.43.2-2.9.4-5.8.6-8.71.01-.2.11-.35.3-.44.19-.09.48-.12.87-.09.06,0,.12,0,.18.01.37.03.63.1.81.21.18.11.25.27.24.48-.49,6.62-.98,13.23-1.48,19.85-.07.95-.1,1.74-.09,2.37.01.63.03,1.11.06,1.46.03.34.04.58.03.72,0,.09-.06.17-.16.24-.1.07-.22.13-.36.16-.14.04-.29.06-.45.07-.16.01-.31.01-.45,0-.21-.01-.35-.08-.45-.2-.09-.12-.17-.35-.23-.7-.06-.35-.13-.82-.23-1.42-.54.49-1.13.9-1.75,1.23-.63.33-1.26.57-1.9.72-.64.14-1.24.2-1.81.17Zm.69-1.87c.85.05,1.68-.11,2.49-.48.82-.37,1.56-.87,2.23-1.51.23-3.37.46-6.73.69-10.1-.64-.73-1.36-1.29-2.15-1.68-.8-.39-1.61-.61-2.44-.66-1.54-.09-2.77.48-3.67,1.7-.9,1.22-1.4,3-1.5,5.34-.11,2.41.23,4.22,1,5.44.77,1.22,1.88,1.87,3.35,1.95Z" style="fill:#0c566d;"/><path d="m400.02,52.38c-2.54-.28-4.42-1.18-5.64-2.73-1.23-1.55-1.71-3.9-1.43-7.05.18-1.99.62-3.64,1.35-4.94.72-1.3,1.71-2.25,2.97-2.83,1.25-.58,2.75-.79,4.49-.6,1.54.17,2.8.65,3.77,1.44.96.79,1.63,1.87,2,3.23.37,1.36.43,3,.18,4.92-.02.16-.09.32-.2.49-.12.17-.26.31-.44.41-.18.1-.36.14-.54.12-3.76-.47-7.53-.88-11.31-1.24-.17,2.08.15,3.7.96,4.85.81,1.15,2.17,1.83,4.09,2.04,1.14.12,2.09.11,2.87-.05.77-.16,1.38-.35,1.82-.56.44-.21.72-.31.84-.29.14.02.24.1.32.26.07.16.13.34.18.54.04.2.06.36.05.47-.03.2-.21.41-.56.62-.35.21-.81.4-1.39.57-.57.17-1.23.29-1.98.37-.75.07-1.54.06-2.38-.03Zm-4.63-10.65c3.38.32,6.76.68,10.14,1.09.25-2.05,0-3.65-.73-4.79-.74-1.14-1.9-1.8-3.49-1.97-1.14-.12-2.13.02-2.97.43-.84.41-1.51,1.05-1.99,1.93-.49.88-.8,1.98-.95,3.32Z" style="fill:#0c566d;"/><path d="m412.76,53.85c-.36-.05-.61-.14-.74-.26-.13-.12-.19-.28-.16-.49.56-4.02,1.13-8.03,1.69-12.05.15-1.06.24-1.89.26-2.49.02-.6.03-1.06.01-1.37-.02-.31-.02-.54,0-.67.01-.09.08-.16.19-.21.12-.05.25-.09.41-.11.16-.02.33-.03.51-.03.18,0,.33.01.45.03.19.03.32.1.4.23.08.13.14.35.19.68.05.33.09.8.12,1.43.49-.39,1.07-.71,1.75-.98.68-.27,1.39-.46,2.14-.57.74-.11,1.48-.11,2.22,0,1.16.19,2.11.55,2.84,1.09.73.54,1.25,1.21,1.54,2.03.3.81.35,1.76.16,2.83-.71,4.06-1.42,8.13-2.13,12.19-.04.2-.13.34-.3.41-.17.07-.43.08-.79.02-.08-.01-.16-.03-.24-.04-.36-.06-.61-.16-.74-.28-.13-.13-.18-.29-.14-.49.68-4.02,1.36-8.04,2.03-12.07.18-1.08,0-1.95-.52-2.61-.53-.66-1.4-1.09-2.6-1.29-.61-.1-1.24-.1-1.88,0-.64.1-1.26.28-1.85.55-.59.27-1.13.62-1.6,1.05-.64,4.35-1.27,8.7-1.91,13.05-.03.2-.13.34-.29.42-.16.08-.42.09-.79.04-.09-.01-.18-.03-.27-.04Z" style="fill:#0c566d;"/></svg>