<?xml version="1.0" encoding="UTF-8"?><svg id="Layer_1" xmlns="http://www.w3.org/2000/svg" viewBox="0 0 718 90"><path d="m304.13,54.24c-.35.05-.63.04-.85-.03-.22-.07-.38-.18-.47-.33-3.97-7.02-8.12-13.98-12.43-20.88-.04-.06-.06-.12-.09-.17-.02-.05-.04-.12-.05-.18-.03-.16.04-.29.21-.4.17-.11.44-.2.81-.26.09-.01.17-.03.26-.04.32-.05.59-.06.81-.03.22.03.38.13.48.3,3.94,6.53,7.73,13.11,11.38,19.74.05,0,.09-.01.14-.02,1.58-7.39,3.31-14.78,5.2-22.16.05-.19.17-.33.36-.42.19-.09.44-.16.76-.2.06,0,.12-.01.19-.02.39-.05.68-.04.86.02.18.06.28.17.3.33,0,.07,0,.13,0,.19,0,.06-.02.13-.03.23-2.15,7.83-4.12,15.67-5.91,23.52-.05.17-.17.32-.36.45-.19.13-.46.22-.81.27-.25.04-.51.07-.76.11Z" style="fill:#0c566d;"/><path d="m319.71,52.3c-.35.04-.61.01-.8-.07-.18-.08-.29-.23-.31-.43-.43-4.03-.86-8.07-1.29-12.1-.11-1.06-.23-1.89-.36-2.48-.12-.59-.23-1.04-.33-1.34-.09-.3-.15-.52-.16-.65-.01-.09.04-.17.14-.25.1-.08.23-.15.38-.21.15-.06.32-.11.5-.15.18-.04.33-.07.45-.08.19-.02.35.02.47.12.12.1.25.32.38.65.13.33.28.79.43,1.4.33-.58.72-1.08,1.17-1.5.45-.42.96-.75,1.52-1,.57-.25,1.16-.4,1.8-.45.51-.04.95,0,1.32.14.37.14.56.35.58.62.02.18.01.36-.01.53-.02.17-.06.33-.11.47-.05.14-.11.25-.17.34-.07.09-.15.13-.24.14-.12.01-.36-.02-.7-.09-.35-.07-.79-.08-1.32-.04-.87.08-1.62.39-2.23.94-.62.55-1.02,1.18-1.22,1.88.43,4.3.86,8.59,1.29,12.89.02.2-.05.36-.21.48-.16.12-.43.2-.8.24-.06,0-.12.01-.17.02Z" style="fill:#0c566d;"/><path d="m331.16,30.89c-.47.03-.79,0-.98-.09-.19-.09-.29-.24-.31-.44-.06-.77-.11-1.54-.17-2.31-.01-.18.07-.33.25-.46.18-.13.5-.21.97-.24.44-.03.76,0,.96.09.19.09.29.24.31.44.05.77.1,1.54.15,2.31.01.18-.07.33-.25.46-.18.13-.49.2-.93.23Zm1.25,20.31c-.37.03-.64,0-.79-.1-.16-.09-.24-.24-.26-.44-.4-5.56-.8-11.13-1.19-16.69-.01-.2.05-.36.2-.48.15-.11.42-.18.81-.21.1,0,.19-.01.29-.02.39-.03.67,0,.83.1.17.09.25.24.27.44.36,5.57.73,11.13,1.09,16.7.01.2-.05.36-.2.47-.14.11-.4.18-.77.21-.09,0-.19.01-.28.02Z" style="fill:#0c566d;"/><path d="m339.7,57.94c-.36.02-.76,0-1.17-.08-.41-.07-.78-.17-1.08-.3-.3-.13-.46-.3-.47-.5,0-.07,0-.17,0-.31,0-.14.02-.28.04-.43.03-.15.07-.28.13-.4.06-.12.13-.18.2-.18.18-.01.42.04.7.15.28.11.71.15,1.28.12.71-.04,1.2-.23,1.47-.6.27-.37.39-1.02.34-1.98-.3-6.69-.61-13.37-.91-20.06,0-.2.06-.36.22-.47.15-.11.42-.17.82-.19.1,0,.19,0,.29-.01.39-.02.67.02.83.12.16.1.25.25.25.45.26,6.69.52,13.37.78,20.06.04,1-.08,1.83-.35,2.5-.27.67-.69,1.18-1.24,1.52-.56.34-1.27.54-2.13.58Zm1.58-27.61c-.47.02-.79-.02-.98-.11-.19-.09-.29-.24-.3-.45-.03-.77-.07-1.54-.11-2.32,0-.18.08-.33.26-.46.18-.12.51-.19.98-.21.45-.02.76.02.95.11.19.09.29.24.3.45.03.77.06,1.54.09,2.32,0,.18-.08.33-.26.45-.18.12-.49.19-.93.21Z" style="fill:#0c566d;"/><path d="m357.03,50.47c-2.6,0-4.6-.68-6.02-2.09-1.42-1.41-2.17-3.68-2.25-6.84-.05-2,.22-3.69.8-5.06.59-1.38,1.48-2.43,2.69-3.15,1.21-.72,2.71-1.09,4.49-1.09,1.59,0,2.92.34,3.98,1.02,1.07.68,1.86,1.68,2.39,2.99.52,1.31.77,2.94.74,4.87,0,.16-.05.33-.15.51-.1.18-.23.33-.4.45-.17.12-.35.18-.54.18-3.86-.05-7.73-.04-11.59.02.06,2.09.57,3.66,1.53,4.71.95,1.06,2.41,1.57,4.37,1.57,1.17,0,2.13-.12,2.89-.37.76-.25,1.36-.5,1.78-.75.43-.26.7-.38.81-.38.14,0,.26.08.35.23.09.15.17.32.24.51.07.19.1.35.1.46,0,.2-.17.43-.5.67-.33.24-.78.48-1.34.72-.56.23-1.21.43-1.96.58-.75.16-1.55.23-2.41.23Zm-5.9-10.07c3.46-.06,6.93-.07,10.39-.04.02-2.07-.4-3.63-1.28-4.68-.88-1.05-2.13-1.58-3.76-1.58-1.17,0-2.15.26-2.96.75-.81.5-1.41,1.21-1.8,2.14-.4.93-.59,2.06-.59,3.4Z" style="fill:#0c566d;"/><path d="m381.99,51.27c-.86-.06-1.57-.25-2.15-.6-.57-.34-.99-.83-1.25-1.45-.26-.63-.36-1.4-.31-2.31.22-3.99.44-7.99.66-11.98-.76-.04-1.53-.08-2.29-.12-.41-.02-.61-.29-.58-.81,0-.11.01-.23.02-.34.02-.52.24-.77.66-.75.77.04,1.53.08,2.3.12.17-1.23.33-2.46.5-3.69.06-.22.16-.38.3-.46.14-.08.36-.12.65-.1.06,0,.12,0,.19.01.37.02.62.09.77.2.14.11.21.27.19.47-.08,1.24-.15,2.47-.23,3.71,1.21.07,2.41.15,3.62.24.41.03.6.31.56.83,0,.11-.02.23-.02.34-.04.52-.26.77-.67.74-1.2-.09-2.4-.16-3.6-.24-.24,3.96-.49,7.92-.73,11.87-.05.86.06,1.47.35,1.81.28.35.77.54,1.47.59.63.04,1.1.01,1.4-.09.3-.1.53-.15.7-.14.09,0,.17.07.22.19.05.12.09.25.11.4.02.15.04.29.04.43,0,.14,0,.24,0,.31-.01.2-.18.37-.51.49-.33.13-.7.22-1.14.28-.44.06-.84.08-1.21.05Z" style="fill:#0c566d;"/><path d="m392.3,31.53c-.47-.04-.79-.12-.96-.24-.18-.12-.25-.28-.24-.48.07-.77.13-1.54.2-2.31.02-.18.12-.32.32-.42.19-.1.53-.12,1-.08.44.04.76.12.93.24.18.12.25.28.23.48-.07.77-.14,1.54-.21,2.31-.02.18-.12.32-.32.42-.19.1-.51.12-.95.09Zm-1.95,20.26c-.37-.03-.63-.11-.77-.22-.14-.12-.21-.27-.19-.48.48-5.56.96-11.12,1.44-16.68.02-.2.11-.35.28-.44.17-.09.45-.12.83-.08.1,0,.19.02.29.03.39.03.66.11.81.23.15.12.21.28.19.48-.51,5.56-1.03,11.11-1.54,16.67-.02.2-.11.35-.27.44-.16.09-.43.11-.8.08-.09,0-.19-.02-.28-.02Z" style="fill:#0c566d;"/><path d="m396.5,59.58c-.36-.04-.74-.13-1.14-.26-.4-.13-.74-.29-1.02-.46-.28-.18-.41-.37-.39-.57,0-.07.02-.17.05-.3.03-.13.06-.27.11-.42.05-.14.11-.27.19-.37.08-.11.16-.16.22-.15.18.02.41.1.67.26.26.15.68.26,1.25.32.71.08,1.22-.04,1.55-.36.32-.32.54-.95.65-1.9.75-6.65,1.5-13.3,2.25-19.95.02-.2.12-.35.29-.43.17-.08.45-.1.84-.06.1.01.19.02.29.03.39.04.66.13.8.25.15.12.21.28.18.48-.79,6.65-1.58,13.29-2.37,19.94-.12.99-.36,1.8-.74,2.42-.37.62-.86,1.05-1.47,1.31-.6.25-1.34.33-2.2.24Zm5.88-27.02c-.46-.05-.78-.14-.95-.26-.17-.12-.25-.28-.22-.49.09-.77.17-1.54.26-2.3.02-.18.13-.32.33-.41.2-.09.53-.11,1-.06.44.05.75.14.92.26.17.12.25.29.22.49-.09.77-.18,1.53-.27,2.3-.02.18-.13.32-.33.41-.2.09-.51.11-.95.06Z" style="fill:#0c566d;"/><path d="m413.26,54.68c-1.36-.21-2.47-.72-3.35-1.54-.87-.83-1.47-1.94-1.79-3.35-.32-1.41-.35-3.08-.09-5.02.25-1.85.74-3.41,1.47-4.7.74-1.29,1.68-2.23,2.82-2.82,1.14-.59,2.46-.78,3.94-.55.94.14,1.85.44,2.72.89.87.45,1.59,1,2.18,1.65.48-2.87.96-5.74,1.44-8.61.03-.2.15-.34.35-.41.2-.07.5-.07.89,0,.06.01.12.02.19.03.37.06.64.16.8.29.17.13.23.3.2.5-1.13,6.54-2.27,13.08-3.4,19.61-.16.94-.27,1.72-.32,2.35-.05.63-.07,1.11-.07,1.46,0,.35-.01.59-.04.72-.02.09-.08.16-.18.23-.11.06-.23.1-.38.12-.15.02-.3.03-.47.02-.17,0-.32-.02-.45-.04-.21-.04-.35-.12-.44-.25-.09-.13-.14-.37-.16-.72-.02-.35-.06-.83-.1-1.43-.6.43-1.23.78-1.9,1.05-.67.27-1.34.45-2,.52-.66.08-1.28.08-1.86-.01Zm.88-1.8c.86.13,1.72.06,2.58-.23.87-.29,1.67-.71,2.41-1.28.56-3.33,1.11-6.66,1.67-9.98-.58-.79-1.26-1.42-2.03-1.89-.77-.47-1.59-.77-2.43-.9-1.56-.24-2.87.21-3.9,1.33-1.03,1.13-1.7,2.85-2.03,5.17-.34,2.38-.16,4.22.51,5.51.67,1.29,1.74,2.05,3.22,2.27Z" style="fill:#0c566d;"/></svg>