<?xml version="1.0" encoding="UTF-8"?><svg id="Layer_1" xmlns="http://www.w3.org/2000/svg" viewBox="0 0 718 90"><path d="m195.21,54.55c-.36.06-.66.05-.9-.02-.24-.08-.4-.22-.51-.43-3.27-7.01-6.59-14-9.95-20.98-.04-.08-.08-.17-.12-.26-.04-.09-.06-.15-.07-.2-.03-.16.04-.29.2-.4.16-.11.4-.19.73-.25.12-.02.23-.04.35-.06.28-.05.52-.06.73-.02.21.03.35.14.43.31,3.06,6.67,6.09,13.35,9.07,20.04.05,0,.09-.02.14-.02.66-7.24,1.36-14.48,2.1-21.72,0-.23.11-.41.31-.55.19-.13.5-.23.92-.3.23-.04.47-.07.7-.11.4-.06.72-.06.97,0,.25.06.41.21.5.42,2.97,6.65,5.89,13.32,8.78,19.99.05,0,.09-.01.14-.02.76-7.28,1.55-14.57,2.39-21.86.02-.16.13-.3.32-.41.19-.11.43-.18.74-.23.11-.02.21-.03.31-.05.35-.05.61-.05.79,0,.17.06.27.16.3.32,0,.04,0,.12,0,.22,0,.11-.02.19-.03.26-1.02,7.68-2,15.35-2.92,23.03-.03.23-.15.42-.33.57-.19.14-.46.24-.83.3-.3.04-.59.09-.89.13-.36.06-.66.04-.9-.04-.23-.08-.4-.23-.5-.44-2.86-6.54-5.75-13.07-8.68-19.59-.05,0-.09.01-.14.02-.73,7.1-1.43,14.2-2.08,21.3-.03.24-.15.43-.36.58-.21.15-.5.25-.86.32-.27.05-.55.09-.82.14Z" style="fill:#0c566d;"/><path d="m227.05,49.91c-2.56.34-4.61-.1-6.17-1.33-1.56-1.23-2.56-3.4-3.01-6.53-.28-1.98-.22-3.69.18-5.12.4-1.43,1.13-2.58,2.19-3.44,1.06-.86,2.45-1.4,4.14-1.63,1.51-.2,2.82-.04,3.93.5,1.11.53,2.01,1.41,2.69,2.64.69,1.23,1.15,2.8,1.39,4.72.02.16,0,.33-.07.52-.07.19-.18.36-.32.51-.15.14-.31.23-.49.25-3.74.48-7.48.98-11.22,1.5.31,2.07,1,3.57,2.06,4.5,1.06.93,2.55,1.27,4.47,1.01,1.14-.15,2.07-.4,2.78-.75.71-.35,1.26-.67,1.64-.99.38-.31.63-.48.74-.49.14-.02.26.04.37.18.11.14.21.29.3.48.09.18.15.33.16.44.03.2-.11.45-.39.74-.29.29-.69.59-1.21.89-.52.31-1.13.59-1.84.84-.71.25-1.49.44-2.33.55Zm-7.01-9.26c3.34-.47,6.68-.91,10.03-1.35-.26-2.05-.88-3.54-1.87-4.47-.98-.93-2.25-1.29-3.8-1.08-1.11.15-2.03.52-2.74,1.11-.71.59-1.2,1.37-1.46,2.33-.27.97-.32,2.11-.16,3.45Z" style="fill:#0c566d;"/><path d="m239.87,48.14c-.34.04-.61.02-.79-.06-.18-.08-.29-.22-.31-.43-.49-4.03-.98-8.05-1.46-12.08-.13-1.06-.26-1.89-.39-2.48-.13-.59-.24-1.04-.34-1.33-.09-.3-.15-.51-.17-.65-.01-.09.03-.18.13-.26.1-.08.22-.15.36-.22.15-.06.3-.12.48-.16.17-.04.32-.07.43-.09.19-.02.34.02.46.12.12.1.24.31.38.64.13.33.28.79.45,1.39.31-.58.67-1.09,1.09-1.52.42-.43.9-.77,1.44-1.03.54-.26,1.11-.42,1.71-.49.49-.06.91-.02,1.27.11.36.13.55.33.58.6.02.18.02.36,0,.53-.02.17-.05.33-.09.47-.04.14-.09.26-.16.34-.06.09-.14.14-.23.15-.12.01-.34-.01-.68-.08-.34-.06-.76-.07-1.27,0-.84.1-1.54.42-2.13.98-.58.56-.96,1.19-1.13,1.9.51,4.29,1.02,8.57,1.53,12.86.03.2-.04.36-.2.49-.16.12-.42.2-.79.25-.06,0-.11.01-.17.02Z" style="fill:#0c566d;"/><path d="m252.39,46.72c-.37.04-.63.02-.79-.07-.16-.09-.25-.23-.27-.43-.88-8.11-1.76-16.22-2.64-24.33-.02-.2.04-.36.18-.48.14-.12.4-.2.78-.24.09-.01.19-.02.28-.03.38-.04.65-.02.81.07.16.09.26.23.28.43.54,5.06,1.07,10.12,1.61,15.19.05,0,.09,0,.14-.01,2.14-2.82,4.3-5.63,6.49-8.44.08-.1.18-.19.27-.27.1-.08.22-.14.35-.17.14-.04.31-.07.52-.09.14-.01.28-.03.42-.04.28-.03.5-.02.67.02.17.04.26.13.27.27,0,.09-.03.21-.11.35-.08.15-.17.28-.28.4-2.31,2.95-4.6,5.91-6.87,8.88-.04-.36-.08-.72-.11-1.08,3.03,2.63,6.04,5.28,9.02,7.94.13.12.24.24.33.35.09.11.14.19.15.26.01.14-.06.24-.21.31-.16.07-.43.13-.82.16-.11.01-.23.02-.34.03-.34.03-.62.01-.82-.06-.2-.07-.41-.2-.61-.39-2.71-2.4-5.44-4.8-8.19-7.18-.05,0-.09,0-.14.01.28,2.63.56,5.27.84,7.9.02.2-.04.36-.17.48-.14.12-.39.2-.76.23-.09,0-.18.02-.27.03Z" style="fill:#0c566d;"/><path d="m267.65,49.1c-.14.01-.28-.01-.44-.08-.16-.07-.24-.17-.25-.3-.01-.11.05-.28.18-.51.13-.23.26-.57.41-1.01.11-.33.2-.71.28-1.14.08-.43.13-.96.15-1.59.02-.63,0-1.41-.09-2.34-.02-.27.04-.47.19-.58.15-.12.4-.19.74-.22.13-.01.25-.02.38-.03.34-.03.6,0,.77.08.17.09.27.27.29.54.09,1.02.06,1.96-.09,2.83-.15.87-.37,1.62-.66,2.27-.29.64-.59,1.14-.92,1.5-.32.36-.63.55-.93.58Z" style="fill:#0c566d;"/><path d="m288.85,43.49c-.3.02-.56,0-.78-.08-.22-.07-.39-.23-.5-.48-2.2-5.3-4.43-10.59-6.69-15.88-.03-.04-.06-.12-.09-.22-.03-.1-.05-.18-.05-.25-.01-.18.06-.32.23-.41.17-.09.43-.15.78-.18.1,0,.21-.02.31-.02.26-.02.48,0,.67.05.19.05.33.17.41.35,2.02,5.11,4.02,10.23,6,15.36.05,0,.09,0,.14,0,1.24-5.35,2.51-10.7,3.81-16.04.04-.18.14-.32.33-.4.18-.08.41-.13.69-.15.08,0,.16-.01.24-.02.33-.02.57,0,.73.07.16.07.24.2.25.38,0,.07,0,.15,0,.24,0,.09-.03.18-.07.28-1.5,5.54-2.98,11.08-4.42,16.62-.05.25-.18.43-.4.54-.21.11-.48.17-.8.19-.26.02-.53.04-.79.06Z" style="fill:#0c566d;"/><path d="m302.06,42.65c-.34.02-.6-.02-.78-.11-.18-.09-.27-.24-.28-.44-.23-4.05-.47-8.1-.7-12.15-.06-1.07-.14-1.9-.23-2.5-.09-.6-.18-1.05-.25-1.35-.08-.3-.12-.52-.13-.66,0-.09.04-.17.14-.25.1-.07.23-.14.38-.19.15-.05.31-.1.49-.13.17-.03.32-.05.44-.06.19-.01.34.04.45.14.11.11.22.33.34.66.11.34.23.81.36,1.41.34-.56.74-1.05,1.18-1.45.45-.4.95-.71,1.5-.93.55-.22,1.13-.35,1.74-.38.49-.03.91.04,1.26.19.35.15.53.37.54.64,0,.18,0,.36-.03.53-.03.17-.07.33-.12.47-.05.14-.11.25-.18.33-.06.08-.15.13-.24.13-.12,0-.34-.03-.67-.12-.33-.09-.75-.12-1.27-.09-.84.04-1.57.33-2.18.85-.61.52-1.03,1.13-1.25,1.83.24,4.31.48,8.62.72,12.93.01.2-.07.36-.23.47-.17.11-.43.18-.8.2-.06,0-.12,0-.17,0Z" style="fill:#0c566d;"/><path d="m313.88,21.68c-.45.02-.76-.02-.94-.11-.18-.09-.28-.24-.28-.45-.03-.77-.07-1.54-.1-2.32,0-.18.07-.33.24-.45.17-.12.48-.19.93-.21.42-.02.72.02.91.11.18.09.27.24.28.45.03.77.07,1.54.1,2.32,0,.18-.07.33-.24.45-.17.12-.47.19-.89.21Zm.75,20.34c-.37.02-.63-.02-.78-.12-.15-.1-.24-.25-.24-.45-.25-5.57-.5-11.15-.75-16.72,0-.2.06-.36.21-.47.15-.11.41-.17.78-.19.09,0,.19,0,.28-.01.37-.02.64.02.8.12.16.1.24.25.25.45.24,5.57.48,11.15.71,16.72,0,.2-.06.36-.2.47-.15.11-.4.17-.77.19-.09,0-.18,0-.28.01Z" style="fill:#0c566d;"/><path d="m321.75,48.89c-.36.01-.76-.02-1.17-.09-.41-.08-.77-.18-1.07-.32-.3-.14-.46-.31-.47-.51,0-.07,0-.17,0-.31,0-.14.02-.28.05-.43.03-.15.07-.28.14-.4.06-.12.13-.18.2-.18.18,0,.41.05.69.16.28.11.7.16,1.28.14.71-.03,1.2-.22,1.47-.58.27-.36.39-1.02.36-1.97-.24-6.69-.47-13.38-.71-20.06,0-.2.06-.36.21-.47.15-.11.41-.17.78-.18.09,0,.19,0,.28,0,.37-.01.64.03.79.13.15.1.24.25.24.45.22,6.69.44,13.38.67,20.07.03,1-.09,1.83-.36,2.5-.28.67-.69,1.17-1.25,1.51-.56.34-1.27.52-2.14.55Zm1.79-27.59c-.44.02-.76-.03-.94-.12-.18-.1-.27-.25-.28-.45-.03-.77-.05-1.54-.08-2.32,0-.18.08-.33.25-.45.17-.12.48-.19.93-.2.42-.02.72.03.9.12.18.1.27.25.28.45.03.77.05,1.54.08,2.32,0,.18-.08.33-.25.45-.17.12-.47.19-.89.2Z" style="fill:#0c566d;"/><path d="m336.02,41.3c-.3,0-.56-.03-.78-.12-.22-.09-.37-.25-.44-.5-1.65-5.39-3.32-10.78-5.01-16.17-.03-.07-.05-.15-.08-.25-.03-.1-.04-.19-.04-.25,0-.18.08-.32.25-.4.17-.08.44-.13.79-.14.07,0,.14,0,.21,0,.26,0,.49.03.69.1.2.07.33.19.38.35,1.5,5.21,2.99,10.43,4.45,15.65.05,0,.09,0,.14,0,1.21-5.28,2.44-10.55,3.69-15.82.04-.18.16-.31.34-.38.19-.07.43-.11.73-.12.09,0,.19,0,.28,0,.26,0,.49.03.69.09.2.07.32.2.37.4,1.44,5.22,2.85,10.44,4.25,15.66.05,0,.09,0,.14,0,1.29-5.26,2.6-10.53,3.93-15.78.05-.18.16-.31.35-.38.19-.07.42-.1.7-.11.06,0,.12,0,.18,0,.33,0,.57.04.72.12.15.08.23.2.23.36,0,.07-.01.15-.03.26-.02.1-.05.2-.07.29-1.53,5.44-3.03,10.88-4.5,16.33-.07.25-.2.42-.41.51-.21.09-.46.14-.76.14-.29,0-.57,0-.86,0-.3,0-.56-.04-.78-.13-.22-.09-.37-.26-.44-.51-1.23-4.6-2.48-9.19-3.75-13.79-.05,0-.09,0-.14,0-1.13,4.63-2.25,9.27-3.35,13.9-.06.27-.2.45-.4.54-.21.08-.47.13-.79.14-.29,0-.57.01-.86.02Z" style="fill:#0c566d;"/><path d="m359.16,20.71c-.45,0-.76-.05-.93-.15-.18-.1-.26-.26-.26-.46,0-.77,0-1.54,0-2.32,0-.18.09-.33.26-.44.18-.11.49-.17.94-.17.42,0,.72.05.9.15.18.1.26.26.26.46,0,.77,0,1.54,0,2.32,0,.18-.09.33-.26.44-.18.11-.48.17-.9.17Zm-.16,20.35c-.37,0-.63-.05-.78-.15-.15-.1-.22-.26-.22-.46,0-5.58,0-11.16,0-16.74,0-.2.07-.36.23-.46.15-.1.41-.15.79-.15.09,0,.19,0,.28,0,.37,0,.64.05.79.15.15.1.23.26.23.46-.01,5.58-.02,11.16-.03,16.74,0,.2-.07.36-.22.46-.15.1-.41.15-.78.15-.09,0-.18,0-.28,0Z" style="fill:#0c566d;"/><path d="m370.93,41.27c-.87-.01-1.6-.17-2.17-.49-.57-.31-1-.78-1.3-1.39-.29-.62-.44-1.38-.43-2.29.06-7.03.12-14.07.19-21.1,0-.21.08-.36.23-.46.15-.1.42-.15.8-.15.08,0,.16,0,.25,0,.38,0,.64.06.79.16.15.1.23.26.22.46-.08,7-.15,14-.23,21,0,.89.13,1.49.43,1.81.29.32.8.49,1.51.5.57,0,1-.05,1.28-.17.28-.12.5-.18.66-.18.09,0,.17.06.22.17.05.11.1.25.13.39.03.15.05.29.06.43.01.14.01.24.01.31,0,.21-.16.38-.46.52-.3.14-.66.26-1.07.34-.42.08-.8.12-1.14.12Z" style="fill:#0c566d;"/><path d="m381.16,41.45c-.87-.02-1.59-.19-2.16-.51-.57-.32-1-.79-1.28-1.41-.29-.62-.42-1.38-.4-2.29.13-7.03.27-14.06.4-21.1,0-.21.08-.36.24-.46.15-.1.42-.15.8-.14.08,0,.16,0,.25,0,.38,0,.64.06.79.17.15.1.22.26.22.46-.15,7-.3,13.99-.45,20.99-.02.89.12,1.49.41,1.82.29.32.8.49,1.51.51.57.01,1-.04,1.28-.16.28-.12.5-.18.66-.17.09,0,.16.06.22.18.05.12.1.25.13.4.03.15.05.29.06.43,0,.14.01.24,0,.31,0,.21-.16.38-.46.52-.3.14-.66.25-1.08.33-.42.08-.8.12-1.14.11Z" style="fill:#0c566d;"/><path d="m389.37,21.18c-.45-.01-.75-.08-.93-.18-.17-.11-.26-.26-.25-.47.02-.77.05-1.54.07-2.32,0-.18.1-.33.28-.44.18-.11.49-.15.94-.14.42.01.72.07.89.18.17.11.26.26.25.47-.02.77-.05,1.54-.07,2.32,0,.18-.1.33-.28.43-.18.11-.48.16-.9.14Zm-.76,20.34c-.37-.01-.62-.07-.77-.18-.15-.11-.22-.26-.21-.47l.5-16.73c0-.2.09-.35.24-.45.15-.1.42-.14.79-.13.09,0,.19,0,.28,0,.37.01.64.07.79.18.15.11.22.26.21.47-.18,5.58-.36,11.15-.53,16.73,0,.2-.08.35-.24.45-.15.1-.41.14-.78.13-.09,0-.18,0-.28,0Z" style="fill:#0c566d;"/><path d="m401.73,49.17c-1.37-.06-2.55-.26-3.55-.59-1-.34-1.76-.83-2.27-1.49-.51-.66-.75-1.48-.71-2.48.03-.7.19-1.35.5-1.93.31-.58.71-1.09,1.21-1.52.5-.44,1.03-.77,1.59-.99.01-.02.03-.04.04-.07-.42-.31-.77-.7-1.04-1.17-.27-.46-.4-.99-.37-1.58.03-.7.24-1.31.63-1.83.39-.52.94-.92,1.65-1.21-1-.45-1.76-1.11-2.27-1.98-.51-.87-.75-1.85-.71-2.94.04-1.14.33-2.11.86-2.93.53-.82,1.3-1.46,2.3-1.9,1-.45,2.22-.64,3.64-.58.33.01.65.05.96.1.31.05.61.11.89.19,2.06.1,4.11.2,6.17.31.21.01.36.08.45.21.09.13.12.33.11.6,0,.11-.01.23-.02.34-.03.52-.24.77-.64.75-.28-.01-.6-.04-.96-.07-.36-.03-.73-.07-1.1-.12-.37-.05-.71-.12-1.01-.2-.01.02-.03.04-.04.07.31.27.58.58.79.94.21.36.38.78.5,1.24.12.46.16,1.01.13,1.65-.05,1.04-.36,1.96-.91,2.75-.55.79-1.33,1.39-2.33,1.8-1.01.41-2.23.58-3.69.51-.69-.03-1.29.03-1.8.18-.51.15-.89.38-1.16.7-.27.32-.41.72-.43,1.19-.02.52.1.94.36,1.24.26.31.64.55,1.13.73.49.18,1.05.32,1.68.43.63.11,1.29.22,1.97.35,1.21.19,2.23.47,3.06.83.82.36,1.43.85,1.83,1.46.39.61.57,1.41.52,2.38-.05,1.07-.39,1.96-1,2.68-.61.72-1.49,1.25-2.65,1.59-1.16.34-2.59.47-4.3.4Zm.42-1.79c1.78.08,3.11-.11,3.99-.58.88-.47,1.35-1.24,1.4-2.3.03-.61-.1-1.1-.39-1.47-.29-.37-.7-.65-1.23-.85-.53-.2-1.13-.35-1.79-.46-.66-.11-1.35-.22-2.06-.33-.71-.11-1.38-.27-2.02-.48-.75.31-1.39.74-1.93,1.28-.54.55-.82,1.25-.86,2.11-.03.66.13,1.2.47,1.64.34.43.87.77,1.59,1,.72.23,1.67.38,2.83.43Zm.63-14.17c.88.04,1.65-.05,2.31-.27.66-.22,1.18-.58,1.57-1.09.39-.5.6-1.18.64-2.02.04-.91-.1-1.65-.43-2.24-.33-.58-.82-1.02-1.46-1.32-.64-.29-1.41-.46-2.29-.5-.89-.04-1.67.06-2.34.29-.68.23-1.21.63-1.59,1.18-.38.55-.59,1.28-.63,2.19-.05,1.27.31,2.2,1.09,2.79.78.59,1.82.91,3.15.97Z" style="fill:#0c566d;"/><path d="m421.52,43.21c-2.57-.16-4.49-.99-5.78-2.5-1.28-1.51-1.85-3.84-1.67-6.99.11-2,.5-3.66,1.17-4.99.67-1.33,1.61-2.31,2.82-2.94,1.21-.63,2.67-.9,4.37-.79,1.52.1,2.77.52,3.75,1.25.98.74,1.69,1.78,2.12,3.12.43,1.34.58,2.97.44,4.9-.01.16-.07.32-.17.5-.11.17-.24.32-.41.43-.17.11-.35.16-.53.15-3.76-.26-7.52-.5-11.27-.72-.1,2.09.28,3.69,1.14,4.81.86,1.12,2.25,1.74,4.18,1.86,1.15.07,2.1.01,2.87-.19.76-.2,1.36-.42,1.79-.65.43-.23.71-.34.82-.34.14,0,.25.09.33.25.08.15.15.33.21.53.06.2.08.35.07.47-.01.2-.19.42-.53.65-.34.23-.79.44-1.36.64-.57.2-1.22.36-1.97.47-.74.11-1.54.14-2.39.08Zm-5.05-10.45c3.36.2,6.72.41,10.08.64.14-2.06-.18-3.65-.96-4.75-.78-1.1-1.95-1.7-3.51-1.8-1.12-.07-2.09.11-2.9.56-.81.44-1.44,1.11-1.89,2-.45.9-.72,2.01-.82,3.35Z" style="fill:#0c566d;"/><path d="m434.43,43.98c-.34-.03-.6-.1-.76-.21-.16-.12-.24-.27-.22-.48.31-4.04.61-8.09.92-12.13.08-1.07.12-1.9.1-2.51-.01-.6-.04-1.06-.07-1.37-.04-.31-.05-.53-.04-.67,0-.09.07-.17.18-.23.11-.06.24-.11.4-.14.16-.03.32-.06.5-.06.18,0,.32-.01.44,0,.19.01.33.08.43.2.1.12.18.36.24.7.07.35.12.83.17,1.45.42-.51.87-.94,1.37-1.28.5-.34,1.03-.58,1.61-.73.58-.15,1.17-.2,1.77-.15.49.04.9.16,1.22.36.32.2.47.43.45.71-.02.18-.05.35-.1.52-.05.17-.11.32-.18.45-.07.13-.14.23-.22.31-.08.07-.16.11-.25.1-.12,0-.33-.08-.65-.21-.32-.13-.73-.21-1.25-.26-.84-.07-1.6.12-2.28.55-.68.44-1.17.99-1.48,1.64-.34,4.3-.67,8.61-1.01,12.91-.02.2-.11.35-.29.44-.18.09-.45.12-.82.09-.06,0-.11,0-.17-.01Z" style="fill:#0c566d;"/><path d="m449.25,45.48c-.73-.07-1.4-.2-2.01-.39-.61-.19-1.13-.4-1.57-.64-.44-.23-.79-.46-1.03-.69-.25-.23-.36-.42-.35-.58.01-.11.08-.27.2-.46.12-.19.26-.37.41-.53.15-.16.29-.23.4-.22.11,0,.34.13.66.37.33.23.78.48,1.36.74.58.26,1.26.42,2.04.49,1.19.11,2.13-.06,2.81-.51.68-.45,1.06-1.12,1.15-2.03.07-.77-.03-1.4-.33-1.88-.29-.48-.71-.9-1.24-1.25-.54-.35-1.14-.68-1.81-.99-.56-.26-1.1-.53-1.62-.83-.52-.3-.98-.65-1.39-1.07-.41-.41-.71-.9-.92-1.47-.21-.57-.28-1.24-.21-2.04.08-.95.39-1.76.93-2.43.54-.67,1.25-1.17,2.14-1.49.89-.32,1.89-.43,3.01-.32.54.05,1.04.13,1.51.24.47.11.89.24,1.27.4.37.15.67.31.89.48.22.17.32.32.31.46-.01.14-.08.31-.19.53-.11.22-.25.4-.39.56-.14.16-.27.23-.39.22-.09,0-.41-.16-.94-.45-.53-.29-1.25-.48-2.13-.56-1.05-.1-1.91.06-2.59.46-.68.41-1.06,1.04-1.14,1.9-.05.57.03,1.04.24,1.42.21.38.54.73.99,1.03.45.3,1,.61,1.65.92.72.34,1.36.7,1.95,1.07.58.37,1.09.8,1.52,1.27.43.48.75,1.02.94,1.63.2.61.25,1.33.17,2.14-.1,1-.43,1.84-1,2.54-.57.7-1.31,1.22-2.22,1.57-.91.35-1.94.47-3.08.36Z" style="fill:#0c566d;"/><path d="m463.9,46.69c-.3-.03-.55-.1-.76-.22-.21-.11-.33-.3-.37-.55-.94-5.56-1.9-11.12-2.89-16.68-.02-.07-.03-.16-.04-.26-.01-.1-.02-.19,0-.26.02-.18.12-.3.3-.36.18-.06.45-.07.8-.04.07,0,.14.01.21.02.26.03.48.09.67.19.19.1.3.23.33.39.82,5.36,1.62,10.73,2.4,16.09.05,0,.09,0,.14.01,1.88-5.08,3.78-10.15,5.7-15.22.07-.18.2-.29.39-.33.19-.05.44-.05.74-.02.09.01.19.02.28.03.26.03.48.09.67.18.19.09.3.24.32.45.76,5.36,1.49,10.72,2.2,16.08.05,0,.09.01.14.02,1.96-5.05,3.93-10.1,5.93-15.15.07-.17.2-.28.39-.33.19-.04.43-.05.71-.02.06,0,.12.01.17.02.32.04.56.11.7.21.14.1.2.23.18.38,0,.07-.03.15-.07.25-.04.1-.07.19-.11.28-2.22,5.2-4.41,10.4-6.58,15.61-.1.24-.26.39-.47.46-.22.07-.47.08-.77.05-.29-.03-.57-.07-.86-.1-.3-.03-.55-.11-.76-.23-.21-.12-.33-.3-.37-.56-.63-4.72-1.28-9.44-1.95-14.15-.05,0-.09-.01-.14-.02-1.72,4.45-3.43,8.9-5.12,13.36-.1.26-.26.42-.47.48-.22.06-.48.07-.8.03-.29-.03-.57-.06-.86-.09Z" style="fill:#0c566d;"/><path d="m492.05,50.25c-2.56-.35-4.42-1.31-5.59-2.91-1.18-1.6-1.57-3.96-1.17-7.09.25-1.98.76-3.61,1.53-4.89.77-1.28,1.77-2.19,3.03-2.73,1.25-.55,2.73-.71,4.43-.48,1.51.2,2.73.71,3.66,1.52.93.81,1.56,1.89,1.9,3.26.34,1.37.37,3.01.09,4.92-.02.16-.09.32-.21.49-.12.17-.27.3-.44.4-.18.1-.36.14-.54.11-3.74-.53-7.47-1.04-11.21-1.53-.25,2.08.02,3.7.8,4.88.78,1.18,2.12,1.9,4.04,2.16,1.14.16,2.1.16,2.88.02.78-.14,1.39-.32,1.84-.52.45-.2.73-.29.84-.28.14.02.24.11.31.27.07.16.13.34.17.54.04.2.05.36.04.47-.03.2-.22.4-.58.61-.35.2-.82.38-1.4.54-.58.16-1.25.27-2,.32-.75.06-1.55.03-2.39-.09Zm-4.31-10.79c3.34.44,6.69.89,10.03,1.36.29-2.05.08-3.65-.62-4.8-.7-1.15-1.83-1.84-3.38-2.05-1.11-.15-2.09-.03-2.93.35-.84.38-1.52,1-2.03,1.86-.51.86-.87,1.95-1.06,3.28Z" style="fill:#0c566d;"/><path d="m504.9,51.95c-.34-.05-.59-.14-.75-.27-.15-.13-.22-.29-.19-.49.6-4.01,1.19-8.02,1.79-12.04.16-1.06.25-1.89.28-2.49.03-.6.04-1.06.03-1.37-.01-.31,0-.54.01-.67.01-.09.08-.16.19-.21.11-.05.25-.09.41-.11.16-.02.32-.03.5-.03.18,0,.32.01.44.03.19.03.32.11.41.23.09.13.15.37.19.72.04.35.06.84.06,1.46.45-.48.94-.87,1.46-1.18.52-.3,1.07-.5,1.66-.61.59-.1,1.18-.11,1.78-.02.49.08.89.22,1.2.45.31.22.44.47.4.74-.03.18-.07.35-.13.51-.06.16-.13.31-.21.43-.08.13-.16.22-.24.29-.08.07-.17.09-.26.08-.12-.02-.33-.1-.64-.25-.31-.15-.72-.27-1.23-.35-.83-.13-1.61,0-2.32.39-.71.39-1.24.9-1.6,1.53-.64,4.27-1.29,8.54-1.93,12.81-.03.2-.14.34-.32.42-.19.07-.46.09-.83.03-.06,0-.11-.02-.17-.03Z" style="fill:#0c566d;"/><path d="m517.37,53.9c-.36-.06-.61-.15-.74-.28-.13-.13-.18-.29-.15-.49,1.3-8.05,2.6-16.11,3.9-24.16.03-.2.13-.34.3-.42.17-.08.44-.08.81-.02.09.02.19.03.28.05.37.06.63.15.76.28.13.13.19.29.15.49-.82,5.02-1.65,10.05-2.47,15.07.05,0,.09.02.14.02,2.82-2.15,5.65-4.29,8.51-6.42.11-.07.22-.14.34-.18.11-.05.25-.07.39-.07.14,0,.32.02.53.06.14.02.28.05.42.07.28.05.49.12.64.2.15.08.22.19.19.33-.01.09-.08.19-.2.31-.12.12-.24.22-.38.32-3.02,2.23-6.02,4.48-9,6.74.06-.36.12-.72.18-1.08,2.23,3.34,4.44,6.69,6.62,10.05.09.15.17.29.23.42.06.13.08.22.07.29-.02.13-.12.22-.29.24-.17.03-.45,0-.83-.06-.11-.02-.23-.04-.34-.06-.34-.06-.6-.15-.78-.27-.18-.12-.34-.3-.49-.53-1.98-3.04-3.99-6.07-6.01-9.1-.05,0-.09-.02-.14-.02-.43,2.61-.86,5.23-1.28,7.84-.03.2-.13.34-.3.42-.16.08-.43.09-.79.03-.09-.01-.18-.03-.27-.04Z" style="fill:#0c566d;"/></svg>