<?xml version="1.0" encoding="UTF-8"?><svg id="Layer_1" xmlns="http://www.w3.org/2000/svg" viewBox="0 0 718 90"><path d="m310.68,56.66c-.39-.06-.7-.16-.91-.31-.22-.15-.34-.34-.38-.57-1.06-7.7-1.96-15.4-2.7-23.1,0-.09-.01-.19-.02-.28,0-.09,0-.16,0-.21.03-.16.13-.26.31-.31.18-.05.43-.05.75,0,.11.02.23.04.34.06.27.05.5.12.68.22.18.1.28.24.29.43.65,7.29,1.42,14.59,2.33,21.89.05,0,.1.01.15.02,2.95-6.68,5.78-13.39,8.48-20.13.07-.22.22-.37.44-.44.22-.08.53-.09.94-.04.23.03.45.06.68.08.38.05.69.13.9.26.21.13.33.31.35.54,1.02,7.2,2.16,14.4,3.44,21.59.05,0,.1,0,.15.01,2.63-6.87,5.13-13.76,7.5-20.69.06-.16.19-.26.39-.33.2-.06.45-.08.74-.06.1,0,.2.02.31.02.34.03.59.08.74.17.15.09.23.22.21.37,0,.04-.02.12-.05.22-.03.1-.06.18-.09.25-2.56,7.29-5.28,14.55-8.14,21.77-.09.22-.26.38-.49.47-.23.09-.54.12-.94.08-.32-.03-.64-.06-.96-.09-.39-.04-.7-.13-.92-.26-.22-.14-.36-.32-.41-.56-1.24-7.06-2.35-14.13-3.33-21.2-.05,0-.09-.01-.14-.02-2.62,6.63-5.37,13.22-8.24,19.78-.11.21-.29.36-.55.44-.26.08-.59.09-.98.03-.29-.04-.59-.09-.88-.13Z" style="fill:#0c566d;"/><path d="m344.68,60.01c-2.69-.11-4.7-1-6-2.62-1.3-1.63-1.84-3.91-1.64-6.83.2-2.97,1.03-5.19,2.47-6.69,1.44-1.5,3.4-2.18,5.91-2.07,2.48.1,4.36.94,5.65,2.55,1.29,1.61,1.92,3.9,1.88,6.87-.05,2.95-.76,5.19-2.16,6.69-1.4,1.5-3.45,2.22-6.11,2.11Zm0-1.91c1.96.08,3.42-.47,4.37-1.62.95-1.16,1.44-2.95,1.5-5.38.06-2.43-.35-4.25-1.2-5.47-.85-1.22-2.2-1.85-4.07-1.93-1.85-.08-3.24.44-4.18,1.57-.95,1.13-1.5,2.92-1.64,5.37-.14,2.43.2,4.26,1.03,5.49.84,1.23,2.24,1.89,4.2,1.98Z" style="fill:#0c566d;"/><path d="m359.91,60.14c-.39,0-.67-.05-.83-.15-.16-.1-.24-.25-.24-.46-.01-4.06-.03-8.11-.04-12.17,0-1.07-.04-1.9-.1-2.51-.06-.6-.12-1.06-.18-1.36-.06-.31-.09-.53-.09-.66,0-.09.05-.17.16-.24.1-.07.23-.13.38-.17.15-.05.31-.08.49-.1.18-.02.32-.04.44-.04.19,0,.33.05.42.17.09.11.19.33.29.65.1.32.21.78.33,1.39.42-.46.93-.87,1.55-1.25.61-.37,1.27-.68,1.96-.92.69-.24,1.4-.38,2.12-.4,1.14-.03,2.11.14,2.92.52.81.38,1.44.93,1.89,1.66.46.73.71,1.64.76,2.73.19,4.12.38,8.24.57,12.36,0,.2-.06.36-.22.47-.15.11-.43.17-.82.19-.09,0-.17,0-.26.01-.39.02-.67-.02-.84-.12-.16-.1-.25-.25-.26-.45-.16-4.08-.32-8.15-.48-12.23-.04-1.09-.39-1.91-1.03-2.45-.64-.55-1.56-.8-2.75-.77-.61.02-1.21.13-1.82.33-.61.21-1.17.49-1.71.85-.54.36-1,.79-1.4,1.3.05,4.4.09,8.79.14,13.19,0,.2-.08.36-.23.46-.16.1-.44.16-.83.16-.1,0-.2,0-.3,0Z" style="fill:#0c566d;"/><path d="m386.59,58.99c-2.75.25-4.93-.31-6.48-1.64-1.56-1.33-2.42-3.57-2.62-6.73-.13-1.99.07-3.69.58-5.09.51-1.4,1.32-2.49,2.44-3.28,1.11-.79,2.51-1.25,4.2-1.41,1.51-.13,2.8.08,3.89.64,1.09.56,1.97,1.46,2.64,2.7.67,1.24,1.12,2.82,1.33,4.74.02.16-.01.33-.09.52-.08.19-.19.36-.34.5-.15.14-.33.22-.52.25-3.89.42-7.78.77-11.68,1.05.17,2.08.78,3.63,1.83,4.62,1.05.99,2.62,1.41,4.67,1.22,1.22-.11,2.22-.33,2.99-.66.77-.33,1.36-.65,1.77-.95.41-.31.68-.47.8-.48.15-.02.27.04.39.18.11.14.22.3.31.48.09.18.15.33.16.45.02.2-.12.45-.44.73-.31.29-.75.58-1.32.88-.56.3-1.23.57-2,.8-.77.24-1.61.39-2.52.48Zm-6.77-9.61c3.46-.24,6.91-.55,10.36-.91-.22-2.06-.81-3.56-1.77-4.51-.96-.95-2.22-1.36-3.78-1.22-1.12.1-2.05.42-2.8.97-.75.55-1.29,1.29-1.62,2.24-.33.95-.47,2.09-.4,3.43Z" style="fill:#0c566d;"/><path d="m400.35,57.32c-.39.05-.68.04-.85-.04-.17-.08-.27-.22-.3-.42-.52-4.02-1.05-8.04-1.57-12.07-.14-1.06-.27-1.88-.41-2.47-.14-.59-.25-1.03-.35-1.33-.1-.3-.15-.51-.17-.65-.01-.09.03-.18.13-.26.1-.08.22-.15.36-.22.14-.06.3-.12.47-.16.17-.04.31-.08.43-.09.18-.02.33.01.44.11.11.1.23.3.36.6.14.3.3.75.5,1.34.36-.51.82-.98,1.38-1.43.56-.45,1.17-.83,1.83-1.16.66-.33,1.35-.55,2.06-.66,1.13-.18,2.12-.13,2.97.14.85.27,1.55.74,2.09,1.41.54.67.91,1.54,1.1,2.61.71,4.06,1.42,8.13,2.13,12.19.03.2-.02.37-.16.49-.14.13-.41.23-.8.29-.09.01-.17.03-.26.04-.39.07-.67.06-.85-.01-.18-.07-.28-.21-.31-.41-.67-4.02-1.34-8.05-2.01-12.07-.18-1.08-.63-1.84-1.33-2.3-.71-.46-1.65-.59-2.83-.41-.6.09-1.19.28-1.77.56-.58.28-1.11.63-1.59,1.06-.49.43-.9.91-1.22,1.46.6,4.36,1.2,8.71,1.8,13.07.03.2-.03.36-.18.49-.15.12-.41.21-.81.26-.1.01-.2.03-.29.04Z" style="fill:#0c566d;"/></svg>