<?xml version="1.0" encoding="UTF-8"?><svg id="Layer_1" xmlns="http://www.w3.org/2000/svg" viewBox="0 0 846 201"><path d="m104.09,176.09c-41.74,0-75.59-33.84-75.59-75.59,0-13.23,3.44-26.28,10.14-37.79,1.37-2.4,4.64-3.26,7.04-1.89,2.4,1.37,3.26,4.64,1.89,7.04-5.67,9.96-8.76,21.13-8.76,32.64,0,36.07,29.2,65.28,65.28,65.28s65.28-29.2,65.28-65.28-29.2-65.28-65.28-65.28c-2.92,0-5.15-2.23-5.15-5.15s2.23-5.15,5.15-5.15c41.74,0,75.59,33.84,75.59,75.59s-33.84,75.59-75.59,75.59Zm52.05-75.59c0-28.69-23.36-52.05-52.05-52.05-9.1,0-18.21,2.4-26.11,7.04-2.4,1.37-3.26,4.64-1.89,7.04,1.37,2.4,4.64,3.26,7.04,1.89,6.36-3.61,13.57-5.67,20.96-5.67,23.02,0,41.74,18.72,41.74,41.74s-18.72,41.74-41.74,41.74-41.74-18.72-41.74-41.74c0-2.92-2.23-5.15-5.15-5.15s-5.15,2.23-5.15,5.15c0,28.69,23.36,52.05,52.05,52.05s52.05-23.36,52.05-52.05Zm-23.36,0c0-15.8-12.88-28.69-28.69-28.69-10.14,0-19.58,5.5-24.74,14.26-1.37,2.4-.52,5.67,1.89,7.04,2.4,1.37,5.67.52,7.04-1.89,3.26-5.67,9.28-9.1,15.8-9.1,10.14,0,18.38,8.25,18.38,18.38s-8.25,18.38-18.38,18.38c-6.53,0-12.54-3.44-15.8-9.1-1.37-2.4-4.64-3.26-7.04-1.89-2.4,1.37-3.26,4.64-1.89,7.04,5.15,8.76,14.6,14.26,24.74,14.26,15.8,0,28.69-12.88,28.69-28.69Z"/><path d="m212.1,157.25V46.06h14.72v111.19h-14.72Z"/><path d="m247.1,157.25V46.06h11.31l24.83,71.96-1.26-31.4v-40.56h13.08v111.19h-10.61l-24.64-73.29.82,28.49v44.79h-13.52Z"/><path d="m336.74,158.58c-5.39,0-9.77-1.28-13.14-3.85-3.37-2.57-5.83-6.34-7.39-11.31-1.56-4.97-2.34-10.99-2.34-18.07v-47.19c0-5.01.36-9.55,1.07-13.61.72-4.06,1.95-7.57,3.7-10.52,1.75-2.95,4.13-5.21,7.14-6.79s6.81-2.37,11.4-2.37c4.25,0,7.8.73,10.65,2.18s5.1,3.55,6.76,6.29c1.66,2.74,2.84,6,3.54,9.79.7,3.79,1.04,8,1.04,12.63v13.58h-14.28v-13.14c0-6.32-.49-11.01-1.45-14.09-.97-3.07-3.05-4.61-6.26-4.61-3.41,0-5.7,1.6-6.85,4.8-1.16,3.2-1.74,7.81-1.74,13.84v49.72c0,4.76.23,8.62.7,11.59.46,2.97,1.28,5.14,2.46,6.51,1.18,1.37,2.86,2.05,5.05,2.05,3.24,0,5.4-1.59,6.48-4.77,1.07-3.18,1.61-8.35,1.61-15.51v-13.84h14.47v13.65c0,7.29-.72,13.38-2.15,18.29-1.43,4.91-3.8,8.59-7.11,11.06-3.31,2.46-7.76,3.7-13.36,3.7Z"/><path d="m377.11,157.25V46.06h14.66v98.87h20.91v12.32h-35.57Z"/><path d="m447.36,158.58c-5.6,0-10.1-1.09-13.49-3.25-3.39-2.17-5.84-5.46-7.36-9.89s-2.27-10-2.27-16.74V46.06h14.72v82.32c0,3.62.14,6.76.41,9.41.27,2.65,1,4.7,2.18,6.13,1.18,1.43,3.12,2.15,5.81,2.15s4.62-.7,5.78-2.12c1.16-1.41,1.86-3.44,2.12-6.1.25-2.65.38-5.79.38-9.41V46.06h14.66v82.64c0,6.74-.74,12.32-2.21,16.74-1.48,4.42-3.89,7.72-7.23,9.89-3.35,2.17-7.84,3.25-13.49,3.25Z"/><path d="m508.45,158.52c-4.55,0-8.29-.78-11.21-2.34-2.93-1.56-5.21-3.79-6.85-6.7s-2.78-6.38-3.41-10.43c-.63-4.04-.95-8.57-.95-13.58v-10.42h14.09v11.24c0,7.04.54,12.07,1.61,15.1s3.32,4.55,6.73,4.55c2.32,0,4.04-.55,5.18-1.64s1.87-2.84,2.21-5.24c.34-2.4.51-5.58.51-9.54,0-4.63-.88-8.71-2.62-12.22s-4.31-7.02-7.67-10.52l-7.71-7.71c-2.15-2.27-4.2-4.71-6.16-7.3-1.96-2.59-3.55-5.51-4.77-8.75-1.22-3.24-1.83-6.93-1.83-11.06,0-5.69.65-10.57,1.96-14.66,1.3-4.09,3.57-7.21,6.79-9.38s7.74-3.25,13.55-3.25c4.51,0,8.15.75,10.93,2.24s4.91,3.63,6.38,6.41c1.47,2.78,2.48,6.11,3.03,9.98.55,3.88.82,8.21.82,13.01v6.7h-13.77v-7.64c0-4.04-.18-7.4-.54-10.08s-1.06-4.69-2.12-6.03c-1.05-1.35-2.63-2.02-4.74-2.02-1.98,0-3.58.46-4.8,1.39-1.22.93-2.11,2.35-2.65,4.27-.55,1.92-.82,4.39-.82,7.42,0,2.7.33,4.95.98,6.76.65,1.81,1.66,3.53,3.03,5.15,1.37,1.62,3.04,3.49,5.02,5.59l8.21,8.78c4.17,4.42,7.51,9.2,10.01,14.34,2.5,5.14,3.76,10.99,3.76,17.56s-.65,11.77-1.96,16.24c-1.31,4.47-3.56,7.88-6.76,10.23-3.2,2.36-7.69,3.54-13.46,3.54Z"/><path d="m545.85,157.25V46.06h14.72v111.19h-14.72Z"/><path d="m580.85,157.25V46.06h34.94v12.44h-20.28v35.63h19.21v12.32h-19.21v38.35h20.72v12.45h-35.38Z"/><path d="m640.99,157.25l-14.22-111.19h13.33l8.91,82.7,11.69-82.7h11.94l11.88,82.7,7.71-82.7h13.33l-12.95,111.19h-14.59l-11.06-78.66-11.56,78.66h-14.4Z"/><path d="m720.08,157.25V46.06h34.94v12.44h-20.28v35.63h19.21v12.32h-19.21v38.35h20.72v12.45h-35.38Z"/><path d="m771.57,157.25V46.06h21.73c5.64,0,10.08.84,13.3,2.53,3.22,1.69,5.51,4.37,6.85,8.06s2.04,8.52,2.09,14.5v2.84c0,5.98-.65,10.89-1.96,14.72-1.31,3.83-3.64,6.55-7.01,8.15,2.78,1.05,4.96,2.86,6.54,5.43,1.58,2.57,2.71,5.66,3.38,9.29.67,3.62,1.01,7.56,1.01,11.81v2.53c-.09,7.33-.88,13.3-2.37,17.91-1.5,4.61-3.91,8-7.23,10.17-3.33,2.17-7.79,3.25-13.39,3.25h-22.93Zm14.66-65.39h6.95c1.64,0,2.98-.2,4.01-.6s1.83-1.17,2.4-2.31c.57-1.14.95-2.79,1.14-4.96s.28-5.04.28-8.62v-4.61c0-3.66-.3-6.42-.89-8.28-.59-1.85-1.52-3.1-2.78-3.73-1.26-.63-2.93-.95-4.99-.95h-6.13v34.05Zm0,53.76h7.2c2.4,0,4.27-.57,5.59-1.71s2.27-3.07,2.84-5.81c.57-2.74.85-6.53.85-11.37v-6c0-6.23-.54-10.74-1.61-13.52s-3.34-4.17-6.79-4.17h-8.09v42.58Z"/></svg>